{"accessors":[{"bufferView":0,"componentType":5123,"count":600,"max":[120],"min":[0],"type":"SCALAR"},{"bufferView":1,"componentType":5126,"count":121,"max":[3.2770071029663086,4.093107223510742,-1.9601019620895386],"min":[-3.0814459323883057,0.31643998622894287,-1.9601019620895386],"type":"VEC3"},{"bufferView":2,"componentType":5126,"count":121,"max":[0.0,0.0,1.0],"min":[0.0,0.0,1.0],"type":"VEC3"},{"bufferView":3,"componentType":5126,"count":121,"max":[0.9637179970741272,0.9492800012230873],"min":[0.6146029829978943,0.7419190108776093],"type":"VEC2"},{"bufferView":4,"componentType":5123,"count":90408,"max":[20570],"min":[0],"type":"SCALAR"},{"bufferView":5,"componentType":5126,"count":20571,"max":[2.9176440238952637,0.23991699516773224,0.4977239966392517],"min":[-2.6603341102600098,0.09544099867343903,-1.3634129762649536],"type":"VEC3"},{"bufferView":6,"componentType":5126,"count":20571,"max":[0.9919534921646118,0.9992039799690247,0.9996528625488281],"min":[-0.991950511932373,-0.9991999864578247,-0.9996496438980103],"type":"VEC3"},{"bufferView":7,"componentType":5126,"count":20571,"max":[0.9723770022392273,0.9950000001117587],"min":[0.004999999888241291,0.018211007118225098],"type":"VEC2"},{"bufferView":8,"componentType":5123,"count":1812,"max":[559],"min":[0],"type":"SCALAR"},{"bufferView":9,"componentType":5126,"count":560,"max":[3.528947114944458,4.348066806793213,-1.934203028678894],"min":[-3.3035531044006348,0.13608099520206451,-2.0916929244995117],"type":"VEC3"},{"bufferView":10,"componentType":5126,"count":560,"max":[1.0,0.9998012185096741,0.999980628490448],"min":[-1.0,-0.9997986555099487,-0.9832081198692322],"type":"VEC3"},{"bufferView":11,"componentType":5126,"count":560,"max":[0.9733710289001465,0.9950000001117587],"min":[0.004999999888241291,0.1521649956703186],"type":"VEC2"},{"bufferView":12,"componentType":5123,"count":2424,"max":[519],"min":[0],"type":"SCALAR"},{"bufferView":13,"componentType":5126,"count":520,"max":[2.8108630180358887,0.327114999294281,-1.8078830242156982],"min":[-2.5996921062469482,0.14090800285339355,-2.0037710666656494],"type":"VEC3"},{"bufferView":14,"componentType":5126,"count":520,"max":[0.999995768070221,0.9996777772903442,0.9995957612991333],"min":[-0.999995768070221,-0.9997730255126953,-0.025605004280805588],"type":"VEC3"},{"bufferView":15,"componentType":5126,"count":520,"max":[0.8222309947013855,0.9683299995958805],"min":[0.004999999888241291,0.21425598859786987],"type":"VEC2"},{"bufferView":16,"componentType":5123,"count":74631,"max":[18000],"min":[0],"type":"SCALAR"},{"bufferView":17,"componentType":5126,"count":18001,"max":[3.5056869983673096,0.2474689930677414,2.2879300117492676],"min":[-3.3033010959625244,-0.046907998621463776,-1.9064949750900269],"type":"VEC3"},{"bufferView":18,"componentType":5126,"count":18001,"max":[1.0,1.0,1.0],"min":[-1.0,-1.0,-1.0],"type":"VEC3"},{"bufferView":19,"componentType":5126,"count":18001,"max":[0.9758149981498718,0.9950000001117587],"min":[0.004999999888241291,0.004999995231628418],"type":"VEC2"}],"asset":{"copyright":null,"generator":"Soft8Soft Verge3D for Maya plug-in","version":"2.0"},"bufferViews":[{"buffer":0,"byteLength":1200,"byteOffset":0,"target":34963},{"buffer":0,"byteLength":1452,"byteOffset":1200,"target":34962},{"buffer":0,"byteLength":1452,"byteOffset":2652,"target":34962},{"buffer":0,"byteLength":968,"byteOffset":4104,"target":34962},{"buffer":0,"byteLength":180816,"byteOffset":5072,"target":34963},{"buffer":0,"byteLength":246852,"byteOffset":185888,"target":34962},{"buffer":0,"byteLength":246852,"byteOffset":432740,"target":34962},{"buffer":0,"byteLength":164568,"byteOffset":679592,"target":34962},{"buffer":0,"byteLength":3624,"byteOffset":844160,"target":34963},{"buffer":0,"byteLength":6720,"byteOffset":847784,"target":34962},{"buffer":0,"byteLength":6720,"byteOffset":854504,"target":34962},{"buffer":0,"byteLength":4480,"byteOffset":861224,"target":34962},{"buffer":0,"byteLength":4848,"byteOffset":865704,"target":34963},{"buffer":0,"byteLength":6240,"byteOffset":870552,"target":34962},{"buffer":0,"byteLength":6240,"byteOffset":876792,"target":34962},{"buffer":0,"byteLength":4160,"byteOffset":883032,"target":34962},{"buffer":0,"byteLength":149262,"byteOffset":887192,"target":34963},{"buffer":0,"byteLength":216012,"byteOffset":1036456,"target":34962},{"buffer":0,"byteLength":216012,"byteOffset":1252468,"target":34962},{"buffer":0,"byteLength":144008,"byteOffset":1468480,"target":34962}],"buffers":[{"byteLength":1612488,"uri":"laptop.bin"}],"cameras":[{"extensions":{"S8S_v3d_camera":{"controls":"ORBIT","enablePan":true,"moveSpeed":1.0,"orbitMaxDistance":1000.0,"orbitMaxPolarAngle":3.141592653589793,"orbitMaxZoom":100.0,"orbitMinDistance":0.0,"orbitMinPolarAngle":0.0,"orbitMinZoom":0.009999999776482582,"orbitTarget":[-13.239646296434895,30.757440905584996,-9.82843438275368],"rotateSpeed":1.0,"viewportFitInitialAspect":1.5,"viewportFitType":"HORIZONTAL"}},"name":"perspShape","perspective":{"aspectRatio":1.5,"yfov":0.6605947096585075,"zfar":10000.0,"znear":0.1},"type":"perspective"}],"extensions":{"S8S_v3d_lights":{"lights":[{"color":[1,1,1],"intensity":2.5,"name":"__DEFAULT__","profile":"maya","type":"directional"}]}},"extensionsUsed":["S8S_v3d_materials","S8S_v3d_lights","S8S_v3d_camera","S8S_v3d_mesh","S8S_v3d_node","S8S_v3d_scene"],"materials":[{"extensions":{"S8S_v3d_materials":{"gtaoVisible":true,"nodeGraph":{"edges":[{"fromNode":1,"fromOutput":0,"toInput":0,"toNode":0}],"nodes":[{"inputs":[[0.0,0.0,0.0,1],[0,0,0,0],[0,0,0]],"is_active_output":true,"name":"phong1SG","outputs":[],"type":"SHADING_ENGINE_MY"},{"inputs":[[0.9803000092506409,0.7450000047683716,0.31369999051094055],[0.0,0.0,0.0],[0.0,0.0,0.0],1.0,0.800000011920929,[1.0,1.0,1.0],0.5,[0.0,0.0,0.0],20.0,[0.5,0.5,0.5],0.0,[0.0,0.0,0.0]],"name":"yellow_pong","outputs":[[0.0,0.0,0.0,0]],"type":"PHONG_MY"}]},"profile":"maya"}},"name":"yellow_pong"},{"extensions":{"S8S_v3d_materials":{"nodeGraph":{"edges":[{"fromNode":0,"fromOutput":0,"toInput":0,"toNode":1}],"nodes":[{"inputs":[[0.10653923276464054,0.10653923276464054,0.10653923276464054],[0,0,0],[0,0,0],[0,0,0],[0,0,0],[0,0,0]],"name":"aiRaySwitchColor","outputs":[[0,0,0],0],"type":"RAY_SWITCH_AR"},{"inputs":[[0,0,0],1],"is_active_output":true,"name":"aiSkyDomeLightShapeColor","outputs":[],"type":"SKYDOME_LIGHT_AR"}]},"profile":"maya"}},"name":"Verge3D_Environment"}],"meshes":[{"extensions":{"S8S_v3d_mesh":{}},"name":"laptop:pPlane1Shape","primitives":[{"attributes":{"NORMAL":2,"POSITION":1,"TEXCOORD_0":3},"indices":0,"material":0,"mode":4}]},{"extensions":{"S8S_v3d_mesh":{}},"name":"laptop:polySurface167Shape","primitives":[{"attributes":{"NORMAL":6,"POSITION":5,"TEXCOORD_0":7},"indices":4,"material":0,"mode":4}]},{"extensions":{"S8S_v3d_mesh":{}},"name":"laptop:polySurface299Shape","primitives":[{"attributes":{"NORMAL":10,"POSITION":9,"TEXCOORD_0":11},"indices":8,"material":0,"mode":4}]},{"extensions":{"S8S_v3d_mesh":{}},"name":"laptop:polySurface298Shape","primitives":[{"attributes":{"NORMAL":14,"POSITION":13,"TEXCOORD_0":15},"indices":12,"material":0,"mode":4}]},{"extensions":{"S8S_v3d_mesh":{}},"name":"laptop:locator1Shape","primitives":[{"attributes":{"NORMAL":18,"POSITION":17,"TEXCOORD_0":19},"indices":16,"material":0,"mode":4}]}],"nodes":[{"children":[1,2,3,4,5],"extensions":{"S8S_v3d_node":{"hidden":false,"hidpiCompositing":false}},"name":"laptop1","rotation":[-0.5000000000000002,0.49999999999999967,-0.4999999999999998,0.5000000000000003],"scale":[0.678493641179604,0.678493641179604,0.678493641179604],"translation":[-16.33389281446067,39.6037392768078,-3.3724116366308654]},{"extensions":{"S8S_v3d_node":{"frustumCulling":true,"groupNames":["laptop1"],"hidden":false,"hidpiCompositing":false,"renderOrder":0,"useCastShadows":true,"useShadows":true}},"mesh":0,"name":"laptop:pPlane1","rotation":[0.0,0.0,0.0,1.0],"scale":[1.0,1.0,1.0],"translation":[0.0,0.0,0.0]},{"extensions":{"S8S_v3d_node":{"frustumCulling":true,"groupNames":["laptop1"],"hidden":false,"hidpiCompositing":false,"renderOrder":0,"useCastShadows":true,"useShadows":true}},"mesh":1,"name":"laptop:polySurface167","rotation":[0.0,0.0,0.0,1.0],"scale":[1.0,1.0,1.0],"translation":[0.0,0.0,0.0]},{"extensions":{"S8S_v3d_node":{"frustumCulling":true,"groupNames":["laptop1"],"hidden":false,"hidpiCompositing":false,"renderOrder":0,"useCastShadows":true,"useShadows":true}},"mesh":2,"name":"laptop:polySurface299","rotation":[0.0,0.0,0.0,1.0],"scale":[1.0,1.0,1.0],"translation":[0.0,0.0,0.0]},{"extensions":{"S8S_v3d_node":{"frustumCulling":true,"groupNames":["laptop1"],"hidden":false,"hidpiCompositing":false,"renderOrder":0,"useCastShadows":true,"useShadows":true}},"mesh":3,"name":"laptop:polySurface298","rotation":[0.0,0.0,0.0,1.0],"scale":[1.0,1.0,1.0],"translation":[0.0,0.0,0.0]},{"extensions":{"S8S_v3d_node":{"frustumCulling":true,"groupNames":["laptop1"],"hidden":false,"hidpiCompositing":false,"renderOrder":0,"useCastShadows":true,"useShadows":true}},"mesh":4,"name":"laptop:locator1","rotation":[0.0,0.0,0.0,1.0],"scale":[1.0,1.0,1.0],"translation":[0.0,0.0,0.0]},{"camera":0,"children":[7],"extensions":{"S8S_v3d_node":{"hidden":true,"hidpiCompositing":false}},"name":"persp","rotation":[-0.2230243961057575,0.37136585056309357,0.09237972960707397,0.8965564730316413],"scale":[1.0,1.0,1.0],"translation":[27.050888176479436,60.97534176027079,30.462100090160686]},{"extensions":{"S8S_v3d_lights":{"light":0}},"name":"__DEFAULT_LIGHT__","rotation":[-0.13052619222005157,-0.0,-0.0,0.9914448613738104],"translation":[27.050888176479436,60.97534176027079,30.462100090160686]}],"scene":0,"scenes":[{"extensions":{"S8S_v3d_scene":{"aaMethod":"AUTO","iblEnvironmentMode":"PMREM","physicallyCorrectLights":true,"shadowMap":{"esmDistanceScale":2.5,"renderReverseSided":false,"renderSingleSided":true,"type":"PCFPOISSON"},"unitsScaleFactor":1.0,"useHDR":false,"worldMaterial":1}},"extras":{"animFrameRate":24.0,"coordSystem":"Y_UP_RIGHT"},"name":"Scene","nodes":[0,6]}]}