{"accessors":[{"bufferView":0,"componentType":5123,"count":44184,"max":[11046],"min":[0],"type":"SCALAR"},{"bufferView":1,"componentType":5126,"count":11047,"max":[98.47740936279297,12.334939002990723,2.5],"min":[1.4251855611801147,-3.0253942012786865,0.0],"type":"VEC3"},{"bufferView":2,"componentType":5126,"count":11047,"max":[1.0,1.0,1.0],"min":[-1.0,-1.0,-1.0],"type":"VEC3"},{"bufferView":3,"componentType":5126,"count":11047,"max":[0.994519054889679,0.9980079680681229],"min":[0.001985067967325449,0.00199204683303833],"type":"VEC2"},{"bufferView":4,"componentType":5123,"count":35178,"max":[8734],"min":[0],"type":"SCALAR"},{"bufferView":5,"componentType":5126,"count":8735,"max":[70.70295715332031,12.268264770507812,2.5],"min":[1.4251855611801147,-3.0253942012786865,0.0],"type":"VEC3"},{"bufferView":6,"componentType":5126,"count":8735,"max":[1.0,1.0,1.0],"min":[-1.0,-1.0,-1.0],"type":"VEC3"},{"bufferView":7,"componentType":5126,"count":8735,"max":[0.974845290184021,0.9980079678352922],"min":[0.0019457991002127528,0.00199204683303833],"type":"VEC2"},{"bufferView":8,"componentType":5123,"count":24438,"max":[6273],"min":[0],"type":"SCALAR"},{"bufferView":9,"componentType":5126,"count":6274,"max":[75.0701904296875,12.00156307220459,2.5],"min":[0.25003257393836975,-0.1333507001399994,0.0],"type":"VEC3"},{"bufferView":10,"componentType":5126,"count":6274,"max":[1.0,1.0,1.0],"min":[-1.0,-1.0,-1.0],"type":"VEC3"},{"bufferView":11,"componentType":5126,"count":6274,"max":[0.9910224676132202,0.9980079678352922],"min":[0.0019780888687819242,0.0019919276237487793],"type":"VEC2"},{"bufferView":12,"componentType":5123,"count":13998,"max":[3662],"min":[0],"type":"SCALAR"},{"bufferView":13,"componentType":5126,"count":3663,"max":[73.27047729492188,12.334939002990723,2.5],"min":[1.4251855611801147,-2.8253679275512695,0.0],"type":"VEC3"},{"bufferView":14,"componentType":5126,"count":3663,"max":[1.0,1.0,1.0],"min":[-1.0,-1.0,-1.0],"type":"VEC3"},{"bufferView":15,"componentType":5126,"count":3663,"max":[0.9980080127716064,0.9980399862397462],"min":[0.00199203216470778,0.018033087253570557],"type":"VEC2"}],"asset":{"copyright":null,"generator":"Soft8Soft Verge3D for Maya plug-in","version":"2.0"},"bufferViews":[{"buffer":0,"byteLength":88368,"byteOffset":0,"target":34963},{"buffer":0,"byteLength":132564,"byteOffset":88368,"target":34962},{"buffer":0,"byteLength":132564,"byteOffset":220932,"target":34962},{"buffer":0,"byteLength":88376,"byteOffset":353496,"target":34962},{"buffer":0,"byteLength":70356,"byteOffset":441872,"target":34963},{"buffer":0,"byteLength":104820,"byteOffset":512228,"target":34962},{"buffer":0,"byteLength":104820,"byteOffset":617048,"target":34962},{"buffer":0,"byteLength":69880,"byteOffset":721868,"target":34962},{"buffer":0,"byteLength":48876,"byteOffset":791748,"target":34963},{"buffer":0,"byteLength":75288,"byteOffset":840624,"target":34962},{"buffer":0,"byteLength":75288,"byteOffset":915912,"target":34962},{"buffer":0,"byteLength":50192,"byteOffset":991200,"target":34962},{"buffer":0,"byteLength":27996,"byteOffset":1041392,"target":34963},{"buffer":0,"byteLength":43956,"byteOffset":1069388,"target":34962},{"buffer":0,"byteLength":43956,"byteOffset":1113344,"target":34962},{"buffer":0,"byteLength":29304,"byteOffset":1157300,"target":34962}],"buffers":[{"byteLength":1186604,"uri":"lettering.bin"}],"cameras":[{"extensions":{"S8S_v3d_camera":{"controls":"ORBIT","enablePan":true,"moveSpeed":1.0,"orbitMaxDistance":1000.0,"orbitMaxPolarAngle":3.141592653589793,"orbitMaxZoom":100.0,"orbitMinDistance":0.0,"orbitMinPolarAngle":0.0,"orbitMinZoom":0.009999999776482582,"orbitTarget":[2.2365534125148656,20.526924285625,-17.63174662673346],"rotateSpeed":1.0,"viewportFitInitialAspect":1.5,"viewportFitType":"HORIZONTAL"}},"name":"perspShape","perspective":{"aspectRatio":1.5,"yfov":0.6605947096585075,"zfar":10000.0,"znear":0.1},"type":"perspective"}],"extensions":{"S8S_v3d_lights":{"lights":[{"color":[1,1,1],"intensity":2.5,"name":"__DEFAULT__","profile":"maya","type":"directional"}]}},"extensionsUsed":["S8S_v3d_materials","S8S_v3d_lights","S8S_v3d_camera","S8S_v3d_mesh","S8S_v3d_node","S8S_v3d_scene"],"materials":[{"extensions":{"S8S_v3d_materials":{"gtaoVisible":true,"nodeGraph":{"edges":[{"fromNode":1,"fromOutput":0,"toInput":0,"toNode":0}],"nodes":[{"inputs":[[0.0,0.0,0.0,1],[0,0,0,0],[0,0,0]],"is_active_output":true,"name":"initialParticleSE","outputs":[],"type":"SHADING_ENGINE_MY"},{"inputs":[[0.5,0.5,0.5],[0.0,0.0,0.0],[0.0,0.0,0.0],1.0,0.800000011920929,[1.0,1.0,1.0],0.0,[0.0,0.0,0.0]],"name":"lambert1","outputs":[[0.0,0.0,0.0,0]],"type":"LAMBERT_MY"}]},"profile":"maya"}},"name":"lambert1"},{"extensions":{"S8S_v3d_materials":{"nodeGraph":{"edges":[{"fromNode":0,"fromOutput":0,"toInput":0,"toNode":1}],"nodes":[{"inputs":[[0.10653923276464054,0.10653923276464054,0.10653923276464054],[0,0,0],[0,0,0],[0,0,0],[0,0,0],[0,0,0]],"name":"aiRaySwitchColor","outputs":[[0,0,0],0],"type":"RAY_SWITCH_AR"},{"inputs":[[0,0,0],1],"is_active_output":true,"name":"aiSkyDomeLightShapeColor","outputs":[],"type":"SKYDOME_LIGHT_AR"}]},"profile":"maya"}},"name":"Verge3D_Environment"}],"meshes":[{"extensions":{"S8S_v3d_mesh":{}},"name":"Type__Pre_diagnosisShape","primitives":[{"attributes":{"NORMAL":2,"POSITION":1,"TEXCOORD_0":3},"indices":0,"material":0,"mode":4}]},{"extensions":{"S8S_v3d_mesh":{}},"name":"Type__DiagnosisShape","primitives":[{"attributes":{"NORMAL":6,"POSITION":5,"TEXCOORD_0":7},"indices":4,"material":0,"mode":4}]},{"extensions":{"S8S_v3d_mesh":{}},"name":"Type__TreatmentShape","primitives":[{"attributes":{"NORMAL":10,"POSITION":9,"TEXCOORD_0":11},"indices":8,"material":0,"mode":4}]},{"extensions":{"S8S_v3d_mesh":{}},"name":"Type__FollowupShape","primitives":[{"attributes":{"NORMAL":14,"POSITION":13,"TEXCOORD_0":15},"indices":12,"material":0,"mode":4}]}],"nodes":[{"children":[1],"extensions":{"S8S_v3d_node":{"hidden":false,"hidpiCompositing":false}},"name":"Levels","rotation":[0.0,0.0,0.0,1.0],"scale":[2.0,2.0,2.0],"translation":[0.0,0.0,0.0]},{"children":[2,3,4,5],"extensions":{"S8S_v3d_node":{"groupNames":["Levels"],"hidden":false,"hidpiCompositing":false}},"name":"Letterings","rotation":[0.0,0.0,0.0,1.0],"scale":[1.0,1.0,1.0],"translation":[0.0,0.0,0.0]},{"extensions":{"S8S_v3d_node":{"frustumCulling":true,"groupNames":["Letterings","Levels"],"hidden":false,"hidpiCompositing":false,"renderOrder":0,"useCastShadows":true,"useShadows":true}},"mesh":0,"name":"Type__Pre_diagnosis","rotation":[-0.5000000000000003,0.49999999999999967,0.49999999999999944,0.5000000000000006],"scale":[0.08214017915770377,0.08214017915770377,0.08214017915770377],"translation":[-2.9001627530383765,0.02414051752620683,6.480652666434294]},{"extensions":{"S8S_v3d_node":{"frustumCulling":true,"groupNames":["Letterings","Levels"],"hidden":false,"hidpiCompositing":false,"renderOrder":0,"useCastShadows":true,"useShadows":true}},"mesh":1,"name":"Type__Diagnosis","rotation":[0.0,0.0,0.0,1.0],"scale":[0.08823405056618214,0.08823405056618214,0.08823405056618214],"translation":[2.3959803409294853,9.903053511446348,-10.933046925498026]},{"extensions":{"S8S_v3d_node":{"frustumCulling":true,"groupNames":["Letterings","Levels"],"hidden":false,"hidpiCompositing":false,"renderOrder":0,"useCastShadows":true,"useShadows":true}},"mesh":2,"name":"Type__Treatment","rotation":[-0.5000000000000001,0.5000000000000001,0.4999999999999999,0.5000000000000002],"scale":[0.08823405056618214,0.08823405056618214,0.08823405056618214],"translation":[-9.688639320996817,15.646434005412868,7.3397054964621065]},{"extensions":{"S8S_v3d_node":{"frustumCulling":true,"groupNames":["Letterings","Levels"],"hidden":false,"hidpiCompositing":false,"renderOrder":0,"useCastShadows":true,"useShadows":true}},"mesh":3,"name":"Type__Followup","rotation":[0.0,0.0,0.0,1.0],"scale":[0.08823405056618214,0.08823405056618214,0.08823405056618214],"translation":[3.156171714617323,28.49269253151131,-12.959007069621972]},{"camera":0,"children":[7],"extensions":{"S8S_v3d_node":{"hidden":true,"hidpiCompositing":false}},"name":"persp","rotation":[-0.2230243961057575,0.37136585056309357,0.09237972960707397,0.8965564730316413],"scale":[1.0,1.0,1.0],"translation":[105.76255096746391,98.17142245183689,85.89425092821568]},{"extensions":{"S8S_v3d_lights":{"light":0}},"name":"__DEFAULT_LIGHT__","rotation":[-0.13052619222005157,-0.0,-0.0,0.9914448613738104],"translation":[105.76255096746391,98.17142245183689,85.89425092821568]}],"scene":0,"scenes":[{"extensions":{"S8S_v3d_scene":{"aaMethod":"AUTO","iblEnvironmentMode":"PMREM","physicallyCorrectLights":true,"shadowMap":{"esmDistanceScale":2.5,"renderReverseSided":false,"renderSingleSided":true,"type":"PCFPOISSON"},"unitsScaleFactor":1.0,"useHDR":false,"worldMaterial":1}},"extras":{"animFrameRate":24.0,"coordSystem":"Y_UP_RIGHT"},"name":"Scene","nodes":[0,6]}]}