{"accessors":[{"bufferView":0,"componentType":5125,"count":1519551,"max":[1519550],"min":[0],"type":"SCALAR"},{"bufferView":1,"componentType":5126,"count":1519551,"max":[107.95108795166016,90.53633880615234,151.83981323242188],"min":[-102.67704772949219,-109.99923706054688,-6.3659491539001465],"type":"VEC3"},{"bufferView":2,"componentType":5126,"count":1519551,"max":[0.9999983310699463,0.9999966621398926,0.999995768070221],"min":[-0.9999996423721313,-0.9999987483024597,-0.9999987483024597],"type":"VEC3"},{"bufferView":3,"componentType":5126,"count":1519551,"max":[0.9971650242805481,0.9992130000027828],"min":[0.0007440000190399587,0.0007439851760864258],"type":"VEC2"}],"asset":{"copyright":null,"generator":"Soft8Soft Verge3D for Maya plug-in","version":"2.0"},"bufferViews":[{"buffer":0,"byteLength":6078204,"byteOffset":0,"target":34963},{"buffer":0,"byteLength":18234612,"byteOffset":6078204,"target":34962},{"buffer":0,"byteLength":18234612,"byteOffset":24312816,"target":34962},{"buffer":0,"byteLength":12156408,"byteOffset":42547428,"target":34962}],"buffers":[{"byteLength":54703836,"uri":"beanie.bin"}],"cameras":[{"extensions":{"S8S_v3d_camera":{"controls":"ORBIT","enablePan":true,"moveSpeed":1.0,"orbitMaxDistance":1000.0,"orbitMaxPolarAngle":3.141592653589793,"orbitMaxZoom":100.0,"orbitMinDistance":0.0,"orbitMinPolarAngle":0.0,"orbitMinZoom":0.009999999776482582,"orbitTarget":[0.0,-2.842170943040401e-14,0.0],"rotateSpeed":1.0,"viewportFitInitialAspect":1.5,"viewportFitType":"HORIZONTAL"}},"name":"perspShape","perspective":{"aspectRatio":1.5,"yfov":0.6605947096585075,"zfar":10000.0,"znear":0.1},"type":"perspective"}],"extensions":{"S8S_v3d_lights":{"lights":[{"color":[1,1,1],"intensity":2.5,"name":"__DEFAULT__","profile":"maya","type":"directional"}]}},"extensionsUsed":["S8S_v3d_materials","S8S_v3d_lights","S8S_v3d_camera","S8S_v3d_mesh","S8S_v3d_node","S8S_v3d_scene"],"materials":[{"extensions":{"S8S_v3d_materials":{"gtaoVisible":true,"nodeGraph":{"edges":[{"fromNode":1,"fromOutput":0,"toInput":0,"toNode":0}],"nodes":[{"inputs":[[0.0,0.0,0.0,1],[0,0,0,0],[0,0,0]],"is_active_output":true,"name":"phong1SG","outputs":[],"type":"SHADING_ENGINE_MY"},{"inputs":[[0.9803000092506409,0.7450000047683716,0.31369999051094055],[0.0,0.0,0.0],[0.0,0.0,0.0],1.0,0.800000011920929,[1.0,1.0,1.0],0.5,[0.0,0.0,0.0],20.0,[0.5,0.5,0.5],0.0,[0.0,0.0,0.0]],"name":"yellow_pong","outputs":[[0.0,0.0,0.0,0]],"type":"PHONG_MY"}]},"profile":"maya"}},"name":"yellow_pong"},{"extensions":{"S8S_v3d_materials":{"nodeGraph":{"edges":[{"fromNode":0,"fromOutput":0,"toInput":0,"toNode":1}],"nodes":[{"inputs":[[0.10653923276464054,0.10653923276464054,0.10653923276464054],[0,0,0],[0,0,0],[0,0,0],[0,0,0],[0,0,0]],"name":"aiRaySwitchColor","outputs":[[0,0,0],0],"type":"RAY_SWITCH_AR"},{"inputs":[[0,0,0],1],"is_active_output":true,"name":"aiSkyDomeLightShapeColor","outputs":[],"type":"SKYDOME_LIGHT_AR"}]},"profile":"maya"}},"name":"Verge3D_Environment"}],"meshes":[{"extensions":{"S8S_v3d_mesh":{}},"name":"level3_allobjects:beanieShape","primitives":[{"attributes":{"NORMAL":2,"POSITION":1,"TEXCOORD_0":3},"indices":0,"material":0,"mode":4}]}],"nodes":[{"extensions":{"S8S_v3d_node":{"frustumCulling":true,"hidden":false,"hidpiCompositing":false,"renderOrder":0,"useCastShadows":true,"useShadows":true}},"mesh":0,"name":"level3_allobjects:beanie","rotation":[-0.49999999999999983,0.49999999999999967,-0.5000000000000002,0.5000000000000003],"scale":[0.009664539953546235,0.009664539953546235,0.009664539953546235],"translation":[-10.517376967482436,46.192985685397936,-3.656234229667591]},{"camera":0,"children":[2],"extensions":{"S8S_v3d_node":{"hidden":true,"hidpiCompositing":false}},"name":"persp","rotation":[-0.2230243961057575,0.37136585056309357,0.09237972960707397,0.8965564730316413],"scale":[1.0,1.0,1.0],"translation":[143.99934570005541,107.99950927504167,143.99934570005553]},{"extensions":{"S8S_v3d_lights":{"light":0}},"name":"__DEFAULT_LIGHT__","rotation":[-0.13052619222005157,-0.0,-0.0,0.9914448613738104],"translation":[143.99934570005541,107.99950927504167,143.99934570005553]}],"scene":0,"scenes":[{"extensions":{"S8S_v3d_scene":{"aaMethod":"AUTO","iblEnvironmentMode":"PMREM","physicallyCorrectLights":true,"shadowMap":{"esmDistanceScale":2.5,"renderReverseSided":false,"renderSingleSided":true,"type":"PCFPOISSON"},"unitsScaleFactor":1.0,"useHDR":false,"worldMaterial":1}},"extras":{"animFrameRate":24.0,"coordSystem":"Y_UP_RIGHT"},"name":"Scene","nodes":[0,1]}]}