{"accessors":[{"bufferView":0,"componentType":5123,"count":33024,"max":[9125],"min":[0],"type":"SCALAR"},{"bufferView":1,"componentType":5126,"count":9126,"max":[0.07005514204502106,0.07005514204502106,0.007781518157571554],"min":[-0.07005514204502106,-0.07005514204502106,-0.006218482740223408],"type":"VEC3"},{"bufferView":2,"componentType":5126,"count":9126,"max":[0.9999744296073914,0.9999745488166809,0.9999991059303284],"min":[-0.9999745488166809,-0.9999744296073914,-0.9999991059303284],"type":"VEC3"},{"bufferView":3,"componentType":5126,"count":9126,"max":[1.0000003576278687,0.9829503614455462],"min":[-4.5107182700121484e-07,0.0],"type":"VEC2"},{"bufferView":4,"componentType":5123,"count":756,"max":[257],"min":[0],"type":"SCALAR"},{"bufferView":5,"componentType":5126,"count":258,"max":[0.004750000312924385,0.004750000312924385,0.0650000050663948],"min":[-0.004750000312924385,-0.004750000312924385,-0.0650000050663948],"type":"VEC3"},{"bufferView":6,"componentType":5126,"count":258,"max":[1.0,1.0,1.0],"min":[-1.0,-1.0,-1.0],"type":"VEC3"},{"bufferView":7,"componentType":5126,"count":258,"max":[1.0,0.989999994635582],"min":[0.0,0.0],"type":"VEC2"},{"bufferView":8,"componentType":5123,"count":3612,"max":[1297],"min":[0],"type":"SCALAR"},{"bufferView":9,"componentType":5126,"count":1298,"max":[0.08760661631822586,0.006250002421438694,0.008965328335762024],"min":[-0.08760660141706467,-0.006250002421438694,-0.09147566556930542],"type":"VEC3"},{"bufferView":10,"componentType":5126,"count":1298,"max":[0.999995231628418,1.0,1.0],"min":[-0.999995231628418,-1.0,-1.0],"type":"VEC3"},{"bufferView":11,"componentType":5126,"count":1298,"max":[1.0,1.0],"min":[0.0,0.07324707508087158],"type":"VEC2"},{"bufferView":12,"componentType":5123,"count":4368,"max":[1127],"min":[0],"type":"SCALAR"},{"bufferView":13,"componentType":5126,"count":1128,"max":[0.08636783063411713,0.00736690778285265,0.013940814882516861],"min":[-0.0863506942987442,-0.0073669045232236385,-0.013940819539129734],"type":"VEC3"},{"bufferView":14,"componentType":5126,"count":1128,"max":[1.0,1.0,0.9899539947509766],"min":[-1.0,-1.0,-0.9899541735649109],"type":"VEC3"},{"bufferView":15,"componentType":5126,"count":1128,"max":[0.0,1.0],"min":[0.0,1.0],"type":"VEC2"},{"bufferView":16,"componentType":5123,"count":32832,"max":[6695],"min":[0],"type":"SCALAR"},{"bufferView":17,"componentType":5126,"count":6696,"max":[0.0852363258600235,0.006000003777444363,0.08499381691217422],"min":[-0.08520746231079102,-0.006000003777444363,-0.08544997870922089],"type":"VEC3"},{"bufferView":18,"componentType":5126,"count":6696,"max":[0.9999120831489563,1.0,0.999998152256012],"min":[-0.9999075531959534,-1.0,-0.9999494552612305],"type":"VEC3"},{"bufferView":19,"componentType":5126,"count":6696,"max":[0.0,1.0],"min":[0.0,1.0],"type":"VEC2"},{"bufferView":20,"componentType":5123,"count":1524,"max":[767],"min":[0],"type":"SCALAR"},{"bufferView":21,"componentType":5126,"count":768,"max":[0.08249999582767487,0.004787987098097801,0.08140246570110321],"min":[-0.08249999582767487,0.003787979716435075,-0.08359752595424652],"type":"VEC3"},{"bufferView":22,"componentType":5126,"count":768,"max":[0.9996989369392395,1.0,0.99969881772995],"min":[-0.9996989369392395,-1.0,-0.9996989369392395],"type":"VEC3"},{"bufferView":23,"componentType":5126,"count":768,"max":[0.0,1.0],"min":[0.0,1.0],"type":"VEC2"},{"bufferView":24,"componentType":5123,"count":6864,"max":[4607],"min":[0],"type":"SCALAR"},{"bufferView":25,"componentType":5126,"count":4608,"max":[0.09007202088832855,0.0041292086243629456,0.004130398854613304],"min":[-0.09007202088832855,-0.004129194654524326,-0.2259078025817871],"type":"VEC3"},{"bufferView":26,"componentType":5126,"count":4608,"max":[1.0,0.9999843835830688,1.0],"min":[-1.0,-0.9999844431877136,-1.0],"type":"VEC3"},{"bufferView":27,"componentType":5126,"count":4608,"max":[1.0,0.9830204918980598],"min":[-0.0009054991533048451,0.0],"type":"VEC2"},{"bufferView":28,"componentType":5123,"count":756,"max":[257],"min":[0],"type":"SCALAR"},{"bufferView":29,"componentType":5126,"count":258,"max":[0.015000000596046448,0.015000000596046448,0.0005000000237487257],"min":[-0.015000000596046448,-0.015000000596046448,-0.0005000000237487257],"type":"VEC3"},{"bufferView":30,"componentType":5126,"count":258,"max":[1.0,1.0,1.0],"min":[-1.0,-1.0,-1.0],"type":"VEC3"},{"bufferView":31,"componentType":5126,"count":258,"max":[1.0,0.989999994635582],"min":[0.0,0.0],"type":"VEC2"},{"bufferView":32,"componentType":5123,"count":1524,"max":[767],"min":[0],"type":"SCALAR"},{"bufferView":33,"componentType":5126,"count":768,"max":[0.08249999582767487,0.004787987098097801,0.08140246570110321],"min":[-0.08249999582767487,0.003787979716435075,-0.08359752595424652],"type":"VEC3"},{"bufferView":34,"componentType":5126,"count":768,"max":[0.9996989369392395,1.0,0.99969881772995],"min":[-0.9996989369392395,-1.0,-0.9996989369392395],"type":"VEC3"},{"bufferView":35,"componentType":5126,"count":768,"max":[0.0,1.0],"min":[0.0,1.0],"type":"VEC2"},{"bufferView":36,"componentType":5123,"count":6426,"max":[4283],"min":[0],"type":"SCALAR"},{"bufferView":37,"componentType":5126,"count":4284,"max":[0.028075486421585083,0.009960334748029709,-0.004427391104400158],"min":[-0.02807559259235859,-0.010128308087587357,-0.004933037795126438],"type":"VEC3"},{"bufferView":38,"componentType":5126,"count":4284,"max":[0.015254750847816467,0.027111798524856567,0.9999651312828064],"min":[-0.015293180011212826,0.008272265084087849,0.9995880126953125],"type":"VEC3"},{"bufferView":39,"componentType":5126,"count":4284,"max":[1.0,1.0],"min":[-3.637980541815189e-12,0.0],"type":"VEC2"}],"asset":{"copyright":null,"generator":"Soft8Soft Verge3D for Maya plug-in","version":"2.0"},"bufferViews":[{"buffer":0,"byteLength":66048,"byteOffset":0,"target":34963},{"buffer":0,"byteLength":109512,"byteOffset":66048,"target":34962},{"buffer":0,"byteLength":109512,"byteOffset":175560,"target":34962},{"buffer":0,"byteLength":73008,"byteOffset":285072,"target":34962},{"buffer":0,"byteLength":1512,"byteOffset":358080,"target":34963},{"buffer":0,"byteLength":3096,"byteOffset":359592,"target":34962},{"buffer":0,"byteLength":3096,"byteOffset":362688,"target":34962},{"buffer":0,"byteLength":2064,"byteOffset":365784,"target":34962},{"buffer":0,"byteLength":7224,"byteOffset":367848,"target":34963},{"buffer":0,"byteLength":15576,"byteOffset":375072,"target":34962},{"buffer":0,"byteLength":15576,"byteOffset":390648,"target":34962},{"buffer":0,"byteLength":10384,"byteOffset":406224,"target":34962},{"buffer":0,"byteLength":8736,"byteOffset":416608,"target":34963},{"buffer":0,"byteLength":13536,"byteOffset":425344,"target":34962},{"buffer":0,"byteLength":13536,"byteOffset":438880,"target":34962},{"buffer":0,"byteLength":9024,"byteOffset":452416,"target":34962},{"buffer":0,"byteLength":65664,"byteOffset":461440,"target":34963},{"buffer":0,"byteLength":80352,"byteOffset":527104,"target":34962},{"buffer":0,"byteLength":80352,"byteOffset":607456,"target":34962},{"buffer":0,"byteLength":53568,"byteOffset":687808,"target":34962},{"buffer":0,"byteLength":3048,"byteOffset":741376,"target":34963},{"buffer":0,"byteLength":9216,"byteOffset":744424,"target":34962},{"buffer":0,"byteLength":9216,"byteOffset":753640,"target":34962},{"buffer":0,"byteLength":6144,"byteOffset":762856,"target":34962},{"buffer":0,"byteLength":13728,"byteOffset":769000,"target":34963},{"buffer":0,"byteLength":55296,"byteOffset":782728,"target":34962},{"buffer":0,"byteLength":55296,"byteOffset":838024,"target":34962},{"buffer":0,"byteLength":36864,"byteOffset":893320,"target":34962},{"buffer":0,"byteLength":1512,"byteOffset":930184,"target":34963},{"buffer":0,"byteLength":3096,"byteOffset":931696,"target":34962},{"buffer":0,"byteLength":3096,"byteOffset":934792,"target":34962},{"buffer":0,"byteLength":2064,"byteOffset":937888,"target":34962},{"buffer":0,"byteLength":3048,"byteOffset":939952,"target":34963},{"buffer":0,"byteLength":9216,"byteOffset":943000,"target":34962},{"buffer":0,"byteLength":9216,"byteOffset":952216,"target":34962},{"buffer":0,"byteLength":6144,"byteOffset":961432,"target":34962},{"buffer":0,"byteLength":12852,"byteOffset":967576,"target":34963},{"buffer":0,"byteLength":51408,"byteOffset":980428,"target":34962},{"buffer":0,"byteLength":51408,"byteOffset":1031836,"target":34962},{"buffer":0,"byteLength":34272,"byteOffset":1083244,"target":34962}],"buffers":[{"byteLength":1117516,"uri":"mirror.bin"}],"cameras":[{"extensions":{"S8S_v3d_camera":{"controls":"ORBIT","enablePan":true,"moveSpeed":1.0,"orbitMaxDistance":1000.0,"orbitMaxPolarAngle":3.141592653589793,"orbitMaxZoom":100.0,"orbitMinDistance":0.0,"orbitMinPolarAngle":0.0,"orbitMinZoom":0.009999999776482582,"orbitTarget":[-2.9018589708687514,31.125852052005282,-20.442530068135056],"rotateSpeed":1.0,"viewportFitInitialAspect":1.5,"viewportFitType":"HORIZONTAL"}},"name":"perspShape","perspective":{"aspectRatio":1.5,"yfov":0.6605947096585075,"zfar":10000.0,"znear":0.1},"type":"perspective"}],"extensions":{"S8S_v3d_lights":{"lights":[{"color":[1,1,1],"intensity":2.5,"name":"__DEFAULT__","profile":"maya","type":"directional"}]}},"extensionsUsed":["S8S_v3d_materials","S8S_v3d_lights","S8S_v3d_camera","S8S_v3d_mesh","S8S_v3d_node","S8S_v3d_scene"],"materials":[{"extensions":{"S8S_v3d_materials":{"gtaoVisible":true,"nodeGraph":{"edges":[{"fromNode":1,"fromOutput":0,"toInput":0,"toNode":0}],"nodes":[{"inputs":[[0.0,0.0,0.0,1],[0,0,0,0],[0,0,0]],"is_active_output":true,"name":"phong1SG","outputs":[],"type":"SHADING_ENGINE_MY"},{"inputs":[[0.9803000092506409,0.7450000047683716,0.31369999051094055],[0.0,0.0,0.0],[0.0,0.0,0.0],1.0,0.800000011920929,[1.0,1.0,1.0],0.5,[0.0,0.0,0.0],20.0,[0.5,0.5,0.5],0.0,[0.0,0.0,0.0]],"name":"yellow_pong","outputs":[[0.0,0.0,0.0,0]],"type":"PHONG_MY"}]},"profile":"maya"}},"name":"yellow_pong"},{"extensions":{"S8S_v3d_materials":{"nodeGraph":{"edges":[{"fromNode":0,"fromOutput":0,"toInput":0,"toNode":1}],"nodes":[{"inputs":[[0.10653923276464054,0.10653923276464054,0.10653923276464054],[0,0,0],[0,0,0],[0,0,0],[0,0,0],[0,0,0]],"name":"aiRaySwitchColor","outputs":[[0,0,0],0],"type":"RAY_SWITCH_AR"},{"inputs":[[0,0,0],1],"is_active_output":true,"name":"aiSkyDomeLightShapeColor","outputs":[],"type":"SKYDOME_LIGHT_AR"}]},"profile":"maya"}},"name":"Verge3D_Environment"}],"meshes":[{"extensions":{"S8S_v3d_mesh":{}},"name":"level3_allobjects:BASEShape","primitives":[{"attributes":{"NORMAL":2,"POSITION":1,"TEXCOORD_0":3},"indices":0,"material":0,"mode":4}]},{"extensions":{"S8S_v3d_mesh":{}},"name":"level3_allobjects:FOOTShape","primitives":[{"attributes":{"NORMAL":6,"POSITION":5,"TEXCOORD_0":7},"indices":4,"material":0,"mode":4}]},{"extensions":{"S8S_v3d_mesh":{}},"name":"level3_allobjects:CShape","primitives":[{"attributes":{"NORMAL":10,"POSITION":9,"TEXCOORD_0":11},"indices":8,"material":0,"mode":4}]},{"extensions":{"S8S_v3d_mesh":{}},"name":"level3_allobjects:CLAMPShape","primitives":[{"attributes":{"NORMAL":14,"POSITION":13,"TEXCOORD_0":15},"indices":12,"material":0,"mode":4}]},{"extensions":{"S8S_v3d_mesh":{}},"name":"level3_allobjects:FRAMEShape","primitives":[{"attributes":{"NORMAL":18,"POSITION":17,"TEXCOORD_0":19},"indices":16,"material":0,"mode":4}]},{"extensions":{"S8S_v3d_mesh":{}},"name":"level3_allobjects:MIRRORFBXASC0322Shape","primitives":[{"attributes":{"NORMAL":22,"POSITION":21,"TEXCOORD_0":23},"indices":20,"material":0,"mode":4}]},{"extensions":{"S8S_v3d_mesh":{}},"name":"level3_allobjects:BOLTShape","primitives":[{"attributes":{"NORMAL":26,"POSITION":25,"TEXCOORD_0":27},"indices":24,"material":0,"mode":4}]},{"extensions":{"S8S_v3d_mesh":{}},"name":"level3_allobjects:ringShape","primitives":[{"attributes":{"NORMAL":30,"POSITION":29,"TEXCOORD_0":31},"indices":28,"material":0,"mode":4}]},{"extensions":{"S8S_v3d_mesh":{}},"name":"level3_allobjects:MIRRORFBXASC0322FBXASC046001Shape","primitives":[{"attributes":{"NORMAL":34,"POSITION":33,"TEXCOORD_0":35},"indices":32,"material":0,"mode":4}]},{"extensions":{"S8S_v3d_mesh":{}},"name":"level3_allobjects:IMGFBXASC0451872Shape","primitives":[{"attributes":{"NORMAL":38,"POSITION":37,"TEXCOORD_0":39},"indices":36,"material":0,"mode":4}]}],"nodes":[{"children":[1,2,3,4,5,6,7,8,9,10],"extensions":{"S8S_v3d_node":{"hidden":false,"hidpiCompositing":false}},"name":"level3_allobjects:Mirror","rotation":[0.0,0.23005752890594516,0.0,0.9731770308601052],"scale":[0.14014271185794314,0.1401427118579431,0.14014271185794314],"translation":[-7.035019776150378,34.00220945017045,-11.006536481626533]},{"extensions":{"S8S_v3d_node":{"frustumCulling":true,"groupNames":["level3_allobjects:Mirror"],"hidden":false,"hidpiCompositing":false,"renderOrder":0,"useCastShadows":true,"useShadows":true}},"mesh":0,"name":"level3_allobjects:BASE","rotation":[-0.7071068387877038,0.0,0.0,0.7071067235853865],"scale":[100.0,100.00000000000001,100.00000000000001],"translation":[0.0,0.0,0.0]},{"extensions":{"S8S_v3d_node":{"frustumCulling":true,"groupNames":["level3_allobjects:Mirror"],"hidden":false,"hidpiCompositing":false,"renderOrder":0,"useCastShadows":true,"useShadows":true}},"mesh":1,"name":"level3_allobjects:FOOT","rotation":[-0.7071068387877038,0.0,0.0,0.7071067235853865],"scale":[100.0,100.00000000000001,100.00000000000001],"translation":[0.0,7.2781524658203125,0.0]},{"extensions":{"S8S_v3d_node":{"frustumCulling":true,"groupNames":["level3_allobjects:Mirror"],"hidden":false,"hidpiCompositing":false,"renderOrder":0,"useCastShadows":true,"useShadows":true}},"mesh":2,"name":"level3_allobjects:C","rotation":[-0.7071068387877038,0.0,0.0,0.7071067235853865],"scale":[100.0,100.00000000000001,100.00000000000001],"translation":[0.0,22.92572021484375,-2.3283064365386963e-08]},{"extensions":{"S8S_v3d_node":{"frustumCulling":true,"groupNames":["level3_allobjects:Mirror"],"hidden":false,"hidpiCompositing":false,"renderOrder":0,"useCastShadows":true,"useShadows":true}},"mesh":3,"name":"level3_allobjects:CLAMP","rotation":[-0.7933533739561265,0.0,0.0,0.6087613851357777],"scale":[100.0,100.0,100.0],"translation":[6.661338147750939e-14,22.917882919311523,0.002081333426758647]},{"extensions":{"S8S_v3d_node":{"frustumCulling":true,"groupNames":["level3_allobjects:Mirror"],"hidden":false,"hidpiCompositing":false,"renderOrder":0,"useCastShadows":true,"useShadows":true}},"mesh":4,"name":"level3_allobjects:FRAME","rotation":[-0.7933533739561265,0.0,0.0,0.6087613851357777],"scale":[100.0,100.0,100.0],"translation":[0.0,22.917882919311523,0.002081333426758647]},{"extensions":{"S8S_v3d_node":{"frustumCulling":true,"groupNames":["level3_allobjects:Mirror"],"hidden":false,"hidpiCompositing":false,"renderOrder":0,"useCastShadows":true,"useShadows":true}},"mesh":5,"name":"level3_allobjects:MIRRORFBXASC0322","rotation":[-0.7933533739561265,0.0,0.0,0.6087613851357777],"scale":[100.0,100.0,100.0],"translation":[0.0,22.921844482421875,-0.013938913121819496]},{"extensions":{"S8S_v3d_node":{"frustumCulling":true,"groupNames":["level3_allobjects:Mirror"],"hidden":false,"hidpiCompositing":false,"renderOrder":0,"useCastShadows":true,"useShadows":true}},"mesh":6,"name":"level3_allobjects:BOLT","rotation":[-0.7071068387877038,0.0,0.0,0.7071067235853865],"scale":[100.0,100.00000000000001,100.00000000000001],"translation":[0.0,22.92572021484375,-2.3283064365386963e-08]},{"extensions":{"S8S_v3d_node":{"frustumCulling":true,"groupNames":["level3_allobjects:Mirror"],"hidden":false,"hidpiCompositing":false,"renderOrder":0,"useCastShadows":true,"useShadows":true}},"mesh":7,"name":"level3_allobjects:ring","rotation":[-0.7071068387877038,0.0,0.0,0.7071067235853865],"scale":[100.0,100.00000000000001,100.00000000000001],"translation":[0.0,0.6293455958366394,-2.3283064365386963e-08]},{"extensions":{"S8S_v3d_node":{"frustumCulling":true,"groupNames":["level3_allobjects:Mirror"],"hidden":false,"hidpiCompositing":false,"renderOrder":0,"useCastShadows":true,"useShadows":true}},"mesh":8,"name":"level3_allobjects:MIRRORFBXASC0322FBXASC046001","rotation":[0.6087616089645163,0.0,0.0,0.7933532022062642],"scale":[100.0,100.00000000000001,100.00000000000001],"translation":[0.0,22.929325103759766,0.013977420516312122]},{"extensions":{"S8S_v3d_node":{"frustumCulling":true,"groupNames":["level3_allobjects:Mirror"],"hidden":false,"hidpiCompositing":false,"renderOrder":0,"useCastShadows":true,"useShadows":true}},"mesh":9,"name":"level3_allobjects:IMGFBXASC0451872","rotation":[0.7071068809345475,0.0,0.0,0.7071066814385334],"scale":[100.0,100.00000000000001,100.00000000000001],"translation":[0.0,0.16433443129062653,-3.8495943546295166]},{"camera":0,"children":[12],"extensions":{"S8S_v3d_node":{"hidden":true,"hidpiCompositing":false}},"name":"persp","rotation":[-0.2230243961057575,0.37136585056309357,0.09237972960707397,0.8965564730316413],"scale":[1.0,1.0,1.0],"translation":[25.09814102910899,52.125852051988616,7.55746993184271]},{"extensions":{"S8S_v3d_lights":{"light":0}},"name":"__DEFAULT_LIGHT__","rotation":[-0.13052619222005157,-0.0,-0.0,0.9914448613738104],"translation":[25.09814102910899,52.125852051988616,7.55746993184271]}],"scene":0,"scenes":[{"extensions":{"S8S_v3d_scene":{"aaMethod":"AUTO","iblEnvironmentMode":"PMREM","physicallyCorrectLights":true,"shadowMap":{"esmDistanceScale":2.5,"renderReverseSided":false,"renderSingleSided":true,"type":"PCFPOISSON"},"unitsScaleFactor":1.0,"useHDR":false,"worldMaterial":1}},"extras":{"animFrameRate":24.0,"coordSystem":"Y_UP_RIGHT"},"name":"Scene","nodes":[0,11]}]}