{"accessors":[{"bufferView":0,"componentType":5123,"count":240,"max":[83],"min":[0],"type":"SCALAR"},{"bufferView":1,"componentType":5126,"count":84,"max":[1.0,1.0,1.0000001192092896],"min":[-1.000000238418579,-1.0,-1.0000004768371582],"type":"VEC3"},{"bufferView":2,"componentType":5126,"count":84,"max":[1.0,1.0,1.0],"min":[-1.0,-1.0,-1.0],"type":"VEC3"},{"bufferView":3,"componentType":5126,"count":84,"max":[0.65625,1.000000074505806],"min":[0.3437499701976776,0.0],"type":"VEC2"},{"bufferView":4,"componentType":5123,"count":2484,"max":[871],"min":[0],"type":"SCALAR"},{"bufferView":5,"componentType":5126,"count":872,"max":[0.9681809544563293,12.052899360656738,3.2042417526245117],"min":[-1.1594520807266235,-1.7244248390197754,-3.126695156097412],"type":"VEC3"},{"bufferView":6,"componentType":5126,"count":872,"max":[1.0,0.9792750477790833,0.9936042428016663],"min":[-1.0,-0.9994680285453796,-0.999967098236084],"type":"VEC3"},{"bufferView":7,"componentType":5126,"count":872,"max":[1.0,1.0],"min":[0.0,0.0],"type":"VEC2"},{"bufferView":8,"componentType":5123,"count":3552,"max":[1577],"min":[0],"type":"SCALAR"},{"bufferView":9,"componentType":5126,"count":1578,"max":[0.4851522445678711,-0.08364944159984589,7.392888069152832],"min":[-4.285022735595703,-0.2823600769042969,-6.312741279602051],"type":"VEC3"},{"bufferView":10,"componentType":5126,"count":1578,"max":[1.0,1.0,0.995872974395752],"min":[-0.9350128769874573,-1.0,-0.9958733320236206],"type":"VEC3"},{"bufferView":11,"componentType":5126,"count":1578,"max":[1.0,1.0],"min":[0.0,0.0],"type":"VEC2"},{"bufferView":12,"componentType":5123,"count":3564,"max":[608],"min":[0],"type":"SCALAR"},{"bufferView":13,"componentType":5126,"count":609,"max":[1.014527678489685,2.5029916763305664,21.908634185791016],"min":[-0.9568500518798828,0.9999990463256836,-3.9184837341308594],"type":"VEC3"},{"bufferView":14,"componentType":5126,"count":609,"max":[0.9999670386314392,0.9999533891677856,0.8886083960533142],"min":[-0.9922432899475098,-0.9999663829803467,-0.980505108833313],"type":"VEC3"},{"bufferView":15,"componentType":5126,"count":609,"max":[0.65625,0.31136077642440796],"min":[0.3482903242111206,0.001139223575592041],"type":"VEC2"}],"asset":{"copyright":null,"generator":"Soft8Soft Verge3D for Maya plug-in","version":"2.0"},"bufferViews":[{"buffer":0,"byteLength":480,"byteOffset":0,"target":34963},{"buffer":0,"byteLength":1008,"byteOffset":480,"target":34962},{"buffer":0,"byteLength":1008,"byteOffset":1488,"target":34962},{"buffer":0,"byteLength":672,"byteOffset":2496,"target":34962},{"buffer":0,"byteLength":4968,"byteOffset":3168,"target":34963},{"buffer":0,"byteLength":10464,"byteOffset":8136,"target":34962},{"buffer":0,"byteLength":10464,"byteOffset":18600,"target":34962},{"buffer":0,"byteLength":6976,"byteOffset":29064,"target":34962},{"buffer":0,"byteLength":7104,"byteOffset":36040,"target":34963},{"buffer":0,"byteLength":18936,"byteOffset":43144,"target":34962},{"buffer":0,"byteLength":18936,"byteOffset":62080,"target":34962},{"buffer":0,"byteLength":12624,"byteOffset":81016,"target":34962},{"buffer":0,"byteLength":7128,"byteOffset":93640,"target":34963},{"buffer":0,"byteLength":7308,"byteOffset":100768,"target":34962},{"buffer":0,"byteLength":7308,"byteOffset":108076,"target":34962},{"buffer":0,"byteLength":4872,"byteOffset":115384,"target":34962}],"buffers":[{"byteLength":120256,"uri":"dress-v1.bin"}],"cameras":[{"extensions":{"S8S_v3d_camera":{"controls":"ORBIT","enablePan":true,"moveSpeed":1.0,"orbitMaxDistance":1000.0,"orbitMaxPolarAngle":3.141592653589793,"orbitMaxZoom":100.0,"orbitMinDistance":0.0,"orbitMinPolarAngle":0.0,"orbitMinZoom":0.009999999776482582,"orbitTarget":[0.19196326198648705,30.511365137867294,-5.3450878820533845],"rotateSpeed":1.0,"viewportFitInitialAspect":1.5,"viewportFitType":"HORIZONTAL"}},"name":"perspShape","perspective":{"aspectRatio":1.5,"yfov":0.6605947096585076,"zfar":10000.0,"znear":0.1},"type":"perspective"}],"extensions":{"S8S_v3d_lights":{"lights":[{"color":[1,1,1],"intensity":2.5,"name":"__DEFAULT__","profile":"maya","type":"directional"}]}},"extensionsUsed":["S8S_v3d_materials","S8S_v3d_lights","S8S_v3d_camera","S8S_v3d_mesh","S8S_v3d_node","S8S_v3d_scene"],"materials":[{"extensions":{"S8S_v3d_materials":{"gtaoVisible":true,"nodeGraph":{"edges":[{"fromNode":1,"fromOutput":0,"toInput":0,"toNode":0}],"nodes":[{"inputs":[[0.0,0.0,0.0,1],[0,0,0,0],[0,0,0]],"is_active_output":true,"name":"blinn2SG","outputs":[],"type":"SHADING_ENGINE_MY"},{"inputs":[[0.9606999754905701,0.4900999963283539,0.5098000168800354],[0.0,0.0,0.0],[0.0,0.0,0.0],1.0,0.800000011920929,[1.0,1.0,1.0],0.5,[0.0,0.0,0.0],0.30000001192092896,[0.5,0.5,0.5],0.699999988079071,0.0,[0.0,0.0,0.0]],"name":"pink_blinn","outputs":[[0.0,0.0,0.0,0]],"type":"BLINN_MY"}]},"profile":"maya"}},"name":"pink_blinn"},{"extensions":{"S8S_v3d_materials":{"gtaoVisible":true,"nodeGraph":{"edges":[{"fromNode":1,"fromOutput":0,"toInput":0,"toNode":0}],"nodes":[{"inputs":[[0.0,0.0,0.0,1],[0,0,0,0],[0,0,0]],"is_active_output":true,"name":"lambert7SG","outputs":[],"type":"SHADING_ENGINE_MY"},{"inputs":[[0.3921000063419342,0.8626999855041504,0.7843000292778015],[0.0,0.0,0.0],[0.0,0.0,0.0],1.0,0.800000011920929,[1.0,1.0,1.0],0.5,[0.0,0.0,0.0],0.30000001192092896,[0.3921000063419342,0.8626999855041504,0.7843000292778015],0.699999988079071,0.0,[0.0,0.0,0.0]],"name":"blue_blinn","outputs":[[0.0,0.0,0.0,0]],"type":"BLINN_MY"}]},"profile":"maya"}},"name":"blue_blinn"},{"extensions":{"S8S_v3d_materials":{"gtaoVisible":true,"nodeGraph":{"edges":[{"fromNode":1,"fromOutput":0,"toInput":0,"toNode":0}],"nodes":[{"inputs":[[0.0,0.0,0.0,1],[0,0,0,0],[0,0,0]],"is_active_output":true,"name":"phong1SG","outputs":[],"type":"SHADING_ENGINE_MY"},{"inputs":[[0.9803000092506409,0.7450000047683716,0.31369999051094055],[0.0,0.0,0.0],[0.0,0.0,0.0],1.0,0.800000011920929,[1.0,1.0,1.0],0.5,[0.0,0.0,0.0],20.0,[0.5,0.5,0.5],0.0,[0.0,0.0,0.0]],"name":"yellow_pong","outputs":[[0.0,0.0,0.0,0]],"type":"PHONG_MY"}]},"profile":"maya"}},"name":"yellow_pong"},{"extensions":{"S8S_v3d_materials":{"gtaoVisible":true,"nodeGraph":{"edges":[{"fromNode":1,"fromOutput":0,"toInput":0,"toNode":0}],"nodes":[{"inputs":[[0.0,0.0,0.0,1],[0,0,0,0],[0,0,0]],"is_active_output":true,"name":"standardSurface4SG","outputs":[],"type":"SHADING_ENGINE_MY"},{"inputs":[1.0,[1.0,1.0,1.0],0.0,0.7440000176429749,1.0,[1.0,1.0,1.0],0.4000000059604645,0.0,[1.0,1.0,1.0],0.0,[0.0,0.0,0.0],0.0,0.0,[1.0,1.0,1.0],[1.0,1.0,1.0],0.0,[1.0,1.0,1.0],0.10000000149011612,0.0,[1.0,1.0,1.0],0.30000001192092896,0.0,[1.0,1.0,1.0],[1.0,1.0,1.0],[1.0,1.0,1.0],[0.0,0.0,0.0],1.5],"name":"metal_2","outputs":[[0.0,0.0,0.0,0],[0.0,0.0,0.0]],"thinWalled":false,"type":"STANDARD_SURFACE_AR"}]},"profile":"maya"}},"name":"metal_2"},{"extensions":{"S8S_v3d_materials":{"nodeGraph":{"edges":[{"fromNode":0,"fromOutput":0,"toInput":0,"toNode":1}],"nodes":[{"inputs":[[0.10653923276464054,0.10653923276464054,0.10653923276464054],[0,0,0],[0,0,0],[0,0,0],[0,0,0],[0,0,0]],"name":"aiRaySwitchColor","outputs":[[0,0,0],0],"type":"RAY_SWITCH_AR"},{"inputs":[[0,0,0],1],"is_active_output":true,"name":"aiSkyDomeLightShapeColor","outputs":[],"type":"SKYDOME_LIGHT_AR"}]},"profile":"maya"}},"name":"Verge3D_Environment"}],"meshes":[{"extensions":{"S8S_v3d_mesh":{}},"name":"dress:ganchoShape","primitives":[{"attributes":{"NORMAL":2,"POSITION":1,"TEXCOORD_0":3},"indices":0,"material":0,"mode":4}]},{"extensions":{"S8S_v3d_mesh":{}},"name":"dress:dressShape","primitives":[{"attributes":{"NORMAL":6,"POSITION":5,"TEXCOORD_0":7},"indices":4,"material":1,"mode":4}]},{"extensions":{"S8S_v3d_mesh":{}},"name":"dress:pPlaneShape1","primitives":[{"attributes":{"NORMAL":10,"POSITION":9,"TEXCOORD_0":11},"indices":8,"material":2,"mode":4}]},{"extensions":{"S8S_v3d_mesh":{}},"name":"dress:pCylinderShape26","primitives":[{"attributes":{"NORMAL":14,"POSITION":13,"TEXCOORD_0":15},"indices":12,"material":3,"mode":4}]}],"nodes":[{"extensions":{"S8S_v3d_node":{"hidden":false,"hidpiCompositing":false}},"name":"transform1","rotation":[0.0,0.0,0.0,1.0],"scale":[1.0,1.0,1.0],"translation":[0.0,0.0,0.0]},{"extensions":{"S8S_v3d_node":{"hidden":false,"hidpiCompositing":false}},"name":"transform2","rotation":[0.0,0.0,0.0,1.0],"scale":[1.0,1.0,1.0],"translation":[0.0,0.0,0.0]},{"extensions":{"S8S_v3d_node":{"hidden":false,"hidpiCompositing":false}},"name":"transform3","rotation":[0.0,0.0,0.0,1.0],"scale":[1.0,1.0,1.0],"translation":[0.0,0.0,0.0]},{"extensions":{"S8S_v3d_node":{"hidden":false,"hidpiCompositing":false}},"name":"transform4","rotation":[0.0,0.0,0.0,1.0],"scale":[1.0,1.0,1.0],"translation":[0.0,0.0,0.0]},{"extensions":{"S8S_v3d_node":{"hidden":false,"hidpiCompositing":false}},"name":"transform5","rotation":[0.0,0.0,0.0,1.0],"scale":[1.0,1.0,1.0],"translation":[0.0,0.0,0.0]},{"extensions":{"S8S_v3d_node":{"hidden":false,"hidpiCompositing":false}},"name":"level_1_furniture_v0:transform1","rotation":[0.0,0.0,0.0,1.0],"scale":[1.0,1.0,1.0],"translation":[0.0,0.0,0.0]},{"extensions":{"S8S_v3d_node":{"hidden":false,"hidpiCompositing":false}},"name":"level_1_furniture_v0:transform2","rotation":[0.0,0.0,0.0,1.0],"scale":[1.0,1.0,1.0],"translation":[0.0,0.0,0.0]},{"extensions":{"S8S_v3d_node":{"hidden":false,"hidpiCompositing":false}},"name":"level_1_furniture_v0:transform3","rotation":[0.0,0.0,0.0,1.0],"scale":[1.0,1.0,1.0],"translation":[0.0,0.0,0.0]},{"extensions":{"S8S_v3d_node":{"hidden":false,"hidpiCompositing":false}},"name":"level_1_furniture_v0:transform4","rotation":[0.0,0.0,0.0,1.0],"scale":[1.0,1.0,1.0],"translation":[0.0,0.0,0.0]},{"extensions":{"S8S_v3d_node":{"hidden":false,"hidpiCompositing":false}},"name":"level_1_furniture_v0:transform5","rotation":[0.0,0.0,0.0,1.0],"scale":[1.0,1.0,1.0],"translation":[0.0,0.0,0.0]},{"extensions":{"S8S_v3d_node":{"hidden":false,"hidpiCompositing":false}},"name":"level_1_furniture_v5:transform1","rotation":[0.0,0.0,0.0,1.0],"scale":[1.0,1.0,1.0],"translation":[0.0,0.0,0.0]},{"extensions":{"S8S_v3d_node":{"hidden":false,"hidpiCompositing":false}},"name":"level_1_furniture_v5:transform3","rotation":[0.0,0.0,0.0,1.0],"scale":[1.0,1.0,1.0],"translation":[0.0,0.0,0.0]},{"extensions":{"S8S_v3d_node":{"hidden":false,"hidpiCompositing":false}},"name":"level_1_furniture_v5:transform4","rotation":[0.0,0.0,0.0,1.0],"scale":[1.0,1.0,1.0],"translation":[0.0,0.0,0.0]},{"extensions":{"S8S_v3d_node":{"hidden":false,"hidpiCompositing":false}},"name":"level_1_furniture_v5:transform5","rotation":[0.0,0.0,0.0,1.0],"scale":[1.0,1.0,1.0],"translation":[0.0,0.0,0.0]},{"children":[15,16,17],"extensions":{"S8S_v3d_node":{"hidden":false,"hidpiCompositing":false}},"name":"dress:dress_hanging","rotation":[0.0,1.0,0.0,6.123233995736766e-17],"scale":[0.3389881658216637,0.3389881658216637,0.3389881658216637],"translation":[-5.20261859986115,16.33204664223393,-2.4701787021404544]},{"extensions":{"S8S_v3d_node":{"frustumCulling":true,"groupNames":["dress:dress_hanging"],"hidden":false,"hidpiCompositing":false,"renderOrder":0,"useCastShadows":true,"useShadows":true}},"mesh":0,"name":"dress:gancho","rotation":[0.0,0.0,0.7071067811865475,0.7071067811865477],"scale":[0.16680245041331604,2.7291796308242713,0.16680245041331604],"translation":[-1.0666668875819223,14.65903974018809,-0.06578301319350843]},{"extensions":{"S8S_v3d_node":{"frustumCulling":true,"groupNames":["dress:dress_hanging"],"hidden":false,"hidpiCompositing":false,"renderOrder":0,"useCastShadows":true,"useShadows":true}},"mesh":1,"name":"dress:dress","rotation":[0.0,0.0,0.0,1.0],"scale":[1.0,1.0,1.0],"translation":[0.0,0.0,0.0]},{"children":[18,19],"extensions":{"S8S_v3d_node":{"groupNames":["dress:dress_hanging"],"hidden":false,"hidpiCompositing":false}},"name":"dress:hanger","rotation":[0.0,0.0,0.0,1.0],"scale":[1.0,1.0,1.0],"translation":[0.0,0.0,0.0]},{"extensions":{"S8S_v3d_node":{"frustumCulling":true,"groupNames":["dress:hanger","dress:dress_hanging"],"hidden":false,"hidpiCompositing":false,"renderOrder":0,"useCastShadows":true,"useShadows":true}},"mesh":2,"name":"dress:pPlane1","rotation":[0.0,0.0,0.7071067811865475,0.7071067811865477],"scale":[0.5000000000000001,0.5000000000000001,0.5],"translation":[-0.14118002523948536,13.645960840370938,-0.24120167977476648]},{"extensions":{"S8S_v3d_node":{"frustumCulling":true,"groupNames":["dress:hanger","dress:dress_hanging"],"hidden":false,"hidpiCompositing":false,"renderOrder":0,"useCastShadows":true,"useShadows":true}},"mesh":3,"name":"dress:pCylinder26","rotation":[0.5360293716139133,0.0,0.0,0.844199332365996],"scale":[0.040276326043673975,0.5,0.040276326043673975],"translation":[-0.05106159011033805,14.368667462834125,-0.9474041438277421]},{"camera":0,"children":[21],"extensions":{"S8S_v3d_node":{"hidden":true,"hidpiCompositing":false}},"name":"persp","rotation":[0.34429605111833667,-0.5929859383474645,0.31000555686007936,0.6585776042520493],"scale":[1.0,1.0,0.9999999999999999],"translation":[-20.733816018193654,0.23726990352426872,-3.1456998532920686]},{"extensions":{"S8S_v3d_lights":{"light":0}},"name":"__DEFAULT_LIGHT__","rotation":[-0.13052619222005157,-0.0,-0.0,0.9914448613738104],"translation":[-20.733816018193654,0.23726990352426872,-3.1456998532920686]}],"scene":0,"scenes":[{"extensions":{"S8S_v3d_scene":{"aaMethod":"AUTO","iblEnvironmentMode":"PMREM","physicallyCorrectLights":true,"shadowMap":{"esmDistanceScale":2.5,"renderReverseSided":false,"renderSingleSided":true,"type":"PCFPOISSON"},"unitsScaleFactor":1.0,"useHDR":false,"worldMaterial":4}},"extras":{"animFrameRate":24.0,"coordSystem":"Y_UP_RIGHT"},"name":"Scene","nodes":[0,1,2,3,4,5,6,7,8,9,10,11,12,13,14,20]}]}