{"accessors":[{"bufferView":0,"componentType":5123,"count":12672,"max":[9693],"min":[0],"type":"SCALAR"},{"bufferView":1,"componentType":5126,"count":9694,"max":[90.9636459350586,17.27621841430664,242.93284606933594],"min":[-69.21281433105469,-102.72378540039062,82.75638580322266],"type":"VEC3"},{"bufferView":2,"componentType":5126,"count":9694,"max":[0.9961948394775391,1.0,0.9961952567100525],"min":[-0.9961947798728943,-1.0,-0.9961952567100525],"type":"VEC3"},{"bufferView":3,"componentType":5126,"count":9694,"max":[1.0,1.0],"min":[0.0,0.0],"type":"VEC2"},{"bufferView":4,"componentType":5123,"count":5616,"max":[3998],"min":[0],"type":"SCALAR"},{"bufferView":5,"componentType":5126,"count":3999,"max":[76.91915130615234,17.27621841430664,60.000003814697266],"min":[-43.08086013793945,-102.72378540039062,-60.00000762939453],"type":"VEC3"},{"bufferView":6,"componentType":5126,"count":3999,"max":[1.0,1.0,1.0],"min":[-1.0,-1.0,-1.0],"type":"VEC3"},{"bufferView":7,"componentType":5126,"count":3999,"max":[1.0,1.0],"min":[0.0,0.0],"type":"VEC2"},{"bufferView":8,"componentType":5123,"count":336,"max":[258],"min":[0],"type":"SCALAR"},{"bufferView":9,"componentType":5126,"count":259,"max":[76.91914367675781,-30.596221923828125,12.082534790039062],"min":[72.32022094726562,-54.596221923828125,-11.917465209960938],"type":"VEC3"},{"bufferView":10,"componentType":5126,"count":259,"max":[1.0,0.9961948394775391,0.9961947798728943],"min":[-1.9827449193599023e-07,-0.9961949586868286,-0.9961947202682495],"type":"VEC3"},{"bufferView":11,"componentType":5126,"count":259,"max":[1.0,1.0],"min":[0.0,0.0],"type":"VEC2"},{"bufferView":12,"componentType":5123,"count":672,"max":[473],"min":[0],"type":"SCALAR"},{"bufferView":13,"componentType":5126,"count":474,"max":[-38.701080322265625,-30.59621810913086,36.64636993408203],"min":[-43.08085632324219,-54.59621810913086,-36.59648132324219],"type":"VEC3"},{"bufferView":14,"componentType":5126,"count":474,"max":[8.327821205966757e-07,0.9961948394775391,0.9961947798728943],"min":[-1.0,-0.9962182641029358,-0.9961948990821838],"type":"VEC3"},{"bufferView":15,"componentType":5126,"count":474,"max":[1.0,1.0],"min":[0.0,0.0],"type":"VEC2"},{"bufferView":16,"componentType":5123,"count":1344,"max":[1028],"min":[0],"type":"SCALAR"},{"bufferView":17,"componentType":5126,"count":1029,"max":[53.51022720336914,17.27621841430664,36.664268493652344],"min":[-19.59996223449707,12.974631309509277,-36.68112564086914],"type":"VEC3"},{"bufferView":18,"componentType":5126,"count":1029,"max":[0.9961948394775391,1.0,0.9961966872215271],"min":[-0.996200442314148,-7.651372015970992e-07,-0.9961988925933838],"type":"VEC3"},{"bufferView":19,"componentType":5126,"count":1029,"max":[1.0,1.0],"min":[0.0,0.0],"type":"VEC2"},{"bufferView":20,"componentType":5123,"count":1008,"max":[761],"min":[0],"type":"SCALAR"},{"bufferView":21,"componentType":5126,"count":762,"max":[53.51020812988281,-98.49671173095703,36.664268493652344],"min":[-19.599973678588867,-102.72378540039062,-36.68112564086914],"type":"VEC3"},{"bufferView":22,"componentType":5126,"count":762,"max":[0.9961950778961182,3.166299848089693e-06,0.9962087869644165],"min":[-0.9961949586868286,-1.0,-0.9962100982666016],"type":"VEC3"},{"bufferView":23,"componentType":5126,"count":762,"max":[1.0,1.0],"min":[0.0,0.0],"type":"VEC2"},{"bufferView":24,"componentType":5123,"count":1680,"max":[1294],"min":[0],"type":"SCALAR"},{"bufferView":25,"componentType":5126,"count":1295,"max":[53.46390151977539,-6.027838230133057,60.0],"min":[-19.64628791809082,-79.37322998046875,55.79306411743164],"type":"VEC3"},{"bufferView":26,"componentType":5126,"count":1295,"max":[0.9962056279182434,0.9962171912193298,1.0],"min":[-0.9961948990821838,-0.9961956739425659,-0.000223792259930633],"type":"VEC3"},{"bufferView":27,"componentType":5126,"count":1295,"max":[1.0,1.0],"min":[0.0,0.0],"type":"VEC2"},{"bufferView":28,"componentType":5123,"count":2016,"max":[1279],"min":[0],"type":"SCALAR"},{"bufferView":29,"componentType":5126,"count":1280,"max":[53.54359817504883,-6.027838230133057,-55.73850631713867],"min":[-19.67815399169922,-79.37322998046875,-60.000003814697266],"type":"VEC3"},{"bufferView":30,"componentType":5126,"count":1280,"max":[0.9961962103843689,0.9962048530578613,5.136011532158591e-05],"min":[-0.9961962103843689,-0.9962059855461121,-1.0],"type":"VEC3"},{"bufferView":31,"componentType":5126,"count":1280,"max":[1.0,1.0],"min":[0.0,0.0],"type":"VEC2"}],"asset":{"copyright":null,"generator":"Soft8Soft Verge3D for Maya plug-in","version":"2.0"},"bufferViews":[{"buffer":0,"byteLength":25344,"byteOffset":0,"target":34963},{"buffer":0,"byteLength":116328,"byteOffset":25344,"target":34962},{"buffer":0,"byteLength":116328,"byteOffset":141672,"target":34962},{"buffer":0,"byteLength":77552,"byteOffset":258000,"target":34962},{"buffer":0,"byteLength":11232,"byteOffset":335552,"target":34963},{"buffer":0,"byteLength":47988,"byteOffset":346784,"target":34962},{"buffer":0,"byteLength":47988,"byteOffset":394772,"target":34962},{"buffer":0,"byteLength":31992,"byteOffset":442760,"target":34962},{"buffer":0,"byteLength":672,"byteOffset":474752,"target":34963},{"buffer":0,"byteLength":3108,"byteOffset":475424,"target":34962},{"buffer":0,"byteLength":3108,"byteOffset":478532,"target":34962},{"buffer":0,"byteLength":2072,"byteOffset":481640,"target":34962},{"buffer":0,"byteLength":1344,"byteOffset":483712,"target":34963},{"buffer":0,"byteLength":5688,"byteOffset":485056,"target":34962},{"buffer":0,"byteLength":5688,"byteOffset":490744,"target":34962},{"buffer":0,"byteLength":3792,"byteOffset":496432,"target":34962},{"buffer":0,"byteLength":2688,"byteOffset":500224,"target":34963},{"buffer":0,"byteLength":12348,"byteOffset":502912,"target":34962},{"buffer":0,"byteLength":12348,"byteOffset":515260,"target":34962},{"buffer":0,"byteLength":8232,"byteOffset":527608,"target":34962},{"buffer":0,"byteLength":2016,"byteOffset":535840,"target":34963},{"buffer":0,"byteLength":9144,"byteOffset":537856,"target":34962},{"buffer":0,"byteLength":9144,"byteOffset":547000,"target":34962},{"buffer":0,"byteLength":6096,"byteOffset":556144,"target":34962},{"buffer":0,"byteLength":3360,"byteOffset":562240,"target":34963},{"buffer":0,"byteLength":15540,"byteOffset":565600,"target":34962},{"buffer":0,"byteLength":15540,"byteOffset":581140,"target":34962},{"buffer":0,"byteLength":10360,"byteOffset":596680,"target":34962},{"buffer":0,"byteLength":4032,"byteOffset":607040,"target":34963},{"buffer":0,"byteLength":15360,"byteOffset":611072,"target":34962},{"buffer":0,"byteLength":15360,"byteOffset":626432,"target":34962},{"buffer":0,"byteLength":10240,"byteOffset":641792,"target":34962}],"buffers":[{"byteLength":652032,"uri":"dice.bin"}],"cameras":[{"extensions":{"S8S_v3d_camera":{"controls":"ORBIT","enablePan":true,"moveSpeed":1.0,"orbitMaxDistance":1000.0,"orbitMaxPolarAngle":3.141592653589793,"orbitMaxZoom":100.0,"orbitMinDistance":0.0,"orbitMinPolarAngle":0.0,"orbitMinZoom":0.009999999776482582,"orbitTarget":[2.712772576716958,24.9444576374853,-21.42111580483092],"rotateSpeed":1.0,"viewportFitInitialAspect":1.5,"viewportFitType":"HORIZONTAL"}},"name":"perspShape","perspective":{"aspectRatio":1.5,"yfov":0.6605947096585075,"zfar":10000.0,"znear":0.1},"type":"perspective"}],"extensions":{"S8S_v3d_lights":{"lights":[{"color":[1,1,1],"intensity":2.5,"name":"__DEFAULT__","profile":"maya","type":"directional"}]}},"extensionsUsed":["S8S_v3d_materials","S8S_v3d_lights","S8S_v3d_camera","S8S_v3d_mesh","S8S_v3d_node","S8S_v3d_scene"],"materials":[{"extensions":{"S8S_v3d_materials":{"gtaoVisible":true,"nodeGraph":{"edges":[{"fromNode":1,"fromOutput":0,"toInput":0,"toNode":0}],"nodes":[{"inputs":[[0.0,0.0,0.0,1],[0,0,0,0],[0,0,0]],"is_active_output":true,"name":"phongE1SG","outputs":[],"type":"SHADING_ENGINE_MY"},{"inputs":[[0.33329999446868896,0.11760000139474869,0.7450000047683716],[0.0,0.0,0.0],[0.0,0.0,0.0],1.0,0.800000011920929,[1.0,1.0,1.0],0.5,[0.0,0.0,0.0],0.5,0.5,[0.5,0.5,0.5],0.0,[0.0,0.0,0.0]],"name":"purple_phongE","outputs":[[0.0,0.0,0.0,0]],"type":"PHONG_E_MY"}]},"profile":"maya"}},"name":"purple_phongE"},{"extensions":{"S8S_v3d_materials":{"nodeGraph":{"edges":[{"fromNode":0,"fromOutput":0,"toInput":0,"toNode":1}],"nodes":[{"inputs":[[0.10653923276464054,0.10653923276464054,0.10653923276464054],[0,0,0],[0,0,0],[0,0,0],[0,0,0],[0,0,0]],"name":"aiRaySwitchColor","outputs":[[0,0,0],0],"type":"RAY_SWITCH_AR"},{"inputs":[[0,0,0],1],"is_active_output":true,"name":"aiSkyDomeLightShapeColor","outputs":[],"type":"SKYDOME_LIGHT_AR"}]},"profile":"maya"}},"name":"Verge3D_Environment"}],"meshes":[{"extensions":{"S8S_v3d_mesh":{}},"name":"level4_allobjects:Dice:Boole_2Shape","primitives":[{"attributes":{"NORMAL":2,"POSITION":1,"TEXCOORD_0":3},"indices":0,"material":0,"mode":4}]},{"extensions":{"S8S_v3d_mesh":{}},"name":"level4_allobjects:Dice:Boole_1BooleBoole_11Boole1Boole_12Boole2CubeShape","primitives":[{"attributes":{"NORMAL":6,"POSITION":5,"TEXCOORD_0":7},"indices":4,"material":0,"mode":4}]},{"extensions":{"S8S_v3d_mesh":{}},"name":"level4_allobjects:Dice:Boole_1BooleBoole_11Boole1Boole_12Boole2CylinderShape","primitives":[{"attributes":{"NORMAL":10,"POSITION":9,"TEXCOORD_0":11},"indices":8,"material":0,"mode":4}]},{"extensions":{"S8S_v3d_mesh":{}},"name":"level4_allobjects:Dice:Boole_1BooleBoole_11Boole1Boole_12Cylinder_2Shape","primitives":[{"attributes":{"NORMAL":14,"POSITION":13,"TEXCOORD_0":15},"indices":12,"material":0,"mode":4}]},{"extensions":{"S8S_v3d_mesh":{}},"name":"level4_allobjects:Dice:Boole_1BooleBoole_11Boole1Cylinder_1Shape","primitives":[{"attributes":{"NORMAL":18,"POSITION":17,"TEXCOORD_0":19},"indices":16,"material":0,"mode":4}]},{"extensions":{"S8S_v3d_mesh":{}},"name":"level4_allobjects:Dice:Boole_1BooleBoole_11Cylinder_11Shape","primitives":[{"attributes":{"NORMAL":22,"POSITION":21,"TEXCOORD_0":23},"indices":20,"material":0,"mode":4}]},{"extensions":{"S8S_v3d_mesh":{}},"name":"level4_allobjects:Dice:Boole_1BooleCylinder1Shape","primitives":[{"attributes":{"NORMAL":26,"POSITION":25,"TEXCOORD_0":27},"indices":24,"material":0,"mode":4}]},{"extensions":{"S8S_v3d_mesh":{}},"name":"level4_allobjects:Dice:Boole_1Cylinder_12Shape","primitives":[{"attributes":{"NORMAL":30,"POSITION":29,"TEXCOORD_0":31},"indices":28,"material":0,"mode":4}]}],"nodes":[{"children":[1,2,3,4,5,6,7,8],"extensions":{"S8S_v3d_node":{"hidden":false,"hidpiCompositing":false}},"name":"level4_allobjects:dice","rotation":[-0.7071067811865475,0.0,0.0,0.7071067811865477],"scale":[0.016230424828091092,0.016230424828091092,0.016230424828091092],"translation":[1.1058452361020563,52.54381672656149,-27.595453324863566]},{"extensions":{"S8S_v3d_node":{"frustumCulling":true,"groupNames":["level4_allobjects:dice"],"hidden":false,"hidpiCompositing":false,"renderOrder":0,"useCastShadows":true,"useShadows":true}},"mesh":0,"name":"level4_allobjects:Dice:Boole_2","rotation":[0.0,0.0,0.0,1.0],"scale":[1.0,1.0,1.0],"translation":[0.0,0.0,0.0]},{"extensions":{"S8S_v3d_node":{"frustumCulling":true,"groupNames":["level4_allobjects:dice"],"hidden":false,"hidpiCompositing":false,"renderOrder":0,"useCastShadows":true,"useShadows":true}},"mesh":1,"name":"level4_allobjects:Dice:Boole_1BooleBoole_11Boole1Boole_12Boole2Cube","rotation":[0.0,0.0,0.0,1.0],"scale":[1.0,1.0,1.0],"translation":[0.0,0.0,0.0]},{"extensions":{"S8S_v3d_node":{"frustumCulling":true,"groupNames":["level4_allobjects:dice"],"hidden":false,"hidpiCompositing":false,"renderOrder":0,"useCastShadows":true,"useShadows":true}},"mesh":2,"name":"level4_allobjects:Dice:Boole_1BooleBoole_11Boole1Boole_12Boole2Cylinder","rotation":[0.0,0.0,0.0,1.0],"scale":[1.0,1.0,1.0],"translation":[0.0,0.0,0.0]},{"extensions":{"S8S_v3d_node":{"frustumCulling":true,"groupNames":["level4_allobjects:dice"],"hidden":false,"hidpiCompositing":false,"renderOrder":0,"useCastShadows":true,"useShadows":true}},"mesh":3,"name":"level4_allobjects:Dice:Boole_1BooleBoole_11Boole1Boole_12Cylinder_2","rotation":[0.0,0.0,0.0,1.0],"scale":[1.0,1.0,1.0],"translation":[0.0,0.0,0.0]},{"extensions":{"S8S_v3d_node":{"frustumCulling":true,"groupNames":["level4_allobjects:dice"],"hidden":false,"hidpiCompositing":false,"renderOrder":0,"useCastShadows":true,"useShadows":true}},"mesh":4,"name":"level4_allobjects:Dice:Boole_1BooleBoole_11Boole1Cylinder_1","rotation":[0.0,0.0,0.0,1.0],"scale":[1.0,1.0,1.0],"translation":[0.0,0.0,0.0]},{"extensions":{"S8S_v3d_node":{"frustumCulling":true,"groupNames":["level4_allobjects:dice"],"hidden":false,"hidpiCompositing":false,"renderOrder":0,"useCastShadows":true,"useShadows":true}},"mesh":5,"name":"level4_allobjects:Dice:Boole_1BooleBoole_11Cylinder_11","rotation":[0.0,0.0,0.0,1.0],"scale":[1.0,1.0,1.0],"translation":[0.0,0.0,0.0]},{"extensions":{"S8S_v3d_node":{"frustumCulling":true,"groupNames":["level4_allobjects:dice"],"hidden":false,"hidpiCompositing":false,"renderOrder":0,"useCastShadows":true,"useShadows":true}},"mesh":6,"name":"level4_allobjects:Dice:Boole_1BooleCylinder1","rotation":[0.0,0.0,0.0,1.0],"scale":[1.0,1.0,1.0],"translation":[0.0,0.0,0.0]},{"extensions":{"S8S_v3d_node":{"frustumCulling":true,"groupNames":["level4_allobjects:dice"],"hidden":false,"hidpiCompositing":false,"renderOrder":0,"useCastShadows":true,"useShadows":true}},"mesh":7,"name":"level4_allobjects:Dice:Boole_1Cylinder_12","rotation":[0.0,0.0,0.0,1.0],"scale":[1.0,1.0,1.0],"translation":[0.0,0.0,0.0]},{"camera":0,"children":[10],"extensions":{"S8S_v3d_node":{"hidden":true,"hidpiCompositing":false}},"name":"persp","rotation":[-0.2230243961057575,0.37136585056309357,0.09237972960707397,0.8965564730316413],"scale":[1.0,1.0,1.0],"translation":[251.270926431914,211.36307302888335,227.13703805036636]},{"extensions":{"S8S_v3d_lights":{"light":0}},"name":"__DEFAULT_LIGHT__","rotation":[-0.13052619222005157,-0.0,-0.0,0.9914448613738104],"translation":[251.270926431914,211.36307302888335,227.13703805036636]}],"scene":0,"scenes":[{"extensions":{"S8S_v3d_scene":{"aaMethod":"AUTO","iblEnvironmentMode":"PMREM","physicallyCorrectLights":true,"shadowMap":{"esmDistanceScale":2.5,"renderReverseSided":false,"renderSingleSided":true,"type":"PCFPOISSON"},"unitsScaleFactor":1.0,"useHDR":false,"worldMaterial":1}},"extras":{"animFrameRate":24.0,"coordSystem":"Y_UP_RIGHT"},"name":"Scene","nodes":[0,9]}]}