{"accessors":[{"bufferView":0,"componentType":5123,"count":918,"max":[287],"min":[0],"type":"SCALAR"},{"bufferView":1,"componentType":5126,"count":288,"max":[1.0251424312591553,0.92078697681427,1.0251426696777344],"min":[-1.0251426696777344,0.3333333730697632,-1.0251431465148926],"type":"VEC3"},{"bufferView":2,"componentType":5126,"count":288,"max":[0.9378208518028259,0.9979871511459351,0.9378207325935364],"min":[-0.9378207921981812,-0.9981428980827332,-0.9378204941749573],"type":"VEC3"},{"bufferView":3,"componentType":5126,"count":288,"max":[0.6124997735023499,0.4375],"min":[0.4874998927116394,0.3291783332824707],"type":"VEC2"},{"bufferView":4,"componentType":5123,"count":11712,"max":[2007],"min":[0],"type":"SCALAR"},{"bufferView":5,"componentType":5126,"count":2008,"max":[1.0956180095672607,1.0992189645767212,1.2303035259246826],"min":[-0.7475395202636719,-0.40537065267562866,-1.2303036451339722],"type":"VEC3"},{"bufferView":6,"componentType":5126,"count":2008,"max":[0.9994727373123169,1.0,0.9959384799003601],"min":[-0.999410092830658,-1.0,-0.9959387183189392],"type":"VEC3"},{"bufferView":7,"componentType":5126,"count":2008,"max":[0.9500001668930054,0.6356783807277679],"min":[0.4500000476837158,0.0],"type":"VEC2"},{"bufferView":8,"componentType":5123,"count":2640,"max":[543],"min":[0],"type":"SCALAR"},{"bufferView":9,"componentType":5126,"count":544,"max":[1.0,0.9722657203674316,1.0],"min":[-0.9999971389770508,-0.9999995231628418,-1.0000004768371582],"type":"VEC3"},{"bufferView":10,"componentType":5126,"count":544,"max":[1.0,1.0,1.0],"min":[-1.0,-1.0,-1.0],"type":"VEC3"},{"bufferView":11,"componentType":5126,"count":544,"max":[1.0000001192092896,1.0],"min":[0.0,0.0],"type":"VEC2"},{"bufferView":12,"componentType":5123,"count":4380,"max":[791],"min":[0],"type":"SCALAR"},{"bufferView":13,"componentType":5126,"count":792,"max":[1.4711277484893799,1.7655830383300781,12.878181457519531],"min":[-1.000000238418579,0.5614814758300781,-1.0],"type":"VEC3"},{"bufferView":14,"componentType":5126,"count":792,"max":[0.9994064569473267,0.9994062185287476,0.995749831199646],"min":[-0.9653649926185608,-1.0,-0.9972703456878662],"type":"VEC3"},{"bufferView":15,"componentType":5126,"count":792,"max":[0.65625,0.3125],"min":[0.34375,0.0],"type":"VEC2"},{"bufferView":16,"componentType":5123,"count":4380,"max":[791],"min":[0],"type":"SCALAR"},{"bufferView":17,"componentType":5126,"count":792,"max":[-14.97097396850586,6.8998637199401855,20.749114990234375],"min":[-20.370079040527344,5.6350579261779785,8.26527214050293],"type":"VEC3"},{"bufferView":18,"componentType":5126,"count":792,"max":[0.9690173268318176,0.9999237060546875,0.9949347376823425],"min":[-0.9857453107833862,-0.9996930956840515,-0.9919908046722412],"type":"VEC3"},{"bufferView":19,"componentType":5126,"count":792,"max":[0.65625,0.3125],"min":[0.34375,0.0],"type":"VEC2"},{"bufferView":20,"componentType":5123,"count":2280,"max":[438],"min":[0],"type":"SCALAR"},{"bufferView":21,"componentType":5126,"count":439,"max":[1.0,1.0,1.1815062761306763],"min":[-1.002945899963379,-1.0,-1.181506633758545],"type":"VEC3"},{"bufferView":22,"componentType":5126,"count":439,"max":[0.9999935030937195,1.0,0.9982436895370483],"min":[-0.9985730051994324,-1.0,-0.9982437491416931],"type":"VEC3"},{"bufferView":23,"componentType":5126,"count":439,"max":[1.0000001192092896,1.0],"min":[0.0,0.0],"type":"VEC2"},{"bufferView":24,"componentType":5123,"count":2640,"max":[543],"min":[0],"type":"SCALAR"},{"bufferView":25,"componentType":5126,"count":544,"max":[1.0,0.9722657203674316,1.0],"min":[-0.9999971389770508,-0.9999995231628418,-1.0000004768371582],"type":"VEC3"},{"bufferView":26,"componentType":5126,"count":544,"max":[1.0,1.0,1.0],"min":[-1.0,-1.0,-1.0],"type":"VEC3"},{"bufferView":27,"componentType":5126,"count":544,"max":[1.0000001192092896,1.0],"min":[0.0,0.0],"type":"VEC2"},{"bufferView":28,"componentType":5123,"count":2880,"max":[491],"min":[0],"type":"SCALAR"},{"bufferView":29,"componentType":5126,"count":492,"max":[1.0365188121795654,0.2706642150878906,0.9857880473136902],"min":[-1.0365192890167236,-0.9982798099517822,-0.9857885241508484],"type":"VEC3"},{"bufferView":30,"componentType":5126,"count":492,"max":[0.9644041657447815,0.992862343788147,0.9717679023742676],"min":[-0.9644044041633606,-0.9438363313674927,-0.971767783164978],"type":"VEC3"},{"bufferView":31,"componentType":5126,"count":492,"max":[0.6249997615814209,0.6875],"min":[0.375,0.3125],"type":"VEC2"},{"bufferView":32,"componentType":5123,"count":1320,"max":[270],"min":[0],"type":"SCALAR"},{"bufferView":33,"componentType":5126,"count":271,"max":[1.4052870273590088,1.0000004768371582,1.405287265777588],"min":[-1.405287265777588,-1.0123263597488403,-1.405287504196167],"type":"VEC3"},{"bufferView":34,"componentType":5126,"count":271,"max":[0.9674689173698425,1.0,0.9674689769744873],"min":[-0.9674689769744873,-1.0,-0.9674689769744873],"type":"VEC3"},{"bufferView":35,"componentType":5126,"count":271,"max":[0.65625,1.000000074505806],"min":[0.3437499701976776,0.0],"type":"VEC2"},{"bufferView":36,"componentType":5123,"count":720,"max":[165],"min":[0],"type":"SCALAR"},{"bufferView":37,"componentType":5126,"count":166,"max":[1.0,1.0,1.0000001192092896],"min":[-1.000000238418579,-1.0,-1.0000004768371582],"type":"VEC3"},{"bufferView":38,"componentType":5126,"count":166,"max":[0.9999999403953552,1.0,1.0],"min":[-1.0,-1.0,-1.0],"type":"VEC3"},{"bufferView":39,"componentType":5126,"count":166,"max":[0.65625,1.000000074505806],"min":[0.3437499701976776,0.0],"type":"VEC2"}],"asset":{"copyright":null,"generator":"Soft8Soft Verge3D for Maya plug-in","version":"2.0"},"bufferViews":[{"buffer":0,"byteLength":1836,"byteOffset":0,"target":34963},{"buffer":0,"byteLength":3456,"byteOffset":1836,"target":34962},{"buffer":0,"byteLength":3456,"byteOffset":5292,"target":34962},{"buffer":0,"byteLength":2304,"byteOffset":8748,"target":34962},{"buffer":0,"byteLength":23424,"byteOffset":11052,"target":34963},{"buffer":0,"byteLength":24096,"byteOffset":34476,"target":34962},{"buffer":0,"byteLength":24096,"byteOffset":58572,"target":34962},{"buffer":0,"byteLength":16064,"byteOffset":82668,"target":34962},{"buffer":0,"byteLength":5280,"byteOffset":98732,"target":34963},{"buffer":0,"byteLength":6528,"byteOffset":104012,"target":34962},{"buffer":0,"byteLength":6528,"byteOffset":110540,"target":34962},{"buffer":0,"byteLength":4352,"byteOffset":117068,"target":34962},{"buffer":0,"byteLength":8760,"byteOffset":121420,"target":34963},{"buffer":0,"byteLength":9504,"byteOffset":130180,"target":34962},{"buffer":0,"byteLength":9504,"byteOffset":139684,"target":34962},{"buffer":0,"byteLength":6336,"byteOffset":149188,"target":34962},{"buffer":0,"byteLength":8760,"byteOffset":155524,"target":34963},{"buffer":0,"byteLength":9504,"byteOffset":164284,"target":34962},{"buffer":0,"byteLength":9504,"byteOffset":173788,"target":34962},{"buffer":0,"byteLength":6336,"byteOffset":183292,"target":34962},{"buffer":0,"byteLength":4560,"byteOffset":189628,"target":34963},{"buffer":0,"byteLength":5268,"byteOffset":194188,"target":34962},{"buffer":0,"byteLength":5268,"byteOffset":199456,"target":34962},{"buffer":0,"byteLength":3512,"byteOffset":204724,"target":34962},{"buffer":0,"byteLength":5280,"byteOffset":208236,"target":34963},{"buffer":0,"byteLength":6528,"byteOffset":213516,"target":34962},{"buffer":0,"byteLength":6528,"byteOffset":220044,"target":34962},{"buffer":0,"byteLength":4352,"byteOffset":226572,"target":34962},{"buffer":0,"byteLength":5760,"byteOffset":230924,"target":34963},{"buffer":0,"byteLength":5904,"byteOffset":236684,"target":34962},{"buffer":0,"byteLength":5904,"byteOffset":242588,"target":34962},{"buffer":0,"byteLength":3936,"byteOffset":248492,"target":34962},{"buffer":0,"byteLength":2640,"byteOffset":252428,"target":34963},{"buffer":0,"byteLength":3252,"byteOffset":255068,"target":34962},{"buffer":0,"byteLength":3252,"byteOffset":258320,"target":34962},{"buffer":0,"byteLength":2168,"byteOffset":261572,"target":34962},{"buffer":0,"byteLength":1440,"byteOffset":263740,"target":34963},{"buffer":0,"byteLength":1992,"byteOffset":265180,"target":34962},{"buffer":0,"byteLength":1992,"byteOffset":267172,"target":34962},{"buffer":0,"byteLength":1328,"byteOffset":269164,"target":34962}],"buffers":[{"byteLength":270492,"uri":"anime-v1.bin"}],"cameras":[{"extensions":{"S8S_v3d_camera":{"controls":"ORBIT","enablePan":true,"moveSpeed":1.0,"orbitMaxDistance":1000.0,"orbitMaxPolarAngle":3.141592653589793,"orbitMaxZoom":100.0,"orbitMinDistance":0.0,"orbitMinPolarAngle":0.0,"orbitMinZoom":0.009999999776482582,"orbitTarget":[0.19196326198643554,30.511365137866452,-5.345087882054166],"rotateSpeed":1.0,"viewportFitInitialAspect":1.5,"viewportFitType":"HORIZONTAL"}},"name":"perspShape","perspective":{"aspectRatio":1.5,"yfov":0.6605947096585076,"zfar":10000.0,"znear":0.1},"type":"perspective"}],"extensions":{"S8S_v3d_lights":{"lights":[{"color":[1,1,1],"intensity":2.5,"name":"__DEFAULT__","profile":"maya","type":"directional"}]}},"extensionsUsed":["S8S_v3d_materials","S8S_v3d_lights","S8S_v3d_camera","S8S_v3d_mesh","S8S_v3d_node","S8S_v3d_scene"],"materials":[{"extensions":{"S8S_v3d_materials":{"gtaoVisible":true,"nodeGraph":{"edges":[{"fromNode":1,"fromOutput":0,"toInput":0,"toNode":0}],"nodes":[{"inputs":[[0.0,0.0,0.0,1],[0,0,0,0],[0,0,0]],"is_active_output":true,"name":"blinn2SG","outputs":[],"type":"SHADING_ENGINE_MY"},{"inputs":[[0.9606999754905701,0.4900999963283539,0.5098000168800354],[0.0,0.0,0.0],[0.0,0.0,0.0],1.0,0.800000011920929,[1.0,1.0,1.0],0.5,[0.0,0.0,0.0],0.30000001192092896,[0.5,0.5,0.5],0.699999988079071,0.0,[0.0,0.0,0.0]],"name":"pink_blinn","outputs":[[0.0,0.0,0.0,0]],"type":"BLINN_MY"}]},"profile":"maya"}},"name":"pink_blinn"},{"extensions":{"S8S_v3d_materials":{"gtaoVisible":true,"nodeGraph":{"edges":[{"fromNode":1,"fromOutput":0,"toInput":0,"toNode":0}],"nodes":[{"inputs":[[0.0,0.0,0.0,1],[0,0,0,0],[0,0,0]],"is_active_output":true,"name":"phong1SG","outputs":[],"type":"SHADING_ENGINE_MY"},{"inputs":[[0.9803000092506409,0.7450000047683716,0.31369999051094055],[0.0,0.0,0.0],[0.0,0.0,0.0],1.0,0.800000011920929,[1.0,1.0,1.0],0.5,[0.0,0.0,0.0],20.0,[0.5,0.5,0.5],0.0,[0.0,0.0,0.0]],"name":"yellow_pong","outputs":[[0.0,0.0,0.0,0]],"type":"PHONG_MY"}]},"profile":"maya"}},"name":"yellow_pong"},{"extensions":{"S8S_v3d_materials":{"gtaoVisible":true,"nodeGraph":{"edges":[{"fromNode":1,"fromOutput":0,"toInput":0,"toNode":0}],"nodes":[{"inputs":[[0.0,0.0,0.0,1],[0,0,0,0],[0,0,0]],"is_active_output":true,"name":"phong2SG","outputs":[],"type":"SHADING_ENGINE_MY"},{"inputs":[[0.3921000063419342,0.8626999855041504,0.7843000292778015],[0.0,0.0,0.0],[0.0,0.0,0.0],1.0,0.800000011920929,[1.0,1.0,1.0],0.5,[0.0,0.0,0.0],20.0,[0.3921000063419342,0.8626999855041504,0.7843000292778015],0.0,[0.0,0.0,0.0]],"name":"blue_phong","outputs":[[0.0,0.0,0.0,0]],"type":"PHONG_MY"}]},"profile":"maya"}},"name":"blue_phong"},{"extensions":{"S8S_v3d_materials":{"gtaoVisible":true,"nodeGraph":{"edges":[{"fromNode":1,"fromOutput":0,"toInput":0,"toNode":0}],"nodes":[{"inputs":[[0.0,0.0,0.0,1],[0,0,0,0],[0,0,0]],"is_active_output":true,"name":"phongE1SG","outputs":[],"type":"SHADING_ENGINE_MY"},{"inputs":[[0.33329999446868896,0.11760000139474869,0.7450000047683716],[0.0,0.0,0.0],[0.0,0.0,0.0],1.0,0.800000011920929,[1.0,1.0,1.0],0.5,[0.0,0.0,0.0],0.5,0.5,[0.5,0.5,0.5],0.0,[0.0,0.0,0.0]],"name":"purple_phongE","outputs":[[0.0,0.0,0.0,0]],"type":"PHONG_E_MY"}]},"profile":"maya"}},"name":"purple_phongE"},{"extensions":{"S8S_v3d_materials":{"nodeGraph":{"edges":[{"fromNode":0,"fromOutput":0,"toInput":0,"toNode":1}],"nodes":[{"inputs":[[0.10653923276464054,0.10653923276464054,0.10653923276464054],[0,0,0],[0,0,0],[0,0,0],[0,0,0],[0,0,0]],"name":"aiRaySwitchColor","outputs":[[0,0,0],0],"type":"RAY_SWITCH_AR"},{"inputs":[[0,0,0],1],"is_active_output":true,"name":"aiSkyDomeLightShapeColor","outputs":[],"type":"SKYDOME_LIGHT_AR"}]},"profile":"maya"}},"name":"Verge3D_Environment"}],"meshes":[{"extensions":{"S8S_v3d_mesh":{}},"name":"anime:pCylinderShape24","primitives":[{"attributes":{"NORMAL":2,"POSITION":1,"TEXCOORD_0":3},"indices":0,"material":0,"mode":4}]},{"extensions":{"S8S_v3d_mesh":{}},"name":"anime:pSphereShape10","primitives":[{"attributes":{"NORMAL":6,"POSITION":5,"TEXCOORD_0":7},"indices":4,"material":1,"mode":4}]},{"extensions":{"S8S_v3d_mesh":{}},"name":"anime:pSphereShape11","primitives":[{"attributes":{"NORMAL":10,"POSITION":9,"TEXCOORD_0":11},"indices":8,"material":1,"mode":4}]},{"extensions":{"S8S_v3d_mesh":{}},"name":"anime:pCylinderShape22","primitives":[{"attributes":{"NORMAL":14,"POSITION":13,"TEXCOORD_0":15},"indices":12,"material":1,"mode":4}]},{"extensions":{"S8S_v3d_mesh":{}},"name":"anime:pCylinderShape23","primitives":[{"attributes":{"NORMAL":18,"POSITION":17,"TEXCOORD_0":19},"indices":16,"material":1,"mode":4}]},{"extensions":{"S8S_v3d_mesh":{}},"name":"anime:pSphereShape5","primitives":[{"attributes":{"NORMAL":22,"POSITION":21,"TEXCOORD_0":23},"indices":20,"material":2,"mode":4}]},{"extensions":{"S8S_v3d_mesh":{}},"name":"anime:pSphereShape8","primitives":[{"attributes":{"NORMAL":26,"POSITION":25,"TEXCOORD_0":27},"indices":24,"material":1,"mode":4}]},{"extensions":{"S8S_v3d_mesh":{}},"name":"anime:pCylinderShape20","primitives":[{"attributes":{"NORMAL":30,"POSITION":29,"TEXCOORD_0":31},"indices":28,"material":0,"mode":4}]},{"extensions":{"S8S_v3d_mesh":{}},"name":"anime:pCylinderShape21","primitives":[{"attributes":{"NORMAL":34,"POSITION":33,"TEXCOORD_0":35},"indices":32,"material":2,"mode":4}]},{"extensions":{"S8S_v3d_mesh":{}},"name":"anime:pCylinderShape19","primitives":[{"attributes":{"NORMAL":38,"POSITION":37,"TEXCOORD_0":39},"indices":36,"material":3,"mode":4}]}],"nodes":[{"extensions":{"S8S_v3d_node":{"hidden":false,"hidpiCompositing":false}},"name":"transform1","rotation":[0.0,0.0,0.0,1.0],"scale":[1.0,1.0,1.0],"translation":[0.0,0.0,0.0]},{"extensions":{"S8S_v3d_node":{"hidden":false,"hidpiCompositing":false}},"name":"transform2","rotation":[0.0,0.0,0.0,1.0],"scale":[1.0,1.0,1.0],"translation":[0.0,0.0,0.0]},{"extensions":{"S8S_v3d_node":{"hidden":false,"hidpiCompositing":false}},"name":"transform3","rotation":[0.0,0.0,0.0,1.0],"scale":[1.0,1.0,1.0],"translation":[0.0,0.0,0.0]},{"extensions":{"S8S_v3d_node":{"hidden":false,"hidpiCompositing":false}},"name":"transform4","rotation":[0.0,0.0,0.0,1.0],"scale":[1.0,1.0,1.0],"translation":[0.0,0.0,0.0]},{"extensions":{"S8S_v3d_node":{"hidden":false,"hidpiCompositing":false}},"name":"transform5","rotation":[0.0,0.0,0.0,1.0],"scale":[1.0,1.0,1.0],"translation":[0.0,0.0,0.0]},{"extensions":{"S8S_v3d_node":{"hidden":false,"hidpiCompositing":false}},"name":"level_1_furniture_v0:transform1","rotation":[0.0,0.0,0.0,1.0],"scale":[1.0,1.0,1.0],"translation":[0.0,0.0,0.0]},{"extensions":{"S8S_v3d_node":{"hidden":false,"hidpiCompositing":false}},"name":"level_1_furniture_v0:transform2","rotation":[0.0,0.0,0.0,1.0],"scale":[1.0,1.0,1.0],"translation":[0.0,0.0,0.0]},{"extensions":{"S8S_v3d_node":{"hidden":false,"hidpiCompositing":false}},"name":"level_1_furniture_v0:transform3","rotation":[0.0,0.0,0.0,1.0],"scale":[1.0,1.0,1.0],"translation":[0.0,0.0,0.0]},{"extensions":{"S8S_v3d_node":{"hidden":false,"hidpiCompositing":false}},"name":"level_1_furniture_v0:transform4","rotation":[0.0,0.0,0.0,1.0],"scale":[1.0,1.0,1.0],"translation":[0.0,0.0,0.0]},{"extensions":{"S8S_v3d_node":{"hidden":false,"hidpiCompositing":false}},"name":"level_1_furniture_v0:transform5","rotation":[0.0,0.0,0.0,1.0],"scale":[1.0,1.0,1.0],"translation":[0.0,0.0,0.0]},{"extensions":{"S8S_v3d_node":{"hidden":false,"hidpiCompositing":false}},"name":"level_1_furniture_v5:transform1","rotation":[0.0,0.0,0.0,1.0],"scale":[1.0,1.0,1.0],"translation":[0.0,0.0,0.0]},{"extensions":{"S8S_v3d_node":{"hidden":false,"hidpiCompositing":false}},"name":"level_1_furniture_v5:transform3","rotation":[0.0,0.0,0.0,1.0],"scale":[1.0,1.0,1.0],"translation":[0.0,0.0,0.0]},{"extensions":{"S8S_v3d_node":{"hidden":false,"hidpiCompositing":false}},"name":"level_1_furniture_v5:transform4","rotation":[0.0,0.0,0.0,1.0],"scale":[1.0,1.0,1.0],"translation":[0.0,0.0,0.0]},{"extensions":{"S8S_v3d_node":{"hidden":false,"hidpiCompositing":false}},"name":"level_1_furniture_v5:transform5","rotation":[0.0,0.0,0.0,1.0],"scale":[1.0,1.0,1.0],"translation":[0.0,0.0,0.0]},{"children":[15,16,17,18,19,20,21,22,23,24],"extensions":{"S8S_v3d_node":{"hidden":false,"hidpiCompositing":false}},"name":"anime:anime","rotation":[0.5000000000000003,0.49999999999999967,-0.49999999999999944,0.5000000000000006],"scale":[0.4999999999999999,0.49999999999999994,0.49999999999999994],"translation":[8.230348370848304,13.270105609657843,-2.3881320394709276]},{"extensions":{"S8S_v3d_node":{"frustumCulling":true,"groupNames":["anime:anime"],"hidden":false,"hidpiCompositing":false,"renderOrder":0,"useCastShadows":true,"useShadows":true}},"mesh":0,"name":"anime:pCylinder24","rotation":[0.0,0.0,0.0,1.0],"scale":[0.5971656580865139,1.4706362345824333,0.5971656580865139],"translation":[0.0,1.5828400660184208,0.0]},{"extensions":{"S8S_v3d_node":{"frustumCulling":true,"groupNames":["anime:anime"],"hidden":false,"hidpiCompositing":false,"renderOrder":0,"useCastShadows":true,"useShadows":true}},"mesh":1,"name":"anime:pSphere10","rotation":[0.0,0.0,0.0,1.0],"scale":[0.8885158582703028,1.0,1.0],"translation":[0.0,3.915237682000038,0.0]},{"extensions":{"S8S_v3d_node":{"frustumCulling":true,"groupNames":["anime:anime"],"hidden":false,"hidpiCompositing":false,"renderOrder":0,"useCastShadows":true,"useShadows":true}},"mesh":2,"name":"anime:pSphere11","rotation":[0.0,0.0,0.7071067811865475,0.7071067811865477],"scale":[0.36056208333212847,0.36056208333212847,0.36056208333212847],"translation":[0.38978785442038577,4.8268922344748795,0.95]},{"extensions":{"S8S_v3d_node":{"frustumCulling":true,"groupNames":["anime:anime"],"hidden":false,"hidpiCompositing":false,"renderOrder":0,"useCastShadows":true,"useShadows":true}},"mesh":3,"name":"anime:pCylinder22","rotation":[0.5421085441843495,0.26422352249483766,-0.16252651758967135,0.7809541520236125],"scale":[0.22061004612581187,0.9999999999999999,0.22061004612581184],"translation":[-0.0411390637478819,4.437109995364918,0.3429156471159362]},{"extensions":{"S8S_v3d_node":{"frustumCulling":true,"groupNames":["anime:anime"],"hidden":false,"hidpiCompositing":false,"renderOrder":0,"useCastShadows":true,"useShadows":true}},"mesh":4,"name":"anime:pCylinder23","rotation":[0.5421085441843495,0.26422352249483766,-0.16252651758967135,0.7809541520236125],"scale":[0.22061004612581187,0.9999999999999999,0.22061004612581184],"translation":[-0.04113906374788168,4.437109995364919,-9.311749077700679]},{"extensions":{"S8S_v3d_node":{"frustumCulling":true,"groupNames":["anime:anime"],"hidden":false,"hidpiCompositing":false,"renderOrder":0,"useCastShadows":true,"useShadows":true}},"mesh":5,"name":"anime:pSphere5","rotation":[0.0,0.0,0.0,1.0],"scale":[0.8885158582703028,1.0,1.0],"translation":[0.0,3.915237682000038,0.0]},{"extensions":{"S8S_v3d_node":{"frustumCulling":true,"groupNames":["anime:anime"],"hidden":false,"hidpiCompositing":false,"renderOrder":0,"useCastShadows":true,"useShadows":true}},"mesh":6,"name":"anime:pSphere8","rotation":[0.0,0.0,0.7071067811865475,0.7071067811865477],"scale":[0.36056208333212847,0.36056208333212847,0.36056208333212847],"translation":[0.38978785442038577,4.8268922344748795,-0.9502156943665665]},{"extensions":{"S8S_v3d_node":{"frustumCulling":true,"groupNames":["anime:anime"],"hidden":false,"hidpiCompositing":false,"renderOrder":0,"useCastShadows":true,"useShadows":true}},"mesh":7,"name":"anime:pCylinder20","rotation":[0.0,0.0,0.0,1.0],"scale":[1.017872277803086,1.017872277803086,1.017872277803086],"translation":[0.0,1.7652611519253671,0.0]},{"extensions":{"S8S_v3d_node":{"frustumCulling":true,"groupNames":["anime:anime"],"hidden":false,"hidpiCompositing":false,"renderOrder":0,"useCastShadows":true,"useShadows":true}},"mesh":8,"name":"anime:pCylinder21","rotation":[0.0,0.0,0.0,1.0],"scale":[0.5971656580865139,1.4706362345824333,0.5971656580865139],"translation":[0.0,1.5828400660184205,0.0]},{"extensions":{"S8S_v3d_node":{"frustumCulling":true,"groupNames":["anime:anime"],"hidden":false,"hidpiCompositing":false,"renderOrder":0,"useCastShadows":true,"useShadows":true}},"mesh":9,"name":"anime:pCylinder19","rotation":[0.0,0.0,0.0,1.0],"scale":[1.5786752948254568,0.1,1.5786752948254568],"translation":[0.0,-0.003769539274385836,0.0]},{"camera":0,"children":[26],"extensions":{"S8S_v3d_node":{"hidden":true,"hidpiCompositing":false}},"name":"persp","rotation":[0.42783596991486583,0.24388461936101852,-0.12106537641555445,0.8618699727450175],"scale":[1.0,1.0,1.0],"translation":[14.006223884911913,-4.2216611667336705,17.109672282022764]},{"extensions":{"S8S_v3d_lights":{"light":0}},"name":"__DEFAULT_LIGHT__","rotation":[-0.13052619222005157,-0.0,-0.0,0.9914448613738104],"translation":[14.006223884911913,-4.2216611667336705,17.109672282022764]}],"scene":0,"scenes":[{"extensions":{"S8S_v3d_scene":{"aaMethod":"AUTO","iblEnvironmentMode":"PMREM","physicallyCorrectLights":true,"shadowMap":{"esmDistanceScale":2.5,"renderReverseSided":false,"renderSingleSided":true,"type":"PCFPOISSON"},"unitsScaleFactor":1.0,"useHDR":false,"worldMaterial":4}},"extras":{"animFrameRate":24.0,"coordSystem":"Y_UP_RIGHT"},"name":"Scene","nodes":[0,1,2,3,4,5,6,7,8,9,10,11,12,13,14,25]}]}