{"accessors":[{"bufferView":0,"componentType":5123,"count":7836,"max":[3009],"min":[0],"type":"SCALAR"},{"bufferView":1,"componentType":5126,"count":3010,"max":[7.5016984939575195,2.5999999046325684,7.978507041931152],"min":[0.1997845321893692,-0.8006826639175415,7.558157920837402],"type":"VEC3"},{"bufferView":2,"componentType":5126,"count":3010,"max":[1.0,1.0,1.0],"min":[-1.0,-1.0,-1.0],"type":"VEC3"},{"bufferView":3,"componentType":5126,"count":3010,"max":[1.0,1.0],"min":[0.0,0.0],"type":"VEC2"},{"bufferView":4,"componentType":5123,"count":7836,"max":[3009],"min":[0],"type":"SCALAR"},{"bufferView":5,"componentType":5126,"count":3010,"max":[7.5016984939575195,2.5999999046325684,7.978507041931152],"min":[0.1997845321893692,-0.8006826639175415,7.558157920837402],"type":"VEC3"},{"bufferView":6,"componentType":5126,"count":3010,"max":[1.0,1.0,1.0],"min":[-1.0,-1.0,-1.0],"type":"VEC3"},{"bufferView":7,"componentType":5126,"count":3010,"max":[1.0,1.0],"min":[0.0,0.0],"type":"VEC2"},{"bufferView":8,"componentType":5123,"count":44712,"max":[15113],"min":[0],"type":"SCALAR"},{"bufferView":9,"componentType":5126,"count":15114,"max":[13.662589073181152,1.380422592163086,1.3510560989379883],"min":[-13.744047164916992,-1.380422830581665,-1.2746634483337402],"type":"VEC3"},{"bufferView":10,"componentType":5126,"count":15114,"max":[1.0,1.0,1.0],"min":[-1.0,-1.0,-1.0],"type":"VEC3"},{"bufferView":11,"componentType":5126,"count":15114,"max":[0.65625,1.000000074505806],"min":[0.3437499701976776,0.0],"type":"VEC2"},{"bufferView":12,"componentType":5123,"count":11040,"max":[3875],"min":[0],"type":"SCALAR"},{"bufferView":13,"componentType":5126,"count":3876,"max":[-11.51036262512207,3.486738443374634,3.486738443374634],"min":[-13.37143611907959,-3.486738443374634,-3.4867396354675293],"type":"VEC3"},{"bufferView":14,"componentType":5126,"count":3876,"max":[1.0,1.0,1.0],"min":[-1.0,-1.0,-1.0],"type":"VEC3"},{"bufferView":15,"componentType":5126,"count":3876,"max":[0.65625,0.539188951253891],"min":[0.3437499701976776,0.0],"type":"VEC2"},{"bufferView":16,"componentType":5123,"count":11040,"max":[3875],"min":[0],"type":"SCALAR"},{"bufferView":17,"componentType":5126,"count":3876,"max":[-11.51036262512207,3.486738443374634,3.486738443374634],"min":[-13.37143611907959,-3.486738443374634,-3.4867396354675293],"type":"VEC3"},{"bufferView":18,"componentType":5126,"count":3876,"max":[1.0,1.0,1.0],"min":[-1.0,-1.0,-1.0],"type":"VEC3"},{"bufferView":19,"componentType":5126,"count":3876,"max":[0.65625,0.539188951253891],"min":[0.3437499701976776,0.0],"type":"VEC2"}],"asset":{"copyright":null,"generator":"Soft8Soft Verge3D for Maya plug-in","version":"2.0"},"bufferViews":[{"buffer":0,"byteLength":15672,"byteOffset":0,"target":34963},{"buffer":0,"byteLength":36120,"byteOffset":15672,"target":34962},{"buffer":0,"byteLength":36120,"byteOffset":51792,"target":34962},{"buffer":0,"byteLength":24080,"byteOffset":87912,"target":34962},{"buffer":0,"byteLength":15672,"byteOffset":111992,"target":34963},{"buffer":0,"byteLength":36120,"byteOffset":127664,"target":34962},{"buffer":0,"byteLength":36120,"byteOffset":163784,"target":34962},{"buffer":0,"byteLength":24080,"byteOffset":199904,"target":34962},{"buffer":0,"byteLength":89424,"byteOffset":223984,"target":34963},{"buffer":0,"byteLength":181368,"byteOffset":313408,"target":34962},{"buffer":0,"byteLength":181368,"byteOffset":494776,"target":34962},{"buffer":0,"byteLength":120912,"byteOffset":676144,"target":34962},{"buffer":0,"byteLength":22080,"byteOffset":797056,"target":34963},{"buffer":0,"byteLength":46512,"byteOffset":819136,"target":34962},{"buffer":0,"byteLength":46512,"byteOffset":865648,"target":34962},{"buffer":0,"byteLength":31008,"byteOffset":912160,"target":34962},{"buffer":0,"byteLength":22080,"byteOffset":943168,"target":34963},{"buffer":0,"byteLength":46512,"byteOffset":965248,"target":34962},{"buffer":0,"byteLength":46512,"byteOffset":1011760,"target":34962},{"buffer":0,"byteLength":31008,"byteOffset":1058272,"target":34962}],"buffers":[{"byteLength":1089280,"uri":"weight.bin"}],"cameras":[{"extensions":{"S8S_v3d_camera":{"controls":"ORBIT","enablePan":true,"moveSpeed":1.0,"orbitMaxDistance":1000.0,"orbitMaxPolarAngle":3.141592653589793,"orbitMaxZoom":100.0,"orbitMinDistance":0.0,"orbitMinPolarAngle":0.0,"orbitMinZoom":0.009999999776482582,"orbitTarget":[0.0,-1.1368683772161603e-13,2.842170943040401e-14],"rotateSpeed":1.0,"viewportFitInitialAspect":1.5,"viewportFitType":"HORIZONTAL"}},"name":"perspShape","perspective":{"aspectRatio":1.5,"yfov":0.6605947096585075,"zfar":10000.0,"znear":0.1},"type":"perspective"}],"extensions":{"S8S_v3d_lights":{"lights":[{"color":[1,1,1],"intensity":2.5,"name":"__DEFAULT__","profile":"maya","type":"directional"}]}},"extensionsUsed":["S8S_v3d_materials","S8S_v3d_lights","S8S_v3d_camera","S8S_v3d_mesh","S8S_v3d_node","S8S_v3d_scene"],"materials":[{"extensions":{"S8S_v3d_materials":{"gtaoVisible":true,"nodeGraph":{"edges":[{"fromNode":1,"fromOutput":0,"toInput":0,"toNode":0}],"nodes":[{"inputs":[[0.0,0.0,0.0,1],[0,0,0,0],[0,0,0]],"is_active_output":true,"name":"blinn2SG","outputs":[],"type":"SHADING_ENGINE_MY"},{"inputs":[[0.9606999754905701,0.4900999963283539,0.5098000168800354],[0.0,0.0,0.0],[0.0,0.0,0.0],1.0,0.800000011920929,[1.0,1.0,1.0],0.5,[0.0,0.0,0.0],0.30000001192092896,[0.5,0.5,0.5],0.699999988079071,0.0,[0.0,0.0,0.0]],"name":"pink_blinn","outputs":[[0.0,0.0,0.0,0]],"type":"BLINN_MY"}]},"profile":"maya"}},"name":"pink_blinn"},{"extensions":{"S8S_v3d_materials":{"nodeGraph":{"edges":[{"fromNode":0,"fromOutput":0,"toInput":0,"toNode":1}],"nodes":[{"inputs":[[0.10653923276464054,0.10653923276464054,0.10653923276464054],[0,0,0],[0,0,0],[0,0,0],[0,0,0],[0,0,0]],"name":"aiRaySwitchColor","outputs":[[0,0,0],0],"type":"RAY_SWITCH_AR"},{"inputs":[[0,0,0],1],"is_active_output":true,"name":"aiSkyDomeLightShapeColor","outputs":[],"type":"SKYDOME_LIGHT_AR"}]},"profile":"maya"}},"name":"Verge3D_Environment"}],"meshes":[{"extensions":{"S8S_v3d_mesh":{}},"name":"level2_allobjects:polySurface13Shape","primitives":[{"attributes":{"NORMAL":2,"POSITION":1,"TEXCOORD_0":3},"indices":0,"material":0,"mode":4}]},{"extensions":{"S8S_v3d_mesh":{}},"name":"level2_allobjects:polySurface12Shape","primitives":[{"attributes":{"NORMAL":6,"POSITION":5,"TEXCOORD_0":7},"indices":4,"material":0,"mode":4}]},{"extensions":{"S8S_v3d_mesh":{}},"name":"level2_allobjects:polySurface11Shape","primitives":[{"attributes":{"NORMAL":10,"POSITION":9,"TEXCOORD_0":11},"indices":8,"material":0,"mode":4}]},{"extensions":{"S8S_v3d_mesh":{}},"name":"level2_allobjects:polySurface7Shape","primitives":[{"attributes":{"NORMAL":14,"POSITION":13,"TEXCOORD_0":15},"indices":12,"material":0,"mode":4}]},{"extensions":{"S8S_v3d_mesh":{}},"name":"level2_allobjects:polySurface6Shape","primitives":[{"attributes":{"NORMAL":18,"POSITION":17,"TEXCOORD_0":19},"indices":16,"material":0,"mode":4}]}],"nodes":[{"children":[1,2,3,4,5],"extensions":{"S8S_v3d_node":{"hidden":false,"hidpiCompositing":false}},"name":"level2_allobjects:weight","rotation":[-0.4229477712025121,0.5666702593526743,-0.5666702593526748,0.4229477712025125],"scale":[0.45874979079454,0.45874979079454,0.45874979079454],"translation":[-0.40345647761684367,26.957653309781353,-23.41011638959062]},{"extensions":{"S8S_v3d_node":{"frustumCulling":true,"groupNames":["level2_allobjects:weight"],"hidden":false,"hidpiCompositing":false,"renderOrder":0,"useCastShadows":true,"useShadows":true}},"mesh":0,"name":"level2_allobjects:polySurface13","rotation":[0.0,0.7071067811865475,0.0,0.7071067811865477],"scale":[0.18962058041448315,0.18962058041448315,0.18962058041448315],"translation":[-10.668604625704011,1.755587943841161,0.7333188597475824]},{"extensions":{"S8S_v3d_node":{"frustumCulling":true,"groupNames":["level2_allobjects:weight"],"hidden":false,"hidpiCompositing":false,"renderOrder":0,"useCastShadows":true,"useShadows":true}},"mesh":1,"name":"level2_allobjects:polySurface12","rotation":[0.0,-0.7071067811865475,0.0,0.7071067811865477],"scale":[0.18962058041448315,0.18962058041448315,0.18962058041448315],"translation":[10.589728383662424,1.755587943841161,-0.7270408217226807]},{"extensions":{"S8S_v3d_node":{"frustumCulling":true,"groupNames":["level2_allobjects:weight"],"hidden":false,"hidpiCompositing":false,"renderOrder":0,"useCastShadows":true,"useShadows":true}},"mesh":2,"name":"level2_allobjects:polySurface11","rotation":[0.0,0.0,0.0,1.0],"scale":[1.0,1.0,1.0],"translation":[0.0,0.0,0.0]},{"extensions":{"S8S_v3d_node":{"frustumCulling":true,"groupNames":["level2_allobjects:weight"],"hidden":false,"hidpiCompositing":false,"renderOrder":0,"useCastShadows":true,"useShadows":true}},"mesh":3,"name":"level2_allobjects:polySurface7","rotation":[0.0,1.0,0.0,6.123233995736766e-17],"scale":[1.0,1.0,1.0],"translation":[-2.46536922454834,0.0,-1.1920928970313834e-06]},{"extensions":{"S8S_v3d_node":{"frustumCulling":true,"groupNames":["level2_allobjects:weight"],"hidden":false,"hidpiCompositing":false,"renderOrder":0,"useCastShadows":true,"useShadows":true}},"mesh":4,"name":"level2_allobjects:polySurface6","rotation":[0.0,0.0,0.0,1.0],"scale":[1.0,1.0,1.0],"translation":[2.438049554824829,0.0,0.0]},{"camera":0,"children":[7],"extensions":{"S8S_v3d_node":{"hidden":true,"hidpiCompositing":false}},"name":"persp","rotation":[-0.14591802999244735,0.781064161835031,0.19864332665605053,0.5737486665736846],"scale":[1.0000000000000002,1.0,1.0],"translation":[134.2906459080639,76.53240337889093,-42.08413744928374]},{"extensions":{"S8S_v3d_lights":{"light":0}},"name":"__DEFAULT_LIGHT__","rotation":[-0.13052619222005157,-0.0,-0.0,0.9914448613738104],"translation":[134.2906459080639,76.53240337889093,-42.08413744928374]}],"scene":0,"scenes":[{"extensions":{"S8S_v3d_scene":{"aaMethod":"AUTO","iblEnvironmentMode":"PMREM","physicallyCorrectLights":true,"shadowMap":{"esmDistanceScale":2.5,"renderReverseSided":false,"renderSingleSided":true,"type":"PCFPOISSON"},"unitsScaleFactor":1.0,"useHDR":false,"worldMaterial":1}},"extras":{"animFrameRate":24.0,"coordSystem":"Y_UP_RIGHT"},"name":"Scene","nodes":[0,6]}]}