{"accessors":[{"bufferView":0,"componentType":5123,"count":4830,"max":[1588],"min":[0],"type":"SCALAR"},{"bufferView":1,"componentType":5126,"count":1589,"max":[4.965488433837891,7.619241714477539,1.6136953830718994],"min":[-4.992105484008789,0.05461263656616211,-5.197411060333252],"type":"VEC3"},{"bufferView":2,"componentType":5126,"count":1589,"max":[1.0,1.0,1.0],"min":[-1.0,-1.0,-1.0],"type":"VEC3"},{"bufferView":3,"componentType":5126,"count":1589,"max":[1.0,1.0],"min":[0.0,0.0],"type":"VEC2"},{"bufferView":4,"componentType":5123,"count":10668,"max":[6101],"min":[0],"type":"SCALAR"},{"bufferView":5,"componentType":5126,"count":6102,"max":[1.0178240537643433,1.4860466718673706,1.0357941389083862],"min":[-1.0178213119506836,-1.0,-1.035793662071228],"type":"VEC3"},{"bufferView":6,"componentType":5126,"count":6102,"max":[1.0,1.0,1.0],"min":[-1.0,-1.0,-1.0],"type":"VEC3"},{"bufferView":7,"componentType":5126,"count":6102,"max":[1.0,1.000000074505806],"min":[0.0,0.0],"type":"VEC2"}],"asset":{"copyright":null,"generator":"Soft8Soft Verge3D for Maya plug-in","version":"2.0"},"bufferViews":[{"buffer":0,"byteLength":9660,"byteOffset":0,"target":34963},{"buffer":0,"byteLength":19068,"byteOffset":9660,"target":34962},{"buffer":0,"byteLength":19068,"byteOffset":28728,"target":34962},{"buffer":0,"byteLength":12712,"byteOffset":47796,"target":34962},{"buffer":0,"byteLength":21336,"byteOffset":60508,"target":34963},{"buffer":0,"byteLength":73224,"byteOffset":81844,"target":34962},{"buffer":0,"byteLength":73224,"byteOffset":155068,"target":34962},{"buffer":0,"byteLength":48816,"byteOffset":228292,"target":34962}],"buffers":[{"byteLength":277108,"uri":"camera.bin"}],"cameras":[{"extensions":{"S8S_v3d_camera":{"controls":"ORBIT","enablePan":true,"moveSpeed":1.0,"orbitMaxDistance":1000.0,"orbitMaxPolarAngle":3.141592653589793,"orbitMaxZoom":100.0,"orbitMinDistance":0.0,"orbitMinPolarAngle":0.0,"orbitMinZoom":0.009999999776482582,"orbitTarget":[5.684341886080802e-14,1.4210854715202004e-14,5.684341886080802e-14],"rotateSpeed":1.0,"viewportFitInitialAspect":1.5,"viewportFitType":"HORIZONTAL"}},"name":"perspShape","perspective":{"aspectRatio":1.5,"yfov":0.6605947096585075,"zfar":10000.0,"znear":0.1},"type":"perspective"}],"extensions":{"S8S_v3d_lights":{"lights":[{"color":[1,1,1],"intensity":2.5,"name":"__DEFAULT__","profile":"maya","type":"directional"}]}},"extensionsUsed":["S8S_v3d_materials","S8S_v3d_lights","S8S_v3d_camera","S8S_v3d_mesh","S8S_v3d_node","S8S_v3d_scene"],"materials":[{"extensions":{"S8S_v3d_materials":{"gtaoVisible":true,"nodeGraph":{"edges":[{"fromNode":1,"fromOutput":0,"toInput":0,"toNode":0}],"nodes":[{"inputs":[[0.0,0.0,0.0,1],[0,0,0,0],[0,0,0]],"is_active_output":true,"name":"phong1SG","outputs":[],"type":"SHADING_ENGINE_MY"},{"inputs":[[0.9803000092506409,0.7450000047683716,0.31369999051094055],[0.0,0.0,0.0],[0.0,0.0,0.0],1.0,0.800000011920929,[1.0,1.0,1.0],0.5,[0.0,0.0,0.0],20.0,[0.5,0.5,0.5],0.0,[0.0,0.0,0.0]],"name":"yellow_pong","outputs":[[0.0,0.0,0.0,0]],"type":"PHONG_MY"}]},"profile":"maya"}},"name":"yellow_pong"},{"extensions":{"S8S_v3d_materials":{"nodeGraph":{"edges":[{"fromNode":0,"fromOutput":0,"toInput":0,"toNode":1}],"nodes":[{"inputs":[[0.10653923276464054,0.10653923276464054,0.10653923276464054],[0,0,0],[0,0,0],[0,0,0],[0,0,0],[0,0,0]],"name":"aiRaySwitchColor","outputs":[[0,0,0],0],"type":"RAY_SWITCH_AR"},{"inputs":[[0,0,0],1],"is_active_output":true,"name":"aiSkyDomeLightShapeColor","outputs":[],"type":"SKYDOME_LIGHT_AR"}]},"profile":"maya"}},"name":"Verge3D_Environment"}],"meshes":[{"extensions":{"S8S_v3d_mesh":{}},"name":"level3_allobjects:pasted__Camera_BodyShape","primitives":[{"attributes":{"NORMAL":2,"POSITION":1,"TEXCOORD_0":3},"indices":0,"material":0,"mode":4}]},{"extensions":{"S8S_v3d_mesh":{}},"name":"level3_allobjects:pasted__LenseShape","primitives":[{"attributes":{"NORMAL":6,"POSITION":5,"TEXCOORD_0":7},"indices":4,"material":0,"mode":4}]}],"nodes":[{"children":[1],"extensions":{"S8S_v3d_node":{"hidden":false,"hidpiCompositing":false}},"name":"level3_allobjects:camera","rotation":[0.0,0.0,0.0,1.0],"scale":[1.0,1.0,1.0],"translation":[0.0,0.0,0.0]},{"children":[2,3],"extensions":{"S8S_v3d_node":{"groupNames":["level3_allobjects:camera"],"hidden":false,"hidpiCompositing":false}},"name":"level3_allobjects:pasted__BodyAndLense_Camera","rotation":[0.0,0.8117879639294899,0.0,0.5839523110830311],"scale":[0.3356592186349486,0.3356592186349485,0.3356592186349486],"translation":[-4.957969683390358,33.87254482807583,-5.939814124877689]},{"extensions":{"S8S_v3d_node":{"frustumCulling":true,"groupNames":["level3_allobjects:pasted__BodyAndLense_Camera","level3_allobjects:camera"],"hidden":false,"hidpiCompositing":false,"renderOrder":0,"useCastShadows":true,"useShadows":true}},"mesh":0,"name":"level3_allobjects:pasted__Camera_Body","rotation":[0.0,0.0,0.0,1.0],"scale":[1.0,1.0,1.0],"translation":[0.0,0.0,-0.33387765288352966]},{"extensions":{"S8S_v3d_node":{"frustumCulling":true,"groupNames":["level3_allobjects:pasted__BodyAndLense_Camera","level3_allobjects:camera"],"hidden":false,"hidpiCompositing":false,"renderOrder":0,"useCastShadows":true,"useShadows":true}},"mesh":1,"name":"level3_allobjects:pasted__Lense","rotation":[0.0010974137220596536,-0.707105929605404,-0.7071059296054042,0.0010974137220596538],"scale":[2.3996135653545063,2.0143754250930836,2.3823438493599176],"translation":[0.7189333665004266,3.040008919187312,1.9228908103461837]},{"camera":0,"children":[5],"extensions":{"S8S_v3d_node":{"hidden":true,"hidpiCompositing":false}},"name":"persp","rotation":[-0.2230243961057575,0.37136585056309357,0.09237972960707397,0.8965564730316413],"scale":[1.0,1.0,1.0],"translation":[143.9993456999099,107.99950927493254,143.99934569991]},{"extensions":{"S8S_v3d_lights":{"light":0}},"name":"__DEFAULT_LIGHT__","rotation":[-0.13052619222005157,-0.0,-0.0,0.9914448613738104],"translation":[143.9993456999099,107.99950927493254,143.99934569991]}],"scene":0,"scenes":[{"extensions":{"S8S_v3d_scene":{"aaMethod":"AUTO","iblEnvironmentMode":"PMREM","physicallyCorrectLights":true,"shadowMap":{"esmDistanceScale":2.5,"renderReverseSided":false,"renderSingleSided":true,"type":"PCFPOISSON"},"unitsScaleFactor":1.0,"useHDR":false,"worldMaterial":1}},"extras":{"animFrameRate":24.0,"coordSystem":"Y_UP_RIGHT"},"name":"Scene","nodes":[0,4]}]}