{"accessors":[{"bufferView":0,"componentType":5123,"count":30540,"max":[8409],"min":[0],"type":"SCALAR"},{"bufferView":1,"componentType":5126,"count":8410,"max":[0.10249356925487518,0.2048463225364685,0.28816500306129456],"min":[-0.10242144763469696,-0.08140894025564194,0.0],"type":"VEC3"},{"bufferView":2,"componentType":5126,"count":8410,"max":[0.9999998211860657,0.9999999403953552,0.9999749064445496],"min":[-0.9999998211860657,-0.9997374415397644,-0.999710202217102],"type":"VEC3"},{"bufferView":3,"componentType":5126,"count":8410,"max":[0.996558427810669,0.9985097041353583],"min":[0.0014970796182751656,0.0015037059783935547],"type":"VEC2"},{"bufferView":4,"componentType":5123,"count":6432,"max":[2000],"min":[0],"type":"SCALAR"},{"bufferView":5,"componentType":5126,"count":2001,"max":[0.06016041338443756,0.06079334020614624,0.06318652629852295],"min":[-0.06016041338443756,-0.05413550138473511,-0.06870248913764954],"type":"VEC3"},{"bufferView":6,"componentType":5126,"count":2001,"max":[0.9998741149902344,0.9994386434555054,0.9589162468910217],"min":[-0.9998741149902344,-0.9610069394111633,-0.9798135161399841],"type":"VEC3"},{"bufferView":7,"componentType":5126,"count":2001,"max":[0.9969239830970764,0.9984971075318754],"min":[0.00149574875831604,0.12507450580596924],"type":"VEC2"}],"asset":{"copyright":null,"generator":"Soft8Soft Verge3D for Maya plug-in","version":"2.0"},"bufferViews":[{"buffer":0,"byteLength":61080,"byteOffset":0,"target":34963},{"buffer":0,"byteLength":100920,"byteOffset":61080,"target":34962},{"buffer":0,"byteLength":100920,"byteOffset":162000,"target":34962},{"buffer":0,"byteLength":67280,"byteOffset":262920,"target":34962},{"buffer":0,"byteLength":12864,"byteOffset":330200,"target":34963},{"buffer":0,"byteLength":24012,"byteOffset":343064,"target":34962},{"buffer":0,"byteLength":24012,"byteOffset":367076,"target":34962},{"buffer":0,"byteLength":16008,"byteOffset":391088,"target":34962}],"buffers":[{"byteLength":407096,"uri":"gas-mask.bin"}],"cameras":[{"extensions":{"S8S_v3d_camera":{"controls":"ORBIT","enablePan":true,"moveSpeed":1.0,"orbitMaxDistance":1000.0,"orbitMaxPolarAngle":3.141592653589793,"orbitMaxZoom":100.0,"orbitMinDistance":0.0,"orbitMinPolarAngle":0.0,"orbitMinZoom":0.009999999776482582,"orbitTarget":[1.7053025658242404e-13,1.1368683772161603e-13,1.7053025658242404e-13],"rotateSpeed":1.0,"viewportFitInitialAspect":1.5,"viewportFitType":"HORIZONTAL"}},"name":"perspShape","perspective":{"aspectRatio":1.5,"yfov":0.6605947096585075,"zfar":10000.0,"znear":0.1},"type":"perspective"}],"extensions":{"S8S_v3d_lights":{"lights":[{"color":[1,1,1],"intensity":2.5,"name":"__DEFAULT__","profile":"maya","type":"directional"}]}},"extensionsUsed":["S8S_v3d_materials","S8S_v3d_lights","S8S_v3d_camera","S8S_v3d_mesh","S8S_v3d_node","S8S_v3d_scene"],"materials":[{"extensions":{"S8S_v3d_materials":{"gtaoVisible":true,"nodeGraph":{"edges":[{"fromNode":1,"fromOutput":0,"toInput":0,"toNode":0}],"nodes":[{"inputs":[[0.0,0.0,0.0,1],[0,0,0,0],[0,0,0]],"is_active_output":true,"name":"phongE1SG","outputs":[],"type":"SHADING_ENGINE_MY"},{"inputs":[[0.33329999446868896,0.11760000139474869,0.7450000047683716],[0.0,0.0,0.0],[0.0,0.0,0.0],1.0,0.800000011920929,[1.0,1.0,1.0],0.5,[0.0,0.0,0.0],0.5,0.5,[0.5,0.5,0.5],0.0,[0.0,0.0,0.0]],"name":"purple_phongE","outputs":[[0.0,0.0,0.0,0]],"type":"PHONG_E_MY"}]},"profile":"maya"}},"name":"purple_phongE"},{"extensions":{"S8S_v3d_materials":{"nodeGraph":{"edges":[{"fromNode":0,"fromOutput":0,"toInput":0,"toNode":1}],"nodes":[{"inputs":[[0.10653923276464054,0.10653923276464054,0.10653923276464054],[0,0,0],[0,0,0],[0,0,0],[0,0,0],[0,0,0]],"name":"aiRaySwitchColor","outputs":[[0,0,0],0],"type":"RAY_SWITCH_AR"},{"inputs":[[0,0,0],1],"is_active_output":true,"name":"aiSkyDomeLightShapeColor","outputs":[],"type":"SKYDOME_LIGHT_AR"}]},"profile":"maya"}},"name":"Verge3D_Environment"}],"meshes":[{"extensions":{"S8S_v3d_mesh":{}},"name":"level4_allobjects:hdShape","primitives":[{"attributes":{"NORMAL":2,"POSITION":1,"TEXCOORD_0":3},"indices":0,"material":0,"mode":4}]},{"extensions":{"S8S_v3d_mesh":{}},"name":"level4_allobjects:foShape","primitives":[{"attributes":{"NORMAL":6,"POSITION":5,"TEXCOORD_0":7},"indices":4,"material":0,"mode":4}]}],"nodes":[{"children":[1,2],"extensions":{"S8S_v3d_node":{"hidden":false,"hidpiCompositing":false}},"name":"level4_allobjects:gasmask","rotation":[0.251243562972992,-0.6609664681847602,0.2512435629729916,0.6609664681847612],"scale":[0.11580458882883514,0.11580458882883514,0.11580458882883514],"translation":[-9.569844175433076,54.22274164295773,-21.81638651824934]},{"extensions":{"S8S_v3d_node":{"frustumCulling":true,"groupNames":["level4_allobjects:gasmask"],"hidden":false,"hidpiCompositing":false,"renderOrder":0,"useCastShadows":true,"useShadows":true}},"mesh":0,"name":"level4_allobjects:hd","rotation":[-0.7071067811865451,-5.7601158675246286e-08,-5.760115867524627e-08,0.7071067811865454],"scale":[99.99999999999999,99.99999999999999,100.0],"translation":[-0.0036060214042663574,5.8811798095703125,10.641030311584473]},{"extensions":{"S8S_v3d_node":{"frustumCulling":true,"groupNames":["level4_allobjects:gasmask"],"hidden":false,"hidpiCompositing":false,"renderOrder":0,"useCastShadows":true,"useShadows":true}},"mesh":1,"name":"level4_allobjects:fo","rotation":[-0.7071067811865451,-5.7601158675246286e-08,-5.760115867524627e-08,0.7071067811865454],"scale":[99.99999999999999,99.99999999999999,100.0],"translation":[0.06672181189060211,11.79163646697998,21.716148376464844]},{"camera":0,"children":[4],"extensions":{"S8S_v3d_node":{"hidden":true,"hidpiCompositing":false}},"name":"persp","rotation":[-0.2230243961057575,0.37136585056309357,0.09237972960707397,0.8965564730316413],"scale":[1.0,1.0,1.0],"translation":[174.81805175729764,131.1135388179734,174.81805175729778]},{"extensions":{"S8S_v3d_lights":{"light":0}},"name":"__DEFAULT_LIGHT__","rotation":[-0.13052619222005157,-0.0,-0.0,0.9914448613738104],"translation":[174.81805175729764,131.1135388179734,174.81805175729778]}],"scene":0,"scenes":[{"extensions":{"S8S_v3d_scene":{"aaMethod":"AUTO","iblEnvironmentMode":"PMREM","physicallyCorrectLights":true,"shadowMap":{"esmDistanceScale":2.5,"renderReverseSided":false,"renderSingleSided":true,"type":"PCFPOISSON"},"unitsScaleFactor":1.0,"useHDR":false,"worldMaterial":1}},"extras":{"animFrameRate":24.0,"coordSystem":"Y_UP_RIGHT"},"name":"Scene","nodes":[0,3]}]}