{"accessors":[{"bufferView":0,"componentType":5123,"count":84,"max":[39],"min":[0],"type":"SCALAR"},{"bufferView":1,"componentType":5126,"count":40,"max":[0.5,0.5,0.5],"min":[-0.5,-0.5,-0.5],"type":"VEC3"},{"bufferView":2,"componentType":5126,"count":40,"max":[1.0,0.972278892993927,1.0],"min":[-1.0,-1.0,-1.0],"type":"VEC3"},{"bufferView":3,"componentType":5126,"count":40,"max":[0.875,1.0],"min":[0.125,0.0],"type":"VEC2"},{"bufferView":4,"componentType":5123,"count":132,"max":[95],"min":[0],"type":"SCALAR"},{"bufferView":5,"componentType":5126,"count":96,"max":[0.5,0.4999999403953552,0.5],"min":[-0.5,-0.5,-0.5],"type":"VEC3"},{"bufferView":6,"componentType":5126,"count":96,"max":[1.0,1.0,1.0],"min":[-1.0,-1.0,-1.0],"type":"VEC3"},{"bufferView":7,"componentType":5126,"count":96,"max":[0.8687506318092346,1.0],"min":[0.13124936819076538,0.006249368190765381],"type":"VEC2"},{"bufferView":8,"componentType":5123,"count":282,"max":[173],"min":[0],"type":"SCALAR"},{"bufferView":9,"componentType":5126,"count":174,"max":[0.5,0.5,0.5],"min":[-0.5,-0.5,-0.5],"type":"VEC3"},{"bufferView":10,"componentType":5126,"count":174,"max":[1.0,1.0,1.0],"min":[-0.9999999403953552,-1.0,-1.0],"type":"VEC3"},{"bufferView":11,"componentType":5126,"count":174,"max":[0.8730771541595459,1.0],"min":[0.1269228756427765,0.0019228458404541016],"type":"VEC2"},{"bufferView":12,"componentType":5123,"count":24,"max":[11],"min":[0],"type":"SCALAR"},{"bufferView":13,"componentType":5126,"count":12,"max":[0.3172334134578705,0.444444477558136,0.4692307710647583],"min":[0.3172333836555481,-0.444444477558136,-0.4692307710647583],"type":"VEC3"},{"bufferView":14,"componentType":5126,"count":12,"max":[1.0,0.0,0.0],"min":[1.0,0.0,-2.1294440057708633e-15],"type":"VEC3"},{"bufferView":15,"componentType":5126,"count":12,"max":[0.8115386366844177,0.9357640668749809],"min":[0.6884613633155823,0.8142359107732773],"type":"VEC2"},{"bufferView":16,"componentType":5123,"count":108,"max":[40],"min":[0],"type":"SCALAR"},{"bufferView":17,"componentType":5126,"count":41,"max":[0.5,0.4999990463256836,0.5],"min":[-0.5,-0.5,-0.5],"type":"VEC3"},{"bufferView":18,"componentType":5126,"count":41,"max":[0.9999999403953552,0.9964728951454163,0.9999999403953552],"min":[-0.9999999403953552,-1.0,-0.9999999403953552],"type":"VEC3"},{"bufferView":19,"componentType":5126,"count":41,"max":[0.875,1.0],"min":[0.125,0.0],"type":"VEC2"},{"bufferView":20,"componentType":5123,"count":36,"max":[23],"min":[0],"type":"SCALAR"},{"bufferView":21,"componentType":5126,"count":24,"max":[0.5,0.5,0.5],"min":[-0.5,-0.5,-0.5],"type":"VEC3"},{"bufferView":22,"componentType":5126,"count":24,"max":[1.0,1.0,1.0],"min":[-1.0,-1.0,-1.0],"type":"VEC3"},{"bufferView":23,"componentType":5126,"count":24,"max":[0.875,1.0],"min":[0.125,0.0],"type":"VEC2"},{"bufferView":24,"componentType":5123,"count":36,"max":[23],"min":[0],"type":"SCALAR"},{"bufferView":25,"componentType":5126,"count":24,"max":[0.5,0.5,0.5],"min":[-0.5,-0.5,-0.5],"type":"VEC3"},{"bufferView":26,"componentType":5126,"count":24,"max":[1.0,1.0,1.0],"min":[-1.0,-1.0,-1.0],"type":"VEC3"},{"bufferView":27,"componentType":5126,"count":24,"max":[0.875,1.0],"min":[0.125,0.0],"type":"VEC2"},{"bufferView":28,"componentType":5123,"count":36,"max":[23],"min":[0],"type":"SCALAR"},{"bufferView":29,"componentType":5126,"count":24,"max":[0.5,0.5,0.5],"min":[-0.5,-0.5,-0.5],"type":"VEC3"},{"bufferView":30,"componentType":5126,"count":24,"max":[1.0,1.0,1.0],"min":[-1.0,-1.0,-1.0],"type":"VEC3"},{"bufferView":31,"componentType":5126,"count":24,"max":[0.875,1.0],"min":[0.125,0.0],"type":"VEC2"},{"bufferView":32,"componentType":5123,"count":36,"max":[23],"min":[0],"type":"SCALAR"},{"bufferView":33,"componentType":5126,"count":24,"max":[0.5,0.5,0.5],"min":[-0.5,-0.5,-0.5],"type":"VEC3"},{"bufferView":34,"componentType":5126,"count":24,"max":[1.0,1.0,1.0],"min":[-1.0,-1.0,-1.0],"type":"VEC3"},{"bufferView":35,"componentType":5126,"count":24,"max":[0.875,1.0],"min":[0.125,0.0],"type":"VEC2"},{"bufferView":36,"componentType":5123,"count":84,"max":[39],"min":[0],"type":"SCALAR"},{"bufferView":37,"componentType":5126,"count":40,"max":[0.5,0.5,0.5],"min":[-0.5,-0.5,-0.5],"type":"VEC3"},{"bufferView":38,"componentType":5126,"count":40,"max":[1.0,0.9964818954467773,1.0],"min":[-1.0,-1.0,-1.0],"type":"VEC3"},{"bufferView":39,"componentType":5126,"count":40,"max":[0.875,1.0],"min":[0.125,0.0],"type":"VEC2"}],"asset":{"copyright":null,"generator":"Soft8Soft Verge3D for Maya plug-in","version":"2.0"},"bufferViews":[{"buffer":0,"byteLength":168,"byteOffset":0,"target":34963},{"buffer":0,"byteLength":480,"byteOffset":168,"target":34962},{"buffer":0,"byteLength":480,"byteOffset":648,"target":34962},{"buffer":0,"byteLength":320,"byteOffset":1128,"target":34962},{"buffer":0,"byteLength":264,"byteOffset":1448,"target":34963},{"buffer":0,"byteLength":1152,"byteOffset":1712,"target":34962},{"buffer":0,"byteLength":1152,"byteOffset":2864,"target":34962},{"buffer":0,"byteLength":768,"byteOffset":4016,"target":34962},{"buffer":0,"byteLength":564,"byteOffset":4784,"target":34963},{"buffer":0,"byteLength":2088,"byteOffset":5348,"target":34962},{"buffer":0,"byteLength":2088,"byteOffset":7436,"target":34962},{"buffer":0,"byteLength":1392,"byteOffset":9524,"target":34962},{"buffer":0,"byteLength":48,"byteOffset":10916,"target":34963},{"buffer":0,"byteLength":144,"byteOffset":10964,"target":34962},{"buffer":0,"byteLength":144,"byteOffset":11108,"target":34962},{"buffer":0,"byteLength":96,"byteOffset":11252,"target":34962},{"buffer":0,"byteLength":216,"byteOffset":11348,"target":34963},{"buffer":0,"byteLength":492,"byteOffset":11564,"target":34962},{"buffer":0,"byteLength":492,"byteOffset":12056,"target":34962},{"buffer":0,"byteLength":328,"byteOffset":12548,"target":34962},{"buffer":0,"byteLength":72,"byteOffset":12876,"target":34963},{"buffer":0,"byteLength":288,"byteOffset":12948,"target":34962},{"buffer":0,"byteLength":288,"byteOffset":13236,"target":34962},{"buffer":0,"byteLength":192,"byteOffset":13524,"target":34962},{"buffer":0,"byteLength":72,"byteOffset":13716,"target":34963},{"buffer":0,"byteLength":288,"byteOffset":13788,"target":34962},{"buffer":0,"byteLength":288,"byteOffset":14076,"target":34962},{"buffer":0,"byteLength":192,"byteOffset":14364,"target":34962},{"buffer":0,"byteLength":72,"byteOffset":14556,"target":34963},{"buffer":0,"byteLength":288,"byteOffset":14628,"target":34962},{"buffer":0,"byteLength":288,"byteOffset":14916,"target":34962},{"buffer":0,"byteLength":192,"byteOffset":15204,"target":34962},{"buffer":0,"byteLength":72,"byteOffset":15396,"target":34963},{"buffer":0,"byteLength":288,"byteOffset":15468,"target":34962},{"buffer":0,"byteLength":288,"byteOffset":15756,"target":34962},{"buffer":0,"byteLength":192,"byteOffset":16044,"target":34962},{"buffer":0,"byteLength":168,"byteOffset":16236,"target":34963},{"buffer":0,"byteLength":480,"byteOffset":16404,"target":34962},{"buffer":0,"byteLength":480,"byteOffset":16884,"target":34962},{"buffer":0,"byteLength":320,"byteOffset":17364,"target":34962}],"buffers":[{"byteLength":17684,"uri":"tvcarpet-v1.bin"}],"cameras":[{"extensions":{"S8S_v3d_camera":{"controls":"ORBIT","enablePan":true,"moveSpeed":1.0,"orbitMaxDistance":1000.0,"orbitMaxPolarAngle":3.141592653589793,"orbitMaxZoom":100.0,"orbitMinDistance":0.0,"orbitMinPolarAngle":0.0,"orbitMinZoom":0.009999999776482582,"orbitTarget":[0.1919632619883842,30.51136513786503,-5.3450878820588414],"rotateSpeed":1.0,"viewportFitInitialAspect":1.5,"viewportFitType":"HORIZONTAL"}},"name":"perspShape","perspective":{"aspectRatio":1.5,"yfov":0.6605947096585076,"zfar":10000.0,"znear":0.1},"type":"perspective"}],"extensions":{"S8S_v3d_lights":{"lights":[{"color":[1,1,1],"intensity":2.5,"name":"__DEFAULT__","profile":"maya","type":"directional"}]}},"extensionsUsed":["S8S_v3d_materials","S8S_v3d_lights","S8S_v3d_camera","S8S_v3d_mesh","S8S_v3d_node","S8S_v3d_scene"],"materials":[{"extensions":{"S8S_v3d_materials":{"gtaoVisible":true,"nodeGraph":{"edges":[{"fromNode":1,"fromOutput":0,"toInput":0,"toNode":0}],"nodes":[{"inputs":[[0.0,0.0,0.0,1],[0,0,0,0],[0,0,0]],"is_active_output":true,"name":"phongE1SG","outputs":[],"type":"SHADING_ENGINE_MY"},{"inputs":[[0.33329999446868896,0.11760000139474869,0.7450000047683716],[0.0,0.0,0.0],[0.0,0.0,0.0],1.0,0.800000011920929,[1.0,1.0,1.0],0.5,[0.0,0.0,0.0],0.5,0.5,[0.5,0.5,0.5],0.0,[0.0,0.0,0.0]],"name":"purple_phongE","outputs":[[0.0,0.0,0.0,0]],"type":"PHONG_E_MY"}]},"profile":"maya"}},"name":"purple_phongE"},{"extensions":{"S8S_v3d_materials":{"gtaoVisible":true,"nodeGraph":{"edges":[{"fromNode":1,"fromOutput":0,"toInput":0,"toNode":0}],"nodes":[{"inputs":[[0.0,0.0,0.0,1],[0,0,0,0],[0,0,0]],"is_active_output":true,"name":"anisotropic1SG","outputs":[],"type":"SHADING_ENGINE_MY"},{"inputs":[1.0,[1.0,1.0,1.0],0.0,0.46399998664855957,1.0,[1.0,1.0,1.0],0.47101449966430664,0.0,[1.0,1.0,1.0],0.0,[0.3636363744735718,0.3636363744735718,0.3636363744735718],0.0,0.0,[1.0,1.0,1.0],[1.0,1.0,1.0],0.0,[1.0,1.0,1.0],0.10000000149011612,0.0,[1.0,1.0,1.0],0.30000001192092896,0.0,[1.0,1.0,1.0],[1.0,1.0,1.0],[1.0,1.0,1.0],[0.0,0.0,0.0],2.375999927520752],"name":"metal_1_surface","outputs":[[0.0,0.0,0.0,0],[0.0,0.0,0.0]],"thinWalled":false,"type":"STANDARD_SURFACE_AR"}]},"profile":"maya"}},"name":"metal_1_surface"},{"extensions":{"S8S_v3d_materials":{"gtaoVisible":true,"nodeGraph":{"edges":[{"fromNode":1,"fromOutput":0,"toInput":0,"toNode":0}],"nodes":[{"inputs":[[0.0,0.0,0.0,1],[0,0,0,0],[0,0,0]],"is_active_output":true,"name":"phong2SG","outputs":[],"type":"SHADING_ENGINE_MY"},{"inputs":[[0.3921000063419342,0.8626999855041504,0.7843000292778015],[0.0,0.0,0.0],[0.0,0.0,0.0],1.0,0.800000011920929,[1.0,1.0,1.0],0.5,[0.0,0.0,0.0],20.0,[0.3921000063419342,0.8626999855041504,0.7843000292778015],0.0,[0.0,0.0,0.0]],"name":"blue_phong","outputs":[[0.0,0.0,0.0,0]],"type":"PHONG_MY"}]},"profile":"maya"}},"name":"blue_phong"},{"extensions":{"S8S_v3d_materials":{"gtaoVisible":true,"nodeGraph":{"edges":[{"fromNode":1,"fromOutput":0,"toInput":0,"toNode":0}],"nodes":[{"inputs":[[0.0,0.0,0.0,1],[0,0,0,0],[0,0,0]],"is_active_output":true,"name":"blinn2SG","outputs":[],"type":"SHADING_ENGINE_MY"},{"inputs":[[0.9606999754905701,0.4900999963283539,0.5098000168800354],[0.0,0.0,0.0],[0.0,0.0,0.0],1.0,0.800000011920929,[1.0,1.0,1.0],0.5,[0.0,0.0,0.0],0.30000001192092896,[0.5,0.5,0.5],0.699999988079071,0.0,[0.0,0.0,0.0]],"name":"pink_blinn","outputs":[[0.0,0.0,0.0,0]],"type":"BLINN_MY"}]},"profile":"maya"}},"name":"pink_blinn"},{"extensions":{"S8S_v3d_materials":{"gtaoVisible":true,"nodeGraph":{"edges":[{"fromNode":1,"fromOutput":0,"toInput":0,"toNode":0}],"nodes":[{"inputs":[[0.0,0.0,0.0,1],[0,0,0,0],[0,0,0]],"is_active_output":true,"name":"lambert10SG","outputs":[],"type":"SHADING_ENGINE_MY"},{"inputs":[[0.9803000092506409,0.7450000047683716,0.31369999051094055],[0.0,0.0,0.0],[0.0,0.0,0.0],1.0,0.800000011920929,[1.0,1.0,1.0],0.0,[0.0,0.0,0.0]],"name":"yellow_lambert","outputs":[[0.0,0.0,0.0,0]],"type":"LAMBERT_MY"}]},"profile":"maya"}},"name":"yellow_lambert"},{"extensions":{"S8S_v3d_materials":{"nodeGraph":{"edges":[{"fromNode":0,"fromOutput":0,"toInput":0,"toNode":1}],"nodes":[{"inputs":[[0.10653923276464054,0.10653923276464054,0.10653923276464054],[0,0,0],[0,0,0],[0,0,0],[0,0,0],[0,0,0]],"name":"aiRaySwitchColor","outputs":[[0,0,0],0],"type":"RAY_SWITCH_AR"},{"inputs":[[0,0,0],1],"is_active_output":true,"name":"aiSkyDomeLightShapeColor","outputs":[],"type":"SKYDOME_LIGHT_AR"}]},"profile":"maya"}},"name":"Verge3D_Environment"}],"meshes":[{"extensions":{"S8S_v3d_mesh":{}},"name":"tv:pCubeShape3","primitives":[{"attributes":{"NORMAL":2,"POSITION":1,"TEXCOORD_0":3},"indices":0,"material":0,"mode":4}]},{"extensions":{"S8S_v3d_mesh":{}},"name":"tv:pCubeShape2","primitives":[{"attributes":{"NORMAL":6,"POSITION":5,"TEXCOORD_0":7},"indices":4,"material":0,"mode":4}]},{"extensions":{"S8S_v3d_mesh":{}},"name":"tv:pCubeShape1","primitives":[{"attributes":{"NORMAL":10,"POSITION":9,"TEXCOORD_0":11},"indices":8,"material":0,"mode":4},{"attributes":{"NORMAL":14,"POSITION":13,"TEXCOORD_0":15},"indices":12,"material":1,"mode":4}]},{"extensions":{"S8S_v3d_mesh":{}},"name":"tv:pCubeShape4","primitives":[{"attributes":{"NORMAL":18,"POSITION":17,"TEXCOORD_0":19},"indices":16,"material":2,"mode":4}]},{"extensions":{"S8S_v3d_mesh":{}},"name":"tv:pCubeShape5","primitives":[{"attributes":{"NORMAL":22,"POSITION":21,"TEXCOORD_0":23},"indices":20,"material":3,"mode":4}]},{"extensions":{"S8S_v3d_mesh":{}},"name":"tv:pCubeShape6","primitives":[{"attributes":{"NORMAL":26,"POSITION":25,"TEXCOORD_0":27},"indices":24,"material":3,"mode":4}]},{"extensions":{"S8S_v3d_mesh":{}},"name":"tv:pCubeShape7","primitives":[{"attributes":{"NORMAL":30,"POSITION":29,"TEXCOORD_0":31},"indices":28,"material":3,"mode":4}]},{"extensions":{"S8S_v3d_mesh":{}},"name":"tv:pCubeShape8","primitives":[{"attributes":{"NORMAL":34,"POSITION":33,"TEXCOORD_0":35},"indices":32,"material":3,"mode":4}]},{"extensions":{"S8S_v3d_mesh":{}},"name":"tv:CarpetShape","primitives":[{"attributes":{"NORMAL":38,"POSITION":37,"TEXCOORD_0":39},"indices":36,"material":4,"mode":4}]}],"nodes":[{"extensions":{"S8S_v3d_node":{"hidden":false,"hidpiCompositing":false}},"name":"transform1","rotation":[0.0,0.0,0.0,1.0],"scale":[1.0,1.0,1.0],"translation":[0.0,0.0,0.0]},{"extensions":{"S8S_v3d_node":{"hidden":false,"hidpiCompositing":false}},"name":"transform2","rotation":[0.0,0.0,0.0,1.0],"scale":[1.0,1.0,1.0],"translation":[0.0,0.0,0.0]},{"extensions":{"S8S_v3d_node":{"hidden":false,"hidpiCompositing":false}},"name":"transform3","rotation":[0.0,0.0,0.0,1.0],"scale":[1.0,1.0,1.0],"translation":[0.0,0.0,0.0]},{"extensions":{"S8S_v3d_node":{"hidden":false,"hidpiCompositing":false}},"name":"transform4","rotation":[0.0,0.0,0.0,1.0],"scale":[1.0,1.0,1.0],"translation":[0.0,0.0,0.0]},{"extensions":{"S8S_v3d_node":{"hidden":false,"hidpiCompositing":false}},"name":"transform5","rotation":[0.0,0.0,0.0,1.0],"scale":[1.0,1.0,1.0],"translation":[0.0,0.0,0.0]},{"extensions":{"S8S_v3d_node":{"hidden":false,"hidpiCompositing":false}},"name":"level_1_furniture_v0:transform1","rotation":[0.0,0.0,0.0,1.0],"scale":[1.0,1.0,1.0],"translation":[0.0,0.0,0.0]},{"extensions":{"S8S_v3d_node":{"hidden":false,"hidpiCompositing":false}},"name":"level_1_furniture_v0:transform2","rotation":[0.0,0.0,0.0,1.0],"scale":[1.0,1.0,1.0],"translation":[0.0,0.0,0.0]},{"extensions":{"S8S_v3d_node":{"hidden":false,"hidpiCompositing":false}},"name":"level_1_furniture_v0:transform3","rotation":[0.0,0.0,0.0,1.0],"scale":[1.0,1.0,1.0],"translation":[0.0,0.0,0.0]},{"extensions":{"S8S_v3d_node":{"hidden":false,"hidpiCompositing":false}},"name":"level_1_furniture_v0:transform4","rotation":[0.0,0.0,0.0,1.0],"scale":[1.0,1.0,1.0],"translation":[0.0,0.0,0.0]},{"extensions":{"S8S_v3d_node":{"hidden":false,"hidpiCompositing":false}},"name":"level_1_furniture_v0:transform5","rotation":[0.0,0.0,0.0,1.0],"scale":[1.0,1.0,1.0],"translation":[0.0,0.0,0.0]},{"extensions":{"S8S_v3d_node":{"hidden":false,"hidpiCompositing":false}},"name":"level_1_furniture_v5:transform1","rotation":[0.0,0.0,0.0,1.0],"scale":[1.0,1.0,1.0],"translation":[0.0,0.0,0.0]},{"extensions":{"S8S_v3d_node":{"hidden":false,"hidpiCompositing":false}},"name":"level_1_furniture_v5:transform3","rotation":[0.0,0.0,0.0,1.0],"scale":[1.0,1.0,1.0],"translation":[0.0,0.0,0.0]},{"extensions":{"S8S_v3d_node":{"hidden":false,"hidpiCompositing":false}},"name":"level_1_furniture_v5:transform4","rotation":[0.0,0.0,0.0,1.0],"scale":[1.0,1.0,1.0],"translation":[0.0,0.0,0.0]},{"extensions":{"S8S_v3d_node":{"hidden":false,"hidpiCompositing":false}},"name":"level_1_furniture_v5:transform5","rotation":[0.0,0.0,0.0,1.0],"scale":[1.0,1.0,1.0],"translation":[0.0,0.0,0.0]},{"children":[15,19,25],"extensions":{"S8S_v3d_node":{"hidden":false,"hidpiCompositing":false}},"name":"tv:TV_carpet","rotation":[0.0,0.0,-0.7071067811865475,0.7071067811865477],"scale":[0.5,0.5,0.5],"translation":[0.002453492716559341,16.110325591180715,-3.7526626609413674]},{"children":[16,17,18],"extensions":{"S8S_v3d_node":{"groupNames":["tv:TV_carpet"],"hidden":false,"hidpiCompositing":false}},"name":"tv:TV","rotation":[0.0,0.0,0.0,1.0],"scale":[1.0,1.0,1.0],"translation":[-7.841078211827819,2.7,0.0]},{"extensions":{"S8S_v3d_node":{"frustumCulling":true,"groupNames":["tv:TV","tv:TV_carpet"],"hidden":false,"hidpiCompositing":false,"renderOrder":0,"useCastShadows":true,"useShadows":true}},"mesh":0,"name":"tv:pCube3","rotation":[0.0,1.0,0.0,6.123233995736766e-17],"scale":[1.0,0.1,2.0],"translation":[0.0,0.05,0.0]},{"extensions":{"S8S_v3d_node":{"frustumCulling":true,"groupNames":["tv:TV","tv:TV_carpet"],"hidden":false,"hidpiCompositing":false,"renderOrder":0,"useCastShadows":true,"useShadows":true}},"mesh":1,"name":"tv:pCube2","rotation":[0.0,0.0,0.0,1.0],"scale":[0.1,0.6,1.0],"translation":[0.0,0.35,0.0]},{"extensions":{"S8S_v3d_node":{"frustumCulling":true,"groupNames":["tv:TV","tv:TV_carpet"],"hidden":false,"hidpiCompositing":false,"renderOrder":0,"useCastShadows":true,"useShadows":true}},"mesh":2,"name":"tv:pCube1","rotation":[0.0,1.0,0.0,6.123233995736766e-17],"scale":[0.2,3.6,6.5],"translation":[0.0,2.429385121632868,0.0]},{"children":[20,21,22,23,24],"extensions":{"S8S_v3d_node":{"groupNames":["tv:TV_carpet"],"hidden":false,"hidpiCompositing":false}},"name":"tv:TV_stand","rotation":[0.0,0.0,0.0,1.0],"scale":[1.0,1.0,1.0],"translation":[-7.841078211827819,0.1,0.0]},{"extensions":{"S8S_v3d_node":{"frustumCulling":true,"groupNames":["tv:TV_stand","tv:TV_carpet"],"hidden":false,"hidpiCompositing":false,"renderOrder":0,"useCastShadows":true,"useShadows":true}},"mesh":3,"name":"tv:pCube4","rotation":[0.0,0.0,0.0,1.0],"scale":[4.0,0.2,8.0],"translation":[0.0,2.5,0.0]},{"extensions":{"S8S_v3d_node":{"frustumCulling":true,"groupNames":["tv:TV_stand","tv:TV_carpet"],"hidden":false,"hidpiCompositing":false,"renderOrder":0,"useCastShadows":true,"useShadows":true}},"mesh":4,"name":"tv:pCube5","rotation":[0.0,0.0,0.0,1.0],"scale":[0.15,2.5,0.15],"translation":[-1.8,1.25,3.8]},{"extensions":{"S8S_v3d_node":{"frustumCulling":true,"groupNames":["tv:TV_stand","tv:TV_carpet"],"hidden":false,"hidpiCompositing":false,"renderOrder":0,"useCastShadows":true,"useShadows":true}},"mesh":5,"name":"tv:pCube6","rotation":[0.0,0.0,0.0,1.0],"scale":[0.15,2.5,0.15],"translation":[1.8,1.25,3.8]},{"extensions":{"S8S_v3d_node":{"frustumCulling":true,"groupNames":["tv:TV_stand","tv:TV_carpet"],"hidden":false,"hidpiCompositing":false,"renderOrder":0,"useCastShadows":true,"useShadows":true}},"mesh":6,"name":"tv:pCube7","rotation":[0.0,0.0,0.0,1.0],"scale":[0.15,2.5,0.15],"translation":[1.8,1.25,-3.8]},{"extensions":{"S8S_v3d_node":{"frustumCulling":true,"groupNames":["tv:TV_stand","tv:TV_carpet"],"hidden":false,"hidpiCompositing":false,"renderOrder":0,"useCastShadows":true,"useShadows":true}},"mesh":7,"name":"tv:pCube8","rotation":[0.0,0.0,0.0,1.0],"scale":[0.15,2.5,0.15],"translation":[-1.8,1.25,-3.8]},{"extensions":{"S8S_v3d_node":{"frustumCulling":true,"groupNames":["tv:TV_carpet"],"hidden":false,"hidpiCompositing":false,"renderOrder":0,"useCastShadows":true,"useShadows":true}},"mesh":8,"name":"tv:Carpet","rotation":[0.0,0.0,0.0,1.0],"scale":[12.5,0.1,11.0],"translation":[-4.988046215162536,0.05,0.0]},{"camera":0,"children":[27],"extensions":{"S8S_v3d_node":{"hidden":true,"hidpiCompositing":false}},"name":"persp","rotation":[0.08953177779733502,-0.8786158625957899,-0.1819525980745578,-0.43233260207093227],"scale":[1.0,1.0,1.0],"translation":[43.263118631499815,54.03628870217848,-38.51434280392314]},{"extensions":{"S8S_v3d_lights":{"light":0}},"name":"__DEFAULT_LIGHT__","rotation":[-0.13052619222005157,-0.0,-0.0,0.9914448613738104],"translation":[43.263118631499815,54.03628870217848,-38.51434280392314]}],"scene":0,"scenes":[{"extensions":{"S8S_v3d_scene":{"aaMethod":"AUTO","iblEnvironmentMode":"PMREM","physicallyCorrectLights":true,"shadowMap":{"esmDistanceScale":2.5,"renderReverseSided":false,"renderSingleSided":true,"type":"PCFPOISSON"},"unitsScaleFactor":1.0,"useHDR":false,"worldMaterial":5}},"extras":{"animFrameRate":24.0,"coordSystem":"Y_UP_RIGHT"},"name":"Scene","nodes":[0,1,2,3,4,5,6,7,8,9,10,11,12,13,14,26]}]}