{"accessors":[{"bufferView":0,"componentType":5123,"count":16560,"max":[2904],"min":[0],"type":"SCALAR"},{"bufferView":1,"componentType":5126,"count":2905,"max":[1.0233957767486572,0.9999997615814209,1.0258142948150635],"min":[-1.0233958959579468,-1.012367844581604,-1.0258146524429321],"type":"VEC3"},{"bufferView":2,"componentType":5126,"count":2905,"max":[1.0,1.0,1.0],"min":[-1.0,-1.0,-1.0],"type":"VEC3"},{"bufferView":3,"componentType":5126,"count":2905,"max":[0.65625,1.000000074505806],"min":[0.3437499701976776,0.3125],"type":"VEC2"},{"bufferView":4,"componentType":5123,"count":3012,"max":[523],"min":[0],"type":"SCALAR"},{"bufferView":5,"componentType":5126,"count":524,"max":[0.4668318033218384,0.9835634231567383,0.4052240252494812],"min":[-0.5120891332626343,-15.751873016357422,-0.4676535129547119],"type":"VEC3"},{"bufferView":6,"componentType":5126,"count":524,"max":[1.0,1.0,0.9999998807907104],"min":[-1.0,-1.0,-0.9999996423721313],"type":"VEC3"},{"bufferView":7,"componentType":5126,"count":524,"max":[0.625,0.75],"min":[0.1324179321527481,0.10834980010986328],"type":"VEC2"}],"asset":{"copyright":null,"generator":"Soft8Soft Verge3D for Maya plug-in","version":"2.0"},"bufferViews":[{"buffer":0,"byteLength":33120,"byteOffset":0,"target":34963},{"buffer":0,"byteLength":34860,"byteOffset":33120,"target":34962},{"buffer":0,"byteLength":34860,"byteOffset":67980,"target":34962},{"buffer":0,"byteLength":23240,"byteOffset":102840,"target":34962},{"buffer":0,"byteLength":6024,"byteOffset":126080,"target":34963},{"buffer":0,"byteLength":6288,"byteOffset":132104,"target":34962},{"buffer":0,"byteLength":6288,"byteOffset":138392,"target":34962},{"buffer":0,"byteLength":4192,"byteOffset":144680,"target":34962}],"buffers":[{"byteLength":148872,"uri":"bottle-v1.bin"}],"cameras":[{"extensions":{"S8S_v3d_camera":{"controls":"ORBIT","enablePan":true,"moveSpeed":1.0,"orbitMaxDistance":1000.0,"orbitMaxPolarAngle":3.141592653589793,"orbitMaxZoom":100.0,"orbitMinDistance":0.0,"orbitMinPolarAngle":0.0,"orbitMinZoom":0.009999999776482582,"orbitTarget":[0.1919632619865972,30.511365137866484,-5.345087882053162],"rotateSpeed":1.0,"viewportFitInitialAspect":1.5,"viewportFitType":"HORIZONTAL"}},"name":"perspShape","perspective":{"aspectRatio":1.5,"yfov":0.6605947096585076,"zfar":10000.0,"znear":0.1},"type":"perspective"}],"extensions":{"S8S_v3d_lights":{"lights":[{"color":[1,1,1],"intensity":2.5,"name":"__DEFAULT__","profile":"maya","type":"directional"}]}},"extensionsUsed":["S8S_v3d_materials","S8S_v3d_lights","S8S_v3d_camera","S8S_v3d_mesh","S8S_v3d_node","S8S_v3d_scene"],"materials":[{"alphaMode":"BLEND","extensions":{"S8S_v3d_materials":{"gtaoVisible":true,"nodeGraph":{"edges":[{"fromNode":1,"fromOutput":0,"toInput":0,"toNode":0}],"nodes":[{"inputs":[[0.0,0.0,0.0,1],[0,0,0,0],[0,0,0]],"is_active_output":true,"name":"standardSurface2SG","outputs":[],"type":"SHADING_ENGINE_MY"},{"inputs":[[0.9803000092506409,0.7450000047683716,0.31369999051094055],[0.0,0.0,0.0],[0.0,0.0,0.0],1.0,0.800000011920929,[1.0,1.0,1.0],0.5,[0.0,0.0,0.0],0.30000001192092896,[0.9606999754905701,0.4900999963283539,0.5098000168800354],0.699999988079071,0.0,[0.16200000047683716,0.16200000047683716,0.16200000047683716]],"name":"yellow_blinn_transparent","outputs":[[0.0,0.0,0.0,0]],"type":"BLINN_MY"}]},"profile":"maya"}},"name":"yellow_blinn_transparent"},{"alphaMode":"BLEND","extensions":{"S8S_v3d_materials":{"gtaoVisible":true,"nodeGraph":{"edges":[{"fromNode":1,"fromOutput":0,"toInput":0,"toNode":0}],"nodes":[{"inputs":[[0.04805842041969299,0.01695670560002327,0.10742131620645523,1],[0,0,0,0],[0,0,0]],"is_active_output":true,"name":"blinn3SG","outputs":[],"type":"SHADING_ENGINE_MY"},{"inputs":[[0.33329999446868896,0.11760000139474869,0.7450000047683716],[0.18589743971824646,0.18589743971824646,0.18589743971824646],[0.0,0.0,0.0],1.0,0.800000011920929,[1.0,1.0,1.0],0.4855072498321533,[0.0,0.0,0.0],0.5869565010070801,0.239130437374115,[0.7243589758872986,0.7243589758872986,0.7243589758872986],0.0,[0.22435897588729858,0.22435897588729858,0.22435897588729858]],"name":"purple_phongE_transparent","outputs":[[0.04805842041969299,0.01695670560002327,0.10742131620645523,0]],"type":"PHONG_E_MY"}]},"profile":"maya"}},"name":"purple_phongE_transparent"},{"extensions":{"S8S_v3d_materials":{"nodeGraph":{"edges":[{"fromNode":0,"fromOutput":0,"toInput":0,"toNode":1}],"nodes":[{"inputs":[[0.10653923276464054,0.10653923276464054,0.10653923276464054],[0,0,0],[0,0,0],[0,0,0],[0,0,0],[0,0,0]],"name":"aiRaySwitchColor","outputs":[[0,0,0],0],"type":"RAY_SWITCH_AR"},{"inputs":[[0,0,0],1],"is_active_output":true,"name":"aiSkyDomeLightShapeColor","outputs":[],"type":"SKYDOME_LIGHT_AR"}]},"profile":"maya"}},"name":"Verge3D_Environment"}],"meshes":[{"extensions":{"S8S_v3d_mesh":{}},"name":"bottle:pCylinderShape16","primitives":[{"attributes":{"NORMAL":2,"POSITION":1,"TEXCOORD_0":3},"indices":0,"material":0,"mode":4}]},{"extensions":{"S8S_v3d_mesh":{}},"name":"bottle:pCubeShape31","primitives":[{"attributes":{"NORMAL":6,"POSITION":5,"TEXCOORD_0":7},"indices":4,"material":1,"mode":4}]}],"nodes":[{"extensions":{"S8S_v3d_node":{"hidden":false,"hidpiCompositing":false}},"name":"transform1","rotation":[0.0,0.0,0.0,1.0],"scale":[1.0,1.0,1.0],"translation":[0.0,0.0,0.0]},{"extensions":{"S8S_v3d_node":{"hidden":false,"hidpiCompositing":false}},"name":"transform2","rotation":[0.0,0.0,0.0,1.0],"scale":[1.0,1.0,1.0],"translation":[0.0,0.0,0.0]},{"extensions":{"S8S_v3d_node":{"hidden":false,"hidpiCompositing":false}},"name":"transform3","rotation":[0.0,0.0,0.0,1.0],"scale":[1.0,1.0,1.0],"translation":[0.0,0.0,0.0]},{"extensions":{"S8S_v3d_node":{"hidden":false,"hidpiCompositing":false}},"name":"transform4","rotation":[0.0,0.0,0.0,1.0],"scale":[1.0,1.0,1.0],"translation":[0.0,0.0,0.0]},{"extensions":{"S8S_v3d_node":{"hidden":false,"hidpiCompositing":false}},"name":"transform5","rotation":[0.0,0.0,0.0,1.0],"scale":[1.0,1.0,1.0],"translation":[0.0,0.0,0.0]},{"extensions":{"S8S_v3d_node":{"hidden":false,"hidpiCompositing":false}},"name":"level_1_furniture_v0:transform1","rotation":[0.0,0.0,0.0,1.0],"scale":[1.0,1.0,1.0],"translation":[0.0,0.0,0.0]},{"extensions":{"S8S_v3d_node":{"hidden":false,"hidpiCompositing":false}},"name":"level_1_furniture_v0:transform2","rotation":[0.0,0.0,0.0,1.0],"scale":[1.0,1.0,1.0],"translation":[0.0,0.0,0.0]},{"extensions":{"S8S_v3d_node":{"hidden":false,"hidpiCompositing":false}},"name":"level_1_furniture_v0:transform3","rotation":[0.0,0.0,0.0,1.0],"scale":[1.0,1.0,1.0],"translation":[0.0,0.0,0.0]},{"extensions":{"S8S_v3d_node":{"hidden":false,"hidpiCompositing":false}},"name":"level_1_furniture_v0:transform4","rotation":[0.0,0.0,0.0,1.0],"scale":[1.0,1.0,1.0],"translation":[0.0,0.0,0.0]},{"extensions":{"S8S_v3d_node":{"hidden":false,"hidpiCompositing":false}},"name":"level_1_furniture_v0:transform5","rotation":[0.0,0.0,0.0,1.0],"scale":[1.0,1.0,1.0],"translation":[0.0,0.0,0.0]},{"extensions":{"S8S_v3d_node":{"hidden":false,"hidpiCompositing":false}},"name":"level_1_furniture_v5:transform1","rotation":[0.0,0.0,0.0,1.0],"scale":[1.0,1.0,1.0],"translation":[0.0,0.0,0.0]},{"extensions":{"S8S_v3d_node":{"hidden":false,"hidpiCompositing":false}},"name":"level_1_furniture_v5:transform3","rotation":[0.0,0.0,0.0,1.0],"scale":[1.0,1.0,1.0],"translation":[0.0,0.0,0.0]},{"extensions":{"S8S_v3d_node":{"hidden":false,"hidpiCompositing":false}},"name":"level_1_furniture_v5:transform4","rotation":[0.0,0.0,0.0,1.0],"scale":[1.0,1.0,1.0],"translation":[0.0,0.0,0.0]},{"extensions":{"S8S_v3d_node":{"hidden":false,"hidpiCompositing":false}},"name":"level_1_furniture_v5:transform5","rotation":[0.0,0.0,0.0,1.0],"scale":[1.0,1.0,1.0],"translation":[0.0,0.0,0.0]},{"children":[15,16],"extensions":{"S8S_v3d_node":{"hidden":false,"hidpiCompositing":false}},"name":"bottle:bottle","rotation":[0.0,0.0,-0.7071067811865475,0.7071067811865477],"scale":[0.5,0.5,0.5],"translation":[8.142054348929415,18.292888650495232,8.807948464582207]},{"extensions":{"S8S_v3d_node":{"frustumCulling":true,"groupNames":["bottle:bottle"],"hidden":false,"hidpiCompositing":false,"renderOrder":0,"useCastShadows":true,"useShadows":true}},"mesh":0,"name":"bottle:pCylinder16","rotation":[-0.7071067811865475,0.0,0.0,0.7071067811865477],"scale":[1.0,3.1080053756865005,1.0],"translation":[10.100610839409187,1.0,-13.388275853974605]},{"extensions":{"S8S_v3d_node":{"frustumCulling":true,"groupNames":["bottle:bottle"],"hidden":false,"hidpiCompositing":false,"renderOrder":0,"useCastShadows":true,"useShadows":true}},"mesh":1,"name":"bottle:pCube31","rotation":[0.0,0.0,0.0,1.0],"scale":[4.0,0.1,2.0],"translation":[9.250363987156303,-0.0019053852547656815,-16.397396432744934]},{"camera":0,"children":[18],"extensions":{"S8S_v3d_node":{"hidden":true,"hidpiCompositing":false}},"name":"persp","rotation":[0.4915077649321461,0.4095692563631475,-0.28148915108991446,0.7151482357331407],"scale":[1.0000000000000002,1.0,1.0],"translation":[12.544984419201974,-6.799023635850767,1.9023865843019963]},{"extensions":{"S8S_v3d_lights":{"light":0}},"name":"__DEFAULT_LIGHT__","rotation":[-0.13052619222005157,-0.0,-0.0,0.9914448613738104],"translation":[12.544984419201974,-6.799023635850767,1.9023865843019963]}],"scene":0,"scenes":[{"extensions":{"S8S_v3d_scene":{"aaMethod":"AUTO","iblEnvironmentMode":"PMREM","physicallyCorrectLights":true,"shadowMap":{"esmDistanceScale":2.5,"renderReverseSided":false,"renderSingleSided":true,"type":"PCFPOISSON"},"unitsScaleFactor":1.0,"useHDR":false,"worldMaterial":2}},"extras":{"animFrameRate":24.0,"coordSystem":"Y_UP_RIGHT"},"name":"Scene","nodes":[0,1,2,3,4,5,6,7,8,9,10,11,12,13,14,17]}]}