{"accessors":[{"bufferView":0,"componentType":5123,"count":552,"max":[427],"min":[0],"type":"SCALAR"},{"bufferView":1,"componentType":5126,"count":428,"max":[0.9710876941680908,0.1453467607498169,0.9710879325866699],"min":[-0.9710879325866699,-1.307271957397461,-0.9710879325866699],"type":"VEC3"},{"bufferView":2,"componentType":5126,"count":428,"max":[0.9587153792381287,1.0,0.9587156176567078],"min":[-0.9587151408195496,-1.0,-0.9587177634239197],"type":"VEC3"},{"bufferView":3,"componentType":5126,"count":428,"max":[0.7438821196556091,0.9938821876421571],"min":[0.25611788034439087,0.0],"type":"VEC2"},{"bufferView":4,"componentType":5123,"count":17316,"max":[3933],"min":[0],"type":"SCALAR"},{"bufferView":5,"componentType":5126,"count":3934,"max":[-5.869226932525635,3.2537765502929688,28.003599166870117],"min":[-8.028690338134766,-2.8753111362457275,25.162887573242188],"type":"VEC3"},{"bufferView":6,"componentType":5126,"count":3934,"max":[0.9982703328132629,0.9884709119796753,0.9996244311332703],"min":[-0.9999173879623413,-0.8057088851928711,-0.9998058676719666],"type":"VEC3"},{"bufferView":7,"componentType":5126,"count":3934,"max":[0.8710939884185791,0.9921880001202226],"min":[0.025390999391674995,0.008789002895355225],"type":"VEC2"},{"bufferView":8,"componentType":5123,"count":9600,"max":[1680],"min":[0],"type":"SCALAR"},{"bufferView":9,"componentType":5126,"count":1681,"max":[1.0853321552276611,0.0987764224410057,1.085331916809082],"min":[-1.0853321552276611,-0.09877646714448929,-1.0853325128555298],"type":"VEC3"},{"bufferView":10,"componentType":5126,"count":1681,"max":[1.0,0.9999895095825195,1.0],"min":[-1.0,-0.9999895095825195,-1.0],"type":"VEC3"},{"bufferView":11,"componentType":5126,"count":1681,"max":[1.0000001192092896,1.0000001564621925],"min":[0.0,0.0],"type":"VEC2"},{"bufferView":12,"componentType":5123,"count":720,"max":[165],"min":[0],"type":"SCALAR"},{"bufferView":13,"componentType":5126,"count":166,"max":[1.0,1.0,1.0000001192092896],"min":[-1.000000238418579,-1.0,-1.0000004768371582],"type":"VEC3"},{"bufferView":14,"componentType":5126,"count":166,"max":[0.9999999403953552,1.0,1.0],"min":[-1.0,-1.0,-1.0],"type":"VEC3"},{"bufferView":15,"componentType":5126,"count":166,"max":[0.65625,1.000000074505806],"min":[0.3437499701976776,0.0],"type":"VEC2"}],"asset":{"copyright":null,"generator":"Soft8Soft Verge3D for Maya plug-in","version":"2.0"},"bufferViews":[{"buffer":0,"byteLength":1104,"byteOffset":0,"target":34963},{"buffer":0,"byteLength":5136,"byteOffset":1104,"target":34962},{"buffer":0,"byteLength":5136,"byteOffset":6240,"target":34962},{"buffer":0,"byteLength":3424,"byteOffset":11376,"target":34962},{"buffer":0,"byteLength":34632,"byteOffset":14800,"target":34963},{"buffer":0,"byteLength":47208,"byteOffset":49432,"target":34962},{"buffer":0,"byteLength":47208,"byteOffset":96640,"target":34962},{"buffer":0,"byteLength":31472,"byteOffset":143848,"target":34962},{"buffer":0,"byteLength":19200,"byteOffset":175320,"target":34963},{"buffer":0,"byteLength":20172,"byteOffset":194520,"target":34962},{"buffer":0,"byteLength":20172,"byteOffset":214692,"target":34962},{"buffer":0,"byteLength":13448,"byteOffset":234864,"target":34962},{"buffer":0,"byteLength":1440,"byteOffset":248312,"target":34963},{"buffer":0,"byteLength":1992,"byteOffset":249752,"target":34962},{"buffer":0,"byteLength":1992,"byteOffset":251744,"target":34962},{"buffer":0,"byteLength":1328,"byteOffset":253736,"target":34962}],"buffers":[{"byteLength":255064,"uri":"ring-v1.bin"}],"cameras":[{"extensions":{"S8S_v3d_camera":{"controls":"ORBIT","enablePan":true,"moveSpeed":1.0,"orbitMaxDistance":1000.0,"orbitMaxPolarAngle":3.141592653589793,"orbitMaxZoom":100.0,"orbitMinDistance":0.0,"orbitMinPolarAngle":0.0,"orbitMinZoom":0.009999999776482582,"orbitTarget":[-7.493534725445533,17.591428673958603,0.7463627617783715],"rotateSpeed":1.0,"viewportFitInitialAspect":1.5,"viewportFitType":"HORIZONTAL"}},"name":"perspShape","perspective":{"aspectRatio":1.5,"yfov":0.6605947096585076,"zfar":10000.0,"znear":0.1},"type":"perspective"}],"extensions":{"S8S_v3d_lights":{"lights":[{"color":[1,1,1],"intensity":2.5,"name":"__DEFAULT__","profile":"maya","type":"directional"}]}},"extensionsUsed":["S8S_v3d_materials","S8S_v3d_lights","S8S_v3d_camera","S8S_v3d_mesh","S8S_v3d_node","S8S_v3d_scene"],"materials":[{"extensions":{"S8S_v3d_materials":{"gtaoVisible":true,"nodeGraph":{"edges":[{"fromNode":1,"fromOutput":0,"toInput":0,"toNode":0}],"nodes":[{"inputs":[[0.0,0.0,0.0,1],[0,0,0,0],[0,0,0]],"is_active_output":true,"name":"standardSurface5SG","outputs":[],"type":"SHADING_ENGINE_MY"},{"inputs":[1.0,[0.33329999446868896,0.11760000139474869,0.7450000047683716],0.0,0.42399999499320984,1.0,[0.9606999754905701,0.4900999963283539,0.5098000168800354],0.3919999897480011,0.0,[1.0,1.0,1.0],0.0,[0.0,0.0,0.0],0.0,0.0,[1.0,1.0,1.0],[1.0,1.0,1.0],0.0,[1.0,1.0,1.0],0.10000000149011612,0.0,[1.0,1.0,1.0],0.30000001192092896,0.0,[1.0,1.0,1.0],[1.0,1.0,1.0],[1.0,1.0,1.0],[0.0,0.0,0.0],3.0],"name":"purple_diamond","outputs":[[0.0,0.0,0.0,0],[0.0,0.0,0.0]],"thinWalled":false,"type":"STANDARD_SURFACE_AR"}]},"profile":"maya"}},"name":"purple_diamond"},{"extensions":{"S8S_v3d_materials":{"gtaoVisible":true,"nodeGraph":{"edges":[{"fromNode":1,"fromOutput":0,"toInput":0,"toNode":0}],"nodes":[{"inputs":[[0.0,0.0,0.0,1],[0,0,0,0],[0,0,0]],"is_active_output":true,"name":"phong1SG","outputs":[],"type":"SHADING_ENGINE_MY"},{"inputs":[[0.9803000092506409,0.7450000047683716,0.31369999051094055],[0.0,0.0,0.0],[0.0,0.0,0.0],1.0,0.800000011920929,[1.0,1.0,1.0],0.5,[0.0,0.0,0.0],20.0,[0.5,0.5,0.5],0.0,[0.0,0.0,0.0]],"name":"yellow_pong","outputs":[[0.0,0.0,0.0,0]],"type":"PHONG_MY"}]},"profile":"maya"}},"name":"yellow_pong"},{"extensions":{"S8S_v3d_materials":{"gtaoVisible":true,"nodeGraph":{"edges":[{"fromNode":1,"fromOutput":0,"toInput":0,"toNode":0}],"nodes":[{"inputs":[[0.0,0.0,0.0,1],[0,0,0,0],[0,0,0]],"is_active_output":true,"name":"lambert7SG","outputs":[],"type":"SHADING_ENGINE_MY"},{"inputs":[[0.3921000063419342,0.8626999855041504,0.7843000292778015],[0.0,0.0,0.0],[0.0,0.0,0.0],1.0,0.800000011920929,[1.0,1.0,1.0],0.5,[0.0,0.0,0.0],0.30000001192092896,[0.3921000063419342,0.8626999855041504,0.7843000292778015],0.699999988079071,0.0,[0.0,0.0,0.0]],"name":"blue_blinn","outputs":[[0.0,0.0,0.0,0]],"type":"BLINN_MY"}]},"profile":"maya"}},"name":"blue_blinn"},{"extensions":{"S8S_v3d_materials":{"gtaoVisible":true,"nodeGraph":{"edges":[{"fromNode":1,"fromOutput":0,"toInput":0,"toNode":0}],"nodes":[{"inputs":[[0.0,0.0,0.0,1],[0,0,0,0],[0,0,0]],"is_active_output":true,"name":"blinn2SG","outputs":[],"type":"SHADING_ENGINE_MY"},{"inputs":[[0.9606999754905701,0.4900999963283539,0.5098000168800354],[0.0,0.0,0.0],[0.0,0.0,0.0],1.0,0.800000011920929,[1.0,1.0,1.0],0.5,[0.0,0.0,0.0],0.30000001192092896,[0.5,0.5,0.5],0.699999988079071,0.0,[0.0,0.0,0.0]],"name":"pink_blinn","outputs":[[0.0,0.0,0.0,0]],"type":"BLINN_MY"}]},"profile":"maya"}},"name":"pink_blinn"},{"extensions":{"S8S_v3d_materials":{"nodeGraph":{"edges":[{"fromNode":0,"fromOutput":0,"toInput":0,"toNode":1}],"nodes":[{"inputs":[[0.10653923276464054,0.10653923276464054,0.10653923276464054],[0,0,0],[0,0,0],[0,0,0],[0,0,0],[0,0,0]],"name":"aiRaySwitchColor","outputs":[[0,0,0],0],"type":"RAY_SWITCH_AR"},{"inputs":[[0,0,0],1],"is_active_output":true,"name":"aiSkyDomeLightShapeColor","outputs":[],"type":"SKYDOME_LIGHT_AR"}]},"profile":"maya"}},"name":"Verge3D_Environment"}],"meshes":[{"extensions":{"S8S_v3d_mesh":{}},"name":"ring:pConeShape1","primitives":[{"attributes":{"NORMAL":2,"POSITION":1,"TEXCOORD_0":3},"indices":0,"material":0,"mode":4}]},{"extensions":{"S8S_v3d_mesh":{}},"name":"ring:feet_hands:hand_man:polySurfaceShape1","primitives":[{"attributes":{"NORMAL":6,"POSITION":5,"TEXCOORD_0":7},"indices":4,"material":1,"mode":4}]},{"extensions":{"S8S_v3d_mesh":{}},"name":"ring:pTorusShape1","primitives":[{"attributes":{"NORMAL":10,"POSITION":9,"TEXCOORD_0":11},"indices":8,"material":2,"mode":4}]},{"extensions":{"S8S_v3d_mesh":{}},"name":"ring:pCylinderShape25","primitives":[{"attributes":{"NORMAL":14,"POSITION":13,"TEXCOORD_0":15},"indices":12,"material":3,"mode":4}]}],"nodes":[{"extensions":{"S8S_v3d_node":{"hidden":false,"hidpiCompositing":false}},"name":"transform1","rotation":[0.0,0.0,0.0,1.0],"scale":[1.0,1.0,1.0],"translation":[0.0,0.0,0.0]},{"extensions":{"S8S_v3d_node":{"hidden":false,"hidpiCompositing":false}},"name":"transform2","rotation":[0.0,0.0,0.0,1.0],"scale":[1.0,1.0,1.0],"translation":[0.0,0.0,0.0]},{"extensions":{"S8S_v3d_node":{"hidden":false,"hidpiCompositing":false}},"name":"transform3","rotation":[0.0,0.0,0.0,1.0],"scale":[1.0,1.0,1.0],"translation":[0.0,0.0,0.0]},{"extensions":{"S8S_v3d_node":{"hidden":false,"hidpiCompositing":false}},"name":"transform4","rotation":[0.0,0.0,0.0,1.0],"scale":[1.0,1.0,1.0],"translation":[0.0,0.0,0.0]},{"extensions":{"S8S_v3d_node":{"hidden":false,"hidpiCompositing":false}},"name":"transform5","rotation":[0.0,0.0,0.0,1.0],"scale":[1.0,1.0,1.0],"translation":[0.0,0.0,0.0]},{"extensions":{"S8S_v3d_node":{"hidden":false,"hidpiCompositing":false}},"name":"level_1_furniture_v0:transform1","rotation":[0.0,0.0,0.0,1.0],"scale":[1.0,1.0,1.0],"translation":[0.0,0.0,0.0]},{"extensions":{"S8S_v3d_node":{"hidden":false,"hidpiCompositing":false}},"name":"level_1_furniture_v0:transform2","rotation":[0.0,0.0,0.0,1.0],"scale":[1.0,1.0,1.0],"translation":[0.0,0.0,0.0]},{"extensions":{"S8S_v3d_node":{"hidden":false,"hidpiCompositing":false}},"name":"level_1_furniture_v0:transform3","rotation":[0.0,0.0,0.0,1.0],"scale":[1.0,1.0,1.0],"translation":[0.0,0.0,0.0]},{"extensions":{"S8S_v3d_node":{"hidden":false,"hidpiCompositing":false}},"name":"level_1_furniture_v0:transform4","rotation":[0.0,0.0,0.0,1.0],"scale":[1.0,1.0,1.0],"translation":[0.0,0.0,0.0]},{"extensions":{"S8S_v3d_node":{"hidden":false,"hidpiCompositing":false}},"name":"level_1_furniture_v0:transform5","rotation":[0.0,0.0,0.0,1.0],"scale":[1.0,1.0,1.0],"translation":[0.0,0.0,0.0]},{"extensions":{"S8S_v3d_node":{"hidden":false,"hidpiCompositing":false}},"name":"level_1_furniture_v5:transform1","rotation":[0.0,0.0,0.0,1.0],"scale":[1.0,1.0,1.0],"translation":[0.0,0.0,0.0]},{"extensions":{"S8S_v3d_node":{"hidden":false,"hidpiCompositing":false}},"name":"level_1_furniture_v5:transform3","rotation":[0.0,0.0,0.0,1.0],"scale":[1.0,1.0,1.0],"translation":[0.0,0.0,0.0]},{"extensions":{"S8S_v3d_node":{"hidden":false,"hidpiCompositing":false}},"name":"level_1_furniture_v5:transform4","rotation":[0.0,0.0,0.0,1.0],"scale":[1.0,1.0,1.0],"translation":[0.0,0.0,0.0]},{"extensions":{"S8S_v3d_node":{"hidden":false,"hidpiCompositing":false}},"name":"level_1_furniture_v5:transform5","rotation":[0.0,0.0,0.0,1.0],"scale":[1.0,1.0,1.0],"translation":[0.0,0.0,0.0]},{"children":[15,16,17,18],"extensions":{"S8S_v3d_node":{"hidden":false,"hidpiCompositing":false}},"name":"ring:ring","rotation":[0.0,0.7071067811865475,0.0,0.7071067811865477],"scale":[0.5,0.5,0.5],"translation":[-5.3432431603385435,14.688115459965074,2.548650227751902]},{"extensions":{"S8S_v3d_node":{"frustumCulling":true,"groupNames":["ring:ring"],"hidden":false,"hidpiCompositing":false,"renderOrder":0,"useCastShadows":true,"useShadows":true}},"mesh":0,"name":"ring:pCone1","rotation":[-0.06701754597990366,-0.1355972014268992,0.8210411280712375,0.55046663251421],"scale":[0.29390543995875,0.29390543995874996,0.29390543995874996],"translation":[-0.2707686463228035,5.3643903848911485,0.7075824022670625]},{"extensions":{"S8S_v3d_node":{"frustumCulling":true,"groupNames":["ring:ring"],"hidden":false,"hidpiCompositing":false,"renderOrder":0,"useCastShadows":true,"useShadows":true}},"mesh":1,"name":"ring:feet_hands:hand_man:polySurface1","rotation":[0.0,-0.07484817709192478,0.0,0.9971949410150535],"scale":[1.1890912827259608,1.1890912827259608,1.1890912827259608],"translation":[12.351737177323884,3.3256036868660637,-30.12883653384779]},{"extensions":{"S8S_v3d_node":{"frustumCulling":true,"groupNames":["ring:ring"],"hidden":false,"hidpiCompositing":false,"renderOrder":0,"useCastShadows":true,"useShadows":true}},"mesh":2,"name":"ring:pTorus1","rotation":[0.16060889313409094,-0.02165257535539004,0.13184064156866376,0.9779335328423321],"scale":[0.2605887401608092,0.7647408507705676,0.26058874016080924],"translation":[-0.5948271291664926,5.30009545602468,0.6213261547763205]},{"extensions":{"S8S_v3d_node":{"frustumCulling":true,"groupNames":["ring:ring"],"hidden":false,"hidpiCompositing":false,"renderOrder":0,"useCastShadows":true,"useShadows":true}},"mesh":3,"name":"ring:pCylinder25","rotation":[0.0,0.0,0.0,1.0],"scale":[1.5786752948254568,0.1,1.5786752948254568],"translation":[0.018218051501058152,-0.003769539274385836,-0.020714000681101297]},{"camera":0,"children":[20],"extensions":{"S8S_v3d_node":{"hidden":true,"hidpiCompositing":false}},"name":"persp","rotation":[0.025280407314168085,-0.9747058849328805,-0.159614209970608,-0.15437824606692158],"scale":[1.0,1.0,0.9999999999999999],"translation":[-2.18783384143398,23.369640403622068,-15.582905502031704]},{"extensions":{"S8S_v3d_lights":{"light":0}},"name":"__DEFAULT_LIGHT__","rotation":[-0.13052619222005157,-0.0,-0.0,0.9914448613738104],"translation":[-2.18783384143398,23.369640403622068,-15.582905502031704]}],"scene":0,"scenes":[{"extensions":{"S8S_v3d_scene":{"aaMethod":"AUTO","iblEnvironmentMode":"PMREM","physicallyCorrectLights":true,"shadowMap":{"esmDistanceScale":2.5,"renderReverseSided":false,"renderSingleSided":true,"type":"PCFPOISSON"},"unitsScaleFactor":1.0,"useHDR":false,"worldMaterial":4}},"extras":{"animFrameRate":24.0,"coordSystem":"Y_UP_RIGHT"},"name":"Scene","nodes":[0,1,2,3,4,5,6,7,8,9,10,11,12,13,14,19]}]}