{"accessors":[{"bufferView":0,"componentType":5123,"count":804,"max":[263],"min":[0],"type":"SCALAR"},{"bufferView":1,"componentType":5126,"count":264,"max":[2.5,0.04847351461648941,5.0],"min":[-2.5,-0.85996013879776,-5.0],"type":"VEC3"},{"bufferView":2,"componentType":5126,"count":264,"max":[0.998429536819458,0.9999983906745911,0.9982476830482483],"min":[-0.998429536819458,-1.0,-0.9982476830482483],"type":"VEC3"},{"bufferView":3,"componentType":5126,"count":264,"max":[0.875,1.0],"min":[0.125,0.0],"type":"VEC2"},{"bufferView":4,"componentType":5123,"count":468,"max":[140],"min":[0],"type":"SCALAR"},{"bufferView":5,"componentType":5126,"count":141,"max":[0.5,0.5000001788139343,5.706099510192871],"min":[-0.5,-0.5,-0.5],"type":"VEC3"},{"bufferView":6,"componentType":5126,"count":141,"max":[0.9999992251396179,0.9998658895492554,0.9998894333839417],"min":[-0.9999992847442627,-0.9999971985816956,-0.9998877644538879],"type":"VEC3"},{"bufferView":7,"componentType":5126,"count":141,"max":[0.875,1.0000000000001137],"min":[0.125,0.0],"type":"VEC2"},{"bufferView":8,"componentType":5123,"count":2076,"max":[445],"min":[0],"type":"SCALAR"},{"bufferView":9,"componentType":5126,"count":446,"max":[2.5,1.416215181350708,4.5],"min":[-2.5,0.8162152171134949,-4.5],"type":"VEC3"},{"bufferView":10,"componentType":5126,"count":446,"max":[0.9999733567237854,1.0,0.9999733567237854],"min":[-0.9999735951423645,-1.0,-0.9999731779098511],"type":"VEC3"},{"bufferView":11,"componentType":5126,"count":446,"max":[0.873968243598938,1.0],"min":[0.125,0.0],"type":"VEC2"},{"bufferView":12,"componentType":5123,"count":912,"max":[249],"min":[0],"type":"SCALAR"},{"bufferView":13,"componentType":5126,"count":250,"max":[2.5,0.800000011920929,4.5],"min":[-2.5,0.0,-4.5],"type":"VEC3"},{"bufferView":14,"componentType":5126,"count":250,"max":[0.9999732375144958,1.0,0.9999732971191406],"min":[-0.9999736547470093,-1.0,-0.9999729990959167],"type":"VEC3"},{"bufferView":15,"componentType":5126,"count":250,"max":[0.873968243598938,1.0],"min":[0.1261110007762909,0.0011109709739685059],"type":"VEC2"}],"asset":{"copyright":null,"generator":"Soft8Soft Verge3D for Maya plug-in","version":"2.0"},"bufferViews":[{"buffer":0,"byteLength":1608,"byteOffset":0,"target":34963},{"buffer":0,"byteLength":3168,"byteOffset":1608,"target":34962},{"buffer":0,"byteLength":3168,"byteOffset":4776,"target":34962},{"buffer":0,"byteLength":2112,"byteOffset":7944,"target":34962},{"buffer":0,"byteLength":936,"byteOffset":10056,"target":34963},{"buffer":0,"byteLength":1692,"byteOffset":10992,"target":34962},{"buffer":0,"byteLength":1692,"byteOffset":12684,"target":34962},{"buffer":0,"byteLength":1128,"byteOffset":14376,"target":34962},{"buffer":0,"byteLength":4152,"byteOffset":15504,"target":34963},{"buffer":0,"byteLength":5352,"byteOffset":19656,"target":34962},{"buffer":0,"byteLength":5352,"byteOffset":25008,"target":34962},{"buffer":0,"byteLength":3568,"byteOffset":30360,"target":34962},{"buffer":0,"byteLength":1824,"byteOffset":33928,"target":34963},{"buffer":0,"byteLength":3000,"byteOffset":35752,"target":34962},{"buffer":0,"byteLength":3000,"byteOffset":38752,"target":34962},{"buffer":0,"byteLength":2000,"byteOffset":41752,"target":34962}],"buffers":[{"byteLength":43752,"uri":"chaise-v1.bin"}],"cameras":[{"extensions":{"S8S_v3d_camera":{"controls":"ORBIT","enablePan":true,"moveSpeed":1.0,"orbitMaxDistance":1000.0,"orbitMaxPolarAngle":3.141592653589793,"orbitMaxZoom":100.0,"orbitMinDistance":0.0,"orbitMinPolarAngle":0.0,"orbitMinZoom":0.009999999776482582,"orbitTarget":[0.19196326198451885,30.51136513786477,-5.345087882055974],"rotateSpeed":1.0,"viewportFitInitialAspect":1.5,"viewportFitType":"HORIZONTAL"}},"name":"perspShape","perspective":{"aspectRatio":1.5,"yfov":0.6605947096585076,"zfar":10000.0,"znear":0.1},"type":"perspective"}],"extensions":{"S8S_v3d_lights":{"lights":[{"color":[1,1,1],"intensity":2.5,"name":"__DEFAULT__","profile":"maya","type":"directional"}]}},"extensionsUsed":["S8S_v3d_materials","S8S_v3d_lights","S8S_v3d_camera","S8S_v3d_mesh","S8S_v3d_node","S8S_v3d_scene"],"materials":[{"extensions":{"S8S_v3d_materials":{"gtaoVisible":true,"nodeGraph":{"edges":[{"fromNode":1,"fromOutput":0,"toInput":0,"toNode":0}],"nodes":[{"inputs":[[0.0,0.0,0.0,1],[0,0,0,0],[0,0,0]],"is_active_output":true,"name":"lambert7SG","outputs":[],"type":"SHADING_ENGINE_MY"},{"inputs":[[0.3921000063419342,0.8626999855041504,0.7843000292778015],[0.0,0.0,0.0],[0.0,0.0,0.0],1.0,0.800000011920929,[1.0,1.0,1.0],0.5,[0.0,0.0,0.0],0.30000001192092896,[0.3921000063419342,0.8626999855041504,0.7843000292778015],0.699999988079071,0.0,[0.0,0.0,0.0]],"name":"blue_blinn","outputs":[[0.0,0.0,0.0,0]],"type":"BLINN_MY"}]},"profile":"maya"}},"name":"blue_blinn"},{"extensions":{"S8S_v3d_materials":{"gtaoVisible":true,"nodeGraph":{"edges":[{"fromNode":1,"fromOutput":0,"toInput":0,"toNode":0}],"nodes":[{"inputs":[[0.0,0.0,0.0,1],[0,0,0,0],[0,0,0]],"is_active_output":true,"name":"blinn2SG","outputs":[],"type":"SHADING_ENGINE_MY"},{"inputs":[[0.9606999754905701,0.4900999963283539,0.5098000168800354],[0.0,0.0,0.0],[0.0,0.0,0.0],1.0,0.800000011920929,[1.0,1.0,1.0],0.5,[0.0,0.0,0.0],0.30000001192092896,[0.5,0.5,0.5],0.699999988079071,0.0,[0.0,0.0,0.0]],"name":"pink_blinn","outputs":[[0.0,0.0,0.0,0]],"type":"BLINN_MY"}]},"profile":"maya"}},"name":"pink_blinn"},{"extensions":{"S8S_v3d_materials":{"nodeGraph":{"edges":[{"fromNode":0,"fromOutput":0,"toInput":0,"toNode":1}],"nodes":[{"inputs":[[0.10653923276464054,0.10653923276464054,0.10653923276464054],[0,0,0],[0,0,0],[0,0,0],[0,0,0],[0,0,0]],"name":"aiRaySwitchColor","outputs":[[0,0,0],0],"type":"RAY_SWITCH_AR"},{"inputs":[[0,0,0],1],"is_active_output":true,"name":"aiSkyDomeLightShapeColor","outputs":[],"type":"SKYDOME_LIGHT_AR"}]},"profile":"maya"}},"name":"Verge3D_Environment"}],"meshes":[{"extensions":{"S8S_v3d_mesh":{}},"name":"chaise:polySurfaceShape9","primitives":[{"attributes":{"NORMAL":2,"POSITION":1,"TEXCOORD_0":3},"indices":0,"material":0,"mode":4}]},{"extensions":{"S8S_v3d_mesh":{}},"name":"chaise:pCubeShape26","primitives":[{"attributes":{"NORMAL":6,"POSITION":5,"TEXCOORD_0":7},"indices":4,"material":1,"mode":4}]},{"extensions":{"S8S_v3d_mesh":{}},"name":"chaise:polySurfaceShape7","primitives":[{"attributes":{"NORMAL":10,"POSITION":9,"TEXCOORD_0":11},"indices":8,"material":1,"mode":4}]},{"extensions":{"S8S_v3d_mesh":{}},"name":"chaise:polySurfaceShape8","primitives":[{"attributes":{"NORMAL":14,"POSITION":13,"TEXCOORD_0":15},"indices":12,"material":1,"mode":4}]}],"nodes":[{"extensions":{"S8S_v3d_node":{"hidden":false,"hidpiCompositing":false}},"name":"transform1","rotation":[0.0,0.0,0.0,1.0],"scale":[1.0,1.0,1.0],"translation":[0.0,0.0,0.0]},{"extensions":{"S8S_v3d_node":{"hidden":false,"hidpiCompositing":false}},"name":"transform2","rotation":[0.0,0.0,0.0,1.0],"scale":[1.0,1.0,1.0],"translation":[0.0,0.0,0.0]},{"extensions":{"S8S_v3d_node":{"hidden":false,"hidpiCompositing":false}},"name":"transform3","rotation":[0.0,0.0,0.0,1.0],"scale":[1.0,1.0,1.0],"translation":[0.0,0.0,0.0]},{"extensions":{"S8S_v3d_node":{"hidden":false,"hidpiCompositing":false}},"name":"transform4","rotation":[0.0,0.0,0.0,1.0],"scale":[1.0,1.0,1.0],"translation":[0.0,0.0,0.0]},{"extensions":{"S8S_v3d_node":{"hidden":false,"hidpiCompositing":false}},"name":"transform5","rotation":[0.0,0.0,0.0,1.0],"scale":[1.0,1.0,1.0],"translation":[0.0,0.0,0.0]},{"extensions":{"S8S_v3d_node":{"hidden":false,"hidpiCompositing":false}},"name":"level_1_furniture_v0:transform1","rotation":[0.0,0.0,0.0,1.0],"scale":[1.0,1.0,1.0],"translation":[0.0,0.0,0.0]},{"extensions":{"S8S_v3d_node":{"hidden":false,"hidpiCompositing":false}},"name":"level_1_furniture_v0:transform2","rotation":[0.0,0.0,0.0,1.0],"scale":[1.0,1.0,1.0],"translation":[0.0,0.0,0.0]},{"extensions":{"S8S_v3d_node":{"hidden":false,"hidpiCompositing":false}},"name":"level_1_furniture_v0:transform3","rotation":[0.0,0.0,0.0,1.0],"scale":[1.0,1.0,1.0],"translation":[0.0,0.0,0.0]},{"extensions":{"S8S_v3d_node":{"hidden":false,"hidpiCompositing":false}},"name":"level_1_furniture_v0:transform4","rotation":[0.0,0.0,0.0,1.0],"scale":[1.0,1.0,1.0],"translation":[0.0,0.0,0.0]},{"extensions":{"S8S_v3d_node":{"hidden":false,"hidpiCompositing":false}},"name":"level_1_furniture_v0:transform5","rotation":[0.0,0.0,0.0,1.0],"scale":[1.0,1.0,1.0],"translation":[0.0,0.0,0.0]},{"extensions":{"S8S_v3d_node":{"hidden":false,"hidpiCompositing":false}},"name":"level_1_furniture_v5:transform1","rotation":[0.0,0.0,0.0,1.0],"scale":[1.0,1.0,1.0],"translation":[0.0,0.0,0.0]},{"extensions":{"S8S_v3d_node":{"hidden":false,"hidpiCompositing":false}},"name":"level_1_furniture_v5:transform3","rotation":[0.0,0.0,0.0,1.0],"scale":[1.0,1.0,1.0],"translation":[0.0,0.0,0.0]},{"extensions":{"S8S_v3d_node":{"hidden":false,"hidpiCompositing":false}},"name":"level_1_furniture_v5:transform4","rotation":[0.0,0.0,0.0,1.0],"scale":[1.0,1.0,1.0],"translation":[0.0,0.0,0.0]},{"extensions":{"S8S_v3d_node":{"hidden":false,"hidpiCompositing":false}},"name":"level_1_furniture_v5:transform5","rotation":[0.0,0.0,0.0,1.0],"scale":[1.0,1.0,1.0],"translation":[0.0,0.0,0.0]},{"children":[15,16],"extensions":{"S8S_v3d_node":{"hidden":false,"hidpiCompositing":false}},"name":"chaise:chaise","rotation":[0.0,0.0,0.0,1.0],"scale":[0.6,0.6,0.6],"translation":[4.6005310778332875,15.148648281456827,-0.10325510290220374]},{"extensions":{"S8S_v3d_node":{"frustumCulling":true,"groupNames":["chaise:chaise"],"hidden":false,"hidpiCompositing":false,"renderOrder":0,"useCastShadows":true,"useShadows":true}},"mesh":0,"name":"chaise:polySurface9","rotation":[0.0,0.0,0.0,1.0],"scale":[1.0,1.0,1.0],"translation":[0.0,0.0,0.0]},{"children":[17,18,19],"extensions":{"S8S_v3d_node":{"groupNames":["chaise:chaise"],"hidden":false,"hidpiCompositing":false}},"name":"group3","rotation":[0.0,0.0,0.0,1.0],"scale":[1.0,1.0,1.0],"translation":[0.0,0.0,0.0]},{"extensions":{"S8S_v3d_node":{"frustumCulling":true,"groupNames":["group3","chaise:chaise"],"hidden":false,"hidpiCompositing":false,"renderOrder":0,"useCastShadows":true,"useShadows":true}},"mesh":1,"name":"chaise:pCube26","rotation":[0.0,0.0,0.0,1.0],"scale":[5.0,3.5000000000000004,0.95],"translation":[0.0,1.8048721311021687,-4.483440399935497]},{"extensions":{"S8S_v3d_node":{"frustumCulling":true,"groupNames":["group3","chaise:chaise"],"hidden":false,"hidpiCompositing":false,"renderOrder":0,"useCastShadows":true,"useShadows":true}},"mesh":2,"name":"chaise:polySurface7","rotation":[0.0,0.0,0.0,1.0],"scale":[1.0,1.0,1.0],"translation":[0.0,0.03741396268403463,0.49187576141872735]},{"extensions":{"S8S_v3d_node":{"frustumCulling":true,"groupNames":["group3","chaise:chaise"],"hidden":false,"hidpiCompositing":false,"renderOrder":0,"useCastShadows":true,"useShadows":true}},"mesh":3,"name":"chaise:polySurface8","rotation":[0.0,0.0,0.0,1.0],"scale":[1.0,1.0,1.0],"translation":[0.0,0.05024358019003117,0.49187576141872735]},{"camera":0,"children":[21],"extensions":{"S8S_v3d_node":{"hidden":true,"hidpiCompositing":false}},"name":"persp","rotation":[-0.19237473793468277,-0.5245358697576725,-0.12302877757873776,0.8201938803902439],"scale":[1.0,1.0,1.0],"translation":[-46.38843063081763,55.98314527115939,16.178075758549546]},{"extensions":{"S8S_v3d_lights":{"light":0}},"name":"__DEFAULT_LIGHT__","rotation":[-0.13052619222005157,-0.0,-0.0,0.9914448613738104],"translation":[-46.38843063081763,55.98314527115939,16.178075758549546]}],"scene":0,"scenes":[{"extensions":{"S8S_v3d_scene":{"aaMethod":"AUTO","iblEnvironmentMode":"PMREM","physicallyCorrectLights":true,"shadowMap":{"esmDistanceScale":2.5,"renderReverseSided":false,"renderSingleSided":true,"type":"PCFPOISSON"},"unitsScaleFactor":1.0,"useHDR":false,"worldMaterial":2}},"extras":{"animFrameRate":24.0,"coordSystem":"Y_UP_RIGHT"},"name":"Scene","nodes":[0,1,2,3,4,5,6,7,8,9,10,11,12,13,14,20]}]}