{"accessors":[{"bufferView":0,"componentType":5123,"count":480,"max":[143],"min":[0],"type":"SCALAR"},{"bufferView":1,"componentType":5126,"count":144,"max":[-21.131301879882812,8.941941261291504,1.831002950668335],"min":[-24.793306350708008,5.262423992156982,-1.8326250314712524],"type":"VEC3"},{"bufferView":2,"componentType":5126,"count":144,"max":[0.9939742088317871,0.999983012676239,0.9942533373832703],"min":[-0.9939920902252197,-0.9999929070472717,-0.9937172532081604],"type":"VEC3"},{"bufferView":3,"componentType":5126,"count":144,"max":[0.7120019793510437,0.9977579999249429],"min":[0.0019920000340789557,0.06716799736022949],"type":"VEC2"},{"bufferView":4,"componentType":5123,"count":192,"max":[52],"min":[0],"type":"SCALAR"},{"bufferView":5,"componentType":5126,"count":53,"max":[-20.962650299072266,8.870607376098633,-1.0121259689331055],"min":[-21.18888282775879,8.517210960388184,-1.3144160509109497],"type":"VEC3"},{"bufferView":6,"componentType":5126,"count":53,"max":[0.993421733379364,0.9971250295639038,0.9973265528678894],"min":[-0.9917936325073242,-0.9932936429977417,-0.998342752456665],"type":"VEC3"},{"bufferView":7,"componentType":5126,"count":53,"max":[0.6919289827346802,0.27733302116394043],"min":[0.6437199711799622,0.21543002128601074],"type":"VEC2"},{"bufferView":8,"componentType":5123,"count":318,"max":[134],"min":[0],"type":"SCALAR"},{"bufferView":9,"componentType":5126,"count":135,"max":[-20.7708797454834,13.425518989562988,-1.1101419925689697],"min":[-21.128183364868164,8.796797752380371,-1.6240730285644531],"type":"VEC3"},{"bufferView":10,"componentType":5126,"count":135,"max":[0.9648527503013611,1.0,0.964310348033905],"min":[-0.9650586247444153,-0.2779588997364044,-0.9643308520317078],"type":"VEC3"},{"bufferView":11,"componentType":5126,"count":135,"max":[0.7449949979782104,0.9003110006451607],"min":[0.7175769805908203,0.5427230000495911],"type":"VEC2"},{"bufferView":12,"componentType":5123,"count":720,"max":[173],"min":[0],"type":"SCALAR"},{"bufferView":13,"componentType":5126,"count":174,"max":[-22.016422271728516,7.8223161697387695,1.7321850061416626],"min":[-23.890365600585938,5.962409019470215,1.5032670497894287],"type":"VEC3"},{"bufferView":14,"componentType":5126,"count":174,"max":[1.1239369541726774e-06,0.12216006219387054,0.9925107359886169],"min":[-9.999997701015673e-07,-0.12216006219387054,-0.9925107359886169],"type":"VEC3"},{"bufferView":15,"componentType":5126,"count":174,"max":[0.6442229747772217,0.18032002449035645],"min":[0.516739010810852,0.05283701419830322],"type":"VEC2"},{"bufferView":16,"componentType":5123,"count":360,"max":[123],"min":[0],"type":"SCALAR"},{"bufferView":17,"componentType":5126,"count":124,"max":[-21.962303161621094,7.92481803894043,2.0700910091400146],"min":[-23.962303161621094,5.880046844482422,1.3398079872131348],"type":"VEC3"},{"bufferView":18,"componentType":5126,"count":124,"max":[1.0,0.9918203353881836,0.9921557903289795],"min":[-1.0,-0.9918204545974731,-0.12764303386211395],"type":"VEC3"},{"bufferView":19,"componentType":5126,"count":124,"max":[0.9779300093650818,0.9981380000244826],"min":[0.036306001245975494,0.49476999044418335],"type":"VEC2"},{"bufferView":20,"componentType":5123,"count":1200,"max":[242],"min":[0],"type":"SCALAR"},{"bufferView":21,"componentType":5126,"count":243,"max":[-20.871326446533203,8.576557159423828,-0.44271498918533325],"min":[-21.340272903442383,6.884620189666748,-1.442242980003357],"type":"VEC3"},{"bufferView":22,"componentType":5126,"count":243,"max":[0.9971847534179688,0.9923828840255737,0.999812662601471],"min":[-0.9952399730682373,-0.9977250099182129,-0.998075008392334],"type":"VEC3"},{"bufferView":23,"componentType":5126,"count":243,"max":[0.9748989939689636,0.390999972820282],"min":[0.7965490221977234,0.20070600509643555],"type":"VEC2"},{"bufferView":24,"componentType":5123,"count":396,"max":[115],"min":[0],"type":"SCALAR"},{"bufferView":25,"componentType":5126,"count":116,"max":[-21.746980667114258,4.456333160400391,1.210000991821289],"min":[-24.156658172607422,3.333076000213623,-1.210000991821289],"type":"VEC3"},{"bufferView":26,"componentType":5126,"count":116,"max":[0.9573366641998291,1.0,0.9526062607765198],"min":[-0.939681351184845,-1.0,-0.9526056051254272],"type":"VEC3"},{"bufferView":27,"componentType":5126,"count":116,"max":[0.9314450025558472,0.9976830000523478],"min":[0.691195011138916,0.03161901235580444],"type":"VEC2"},{"bufferView":28,"componentType":5123,"count":1632,"max":[639],"min":[0],"type":"SCALAR"},{"bufferView":29,"componentType":5126,"count":640,"max":[-20.64256477355957,4.038315773010254,2.4463839530944824],"min":[-25.464143753051758,1.7050420045852661,-2.4708070755004883],"type":"VEC3"},{"bufferView":30,"componentType":5126,"count":640,"max":[0.8568645715713501,0.9711816310882568,0.8502779006958008],"min":[-0.8389585018157959,-0.9620707631111145,-0.8661655187606812],"type":"VEC3"},{"bufferView":31,"componentType":5126,"count":640,"max":[0.6901270151138306,0.8770100027322769],"min":[0.3969300091266632,0.5523400008678436],"type":"VEC2"},{"bufferView":32,"componentType":5123,"count":1836,"max":[735],"min":[0],"type":"SCALAR"},{"bufferView":33,"componentType":5126,"count":736,"max":[-22.409759521484375,5.265615940093994,0.5504249930381775],"min":[-23.50591278076172,4.441946029663086,-0.5504239797592163],"type":"VEC3"},{"bufferView":34,"componentType":5126,"count":736,"max":[1.0,0.999118983745575,0.9957342147827148],"min":[-0.9829734563827515,-0.9992194771766663,-0.9957342147827148],"type":"VEC3"},{"bufferView":35,"componentType":5126,"count":736,"max":[0.6553570032119751,0.9858219996094704],"min":[0.5728949904441833,0.7851980030536652],"type":"VEC2"}],"asset":{"copyright":null,"generator":"Soft8Soft Verge3D for Maya plug-in","version":"2.0"},"bufferViews":[{"buffer":0,"byteLength":960,"byteOffset":0,"target":34963},{"buffer":0,"byteLength":1728,"byteOffset":960,"target":34962},{"buffer":0,"byteLength":1728,"byteOffset":2688,"target":34962},{"buffer":0,"byteLength":1152,"byteOffset":4416,"target":34962},{"buffer":0,"byteLength":384,"byteOffset":5568,"target":34963},{"buffer":0,"byteLength":636,"byteOffset":5952,"target":34962},{"buffer":0,"byteLength":636,"byteOffset":6588,"target":34962},{"buffer":0,"byteLength":424,"byteOffset":7224,"target":34962},{"buffer":0,"byteLength":636,"byteOffset":7648,"target":34963},{"buffer":0,"byteLength":1620,"byteOffset":8284,"target":34962},{"buffer":0,"byteLength":1620,"byteOffset":9904,"target":34962},{"buffer":0,"byteLength":1080,"byteOffset":11524,"target":34962},{"buffer":0,"byteLength":1440,"byteOffset":12604,"target":34963},{"buffer":0,"byteLength":2088,"byteOffset":14044,"target":34962},{"buffer":0,"byteLength":2088,"byteOffset":16132,"target":34962},{"buffer":0,"byteLength":1392,"byteOffset":18220,"target":34962},{"buffer":0,"byteLength":720,"byteOffset":19612,"target":34963},{"buffer":0,"byteLength":1488,"byteOffset":20332,"target":34962},{"buffer":0,"byteLength":1488,"byteOffset":21820,"target":34962},{"buffer":0,"byteLength":992,"byteOffset":23308,"target":34962},{"buffer":0,"byteLength":2400,"byteOffset":24300,"target":34963},{"buffer":0,"byteLength":2916,"byteOffset":26700,"target":34962},{"buffer":0,"byteLength":2916,"byteOffset":29616,"target":34962},{"buffer":0,"byteLength":1944,"byteOffset":32532,"target":34962},{"buffer":0,"byteLength":792,"byteOffset":34476,"target":34963},{"buffer":0,"byteLength":1392,"byteOffset":35268,"target":34962},{"buffer":0,"byteLength":1392,"byteOffset":36660,"target":34962},{"buffer":0,"byteLength":928,"byteOffset":38052,"target":34962},{"buffer":0,"byteLength":3264,"byteOffset":38980,"target":34963},{"buffer":0,"byteLength":7680,"byteOffset":42244,"target":34962},{"buffer":0,"byteLength":7680,"byteOffset":49924,"target":34962},{"buffer":0,"byteLength":5120,"byteOffset":57604,"target":34962},{"buffer":0,"byteLength":3672,"byteOffset":62724,"target":34963},{"buffer":0,"byteLength":8832,"byteOffset":66396,"target":34962},{"buffer":0,"byteLength":8832,"byteOffset":75228,"target":34962},{"buffer":0,"byteLength":5888,"byteOffset":84060,"target":34962}],"buffers":[{"byteLength":89948,"uri":"robot.bin"}],"cameras":[{"extensions":{"S8S_v3d_camera":{"controls":"ORBIT","enablePan":true,"moveSpeed":1.0,"orbitMaxDistance":1000.0,"orbitMaxPolarAngle":3.141592653589793,"orbitMaxZoom":100.0,"orbitMinDistance":0.0,"orbitMinPolarAngle":0.0,"orbitMinZoom":0.009999999776482582,"orbitTarget":[1.1664443080218518,10.967590343759916,-9.392137065841808],"rotateSpeed":1.0,"viewportFitInitialAspect":1.5,"viewportFitType":"HORIZONTAL"}},"name":"perspShape","perspective":{"aspectRatio":1.5,"yfov":0.6605947096585075,"zfar":10000.0,"znear":0.1},"type":"perspective"}],"extensions":{"S8S_v3d_lights":{"lights":[{"color":[1,1,1],"intensity":2.5,"name":"__DEFAULT__","profile":"maya","type":"directional"}]}},"extensionsUsed":["S8S_v3d_materials","S8S_v3d_lights","S8S_v3d_camera","S8S_v3d_mesh","S8S_v3d_node","S8S_v3d_scene"],"materials":[{"extensions":{"S8S_v3d_materials":{"gtaoVisible":true,"nodeGraph":{"edges":[{"fromNode":1,"fromOutput":0,"toInput":0,"toNode":0}],"nodes":[{"inputs":[[0.0,0.0,0.0,1],[0,0,0,0],[0,0,0]],"is_active_output":true,"name":"blinn2SG","outputs":[],"type":"SHADING_ENGINE_MY"},{"inputs":[[0.9606999754905701,0.4900999963283539,0.5098000168800354],[0.0,0.0,0.0],[0.0,0.0,0.0],1.0,0.800000011920929,[1.0,1.0,1.0],0.5,[0.0,0.0,0.0],0.30000001192092896,[0.5,0.5,0.5],0.699999988079071,0.0,[0.0,0.0,0.0]],"name":"pink_blinn","outputs":[[0.0,0.0,0.0,0]],"type":"BLINN_MY"}]},"profile":"maya"}},"name":"pink_blinn"},{"extensions":{"S8S_v3d_materials":{"nodeGraph":{"edges":[{"fromNode":0,"fromOutput":0,"toInput":0,"toNode":1}],"nodes":[{"inputs":[[0.10653923276464054,0.10653923276464054,0.10653923276464054],[0,0,0],[0,0,0],[0,0,0],[0,0,0],[0,0,0]],"name":"aiRaySwitchColor","outputs":[[0,0,0],0],"type":"RAY_SWITCH_AR"},{"inputs":[[0,0,0],1],"is_active_output":true,"name":"aiSkyDomeLightShapeColor","outputs":[],"type":"SKYDOME_LIGHT_AR"}]},"profile":"maya"}},"name":"Verge3D_Environment"}],"meshes":[{"extensions":{"S8S_v3d_mesh":{}},"name":"level2_allobjects:_pCube26polySurface22Shape","primitives":[{"attributes":{"NORMAL":2,"POSITION":1,"TEXCOORD_0":3},"indices":0,"material":0,"mode":4}]},{"extensions":{"S8S_v3d_mesh":{}},"name":"level2_allobjects:_pCube26polySurface18Shape","primitives":[{"attributes":{"NORMAL":6,"POSITION":5,"TEXCOORD_0":7},"indices":4,"material":0,"mode":4}]},{"extensions":{"S8S_v3d_mesh":{}},"name":"level2_allobjects:_pCube26polySurface17Shape","primitives":[{"attributes":{"NORMAL":10,"POSITION":9,"TEXCOORD_0":11},"indices":8,"material":0,"mode":4}]},{"extensions":{"S8S_v3d_mesh":{}},"name":"level2_allobjects:_pCube26pDisc1Shape","primitives":[{"attributes":{"NORMAL":14,"POSITION":13,"TEXCOORD_0":15},"indices":12,"material":0,"mode":4}]},{"extensions":{"S8S_v3d_mesh":{}},"name":"level2_allobjects:_polySurface14pCube26Shape","primitives":[{"attributes":{"NORMAL":18,"POSITION":17,"TEXCOORD_0":19},"indices":16,"material":0,"mode":4}]},{"extensions":{"S8S_v3d_mesh":{}},"name":"level2_allobjects:_pCube26polySurface19Shape","primitives":[{"attributes":{"NORMAL":22,"POSITION":21,"TEXCOORD_0":23},"indices":20,"material":0,"mode":4}]},{"extensions":{"S8S_v3d_mesh":{}},"name":"level2_allobjects:_pCube26polySurface25Shape","primitives":[{"attributes":{"NORMAL":26,"POSITION":25,"TEXCOORD_0":27},"indices":24,"material":0,"mode":4}]},{"extensions":{"S8S_v3d_mesh":{}},"name":"level2_allobjects:_pCube26polySurface28polySurface27polySurface26polySurface23Shape","primitives":[{"attributes":{"NORMAL":30,"POSITION":29,"TEXCOORD_0":31},"indices":28,"material":0,"mode":4}]},{"extensions":{"S8S_v3d_mesh":{}},"name":"level2_allobjects:_pCube26polySurface24Shape","primitives":[{"attributes":{"NORMAL":34,"POSITION":33,"TEXCOORD_0":35},"indices":32,"material":0,"mode":4}]}],"nodes":[{"children":[1,2,3,4,5,6,7,8,9],"extensions":{"S8S_v3d_node":{"hidden":false,"hidpiCompositing":false}},"name":"level2_allobjects:robot","rotation":[0.0,0.0,0.0,1.0],"scale":[0.42005426430193116,0.42005426430193116,0.42005426430193116],"translation":[11.617170484383045,21.698038109517064,-11.727810595177349]},{"extensions":{"S8S_v3d_node":{"frustumCulling":true,"groupNames":["level2_allobjects:robot"],"hidden":false,"hidpiCompositing":false,"renderOrder":0,"useCastShadows":true,"useShadows":true}},"mesh":0,"name":"level2_allobjects:_pCube26polySurface22","rotation":[0.0,0.0,0.0,1.0],"scale":[1.0,1.0,1.0],"translation":[0.0,0.0,0.0]},{"extensions":{"S8S_v3d_node":{"frustumCulling":true,"groupNames":["level2_allobjects:robot"],"hidden":false,"hidpiCompositing":false,"renderOrder":0,"useCastShadows":true,"useShadows":true}},"mesh":1,"name":"level2_allobjects:_pCube26polySurface18","rotation":[0.0,0.0,0.0,1.0],"scale":[1.0,1.0,1.0],"translation":[0.0,0.0,0.0]},{"extensions":{"S8S_v3d_node":{"frustumCulling":true,"groupNames":["level2_allobjects:robot"],"hidden":false,"hidpiCompositing":false,"renderOrder":0,"useCastShadows":true,"useShadows":true}},"mesh":2,"name":"level2_allobjects:_pCube26polySurface17","rotation":[0.0,0.0,0.0,1.0],"scale":[1.0,1.0,1.0],"translation":[0.0,0.0,0.0]},{"extensions":{"S8S_v3d_node":{"frustumCulling":true,"groupNames":["level2_allobjects:robot"],"hidden":false,"hidpiCompositing":false,"renderOrder":0,"useCastShadows":true,"useShadows":true}},"mesh":3,"name":"level2_allobjects:_pCube26pDisc1","rotation":[0.0,0.0,0.0,1.0],"scale":[1.0,1.0,1.0],"translation":[0.0,0.0,0.0]},{"extensions":{"S8S_v3d_node":{"frustumCulling":true,"groupNames":["level2_allobjects:robot"],"hidden":false,"hidpiCompositing":false,"renderOrder":0,"useCastShadows":true,"useShadows":true}},"mesh":4,"name":"level2_allobjects:_polySurface14pCube26","rotation":[0.0,0.0,0.0,1.0],"scale":[1.0,1.0,1.0],"translation":[0.0,0.0,0.0]},{"extensions":{"S8S_v3d_node":{"frustumCulling":true,"groupNames":["level2_allobjects:robot"],"hidden":false,"hidpiCompositing":false,"renderOrder":0,"useCastShadows":true,"useShadows":true}},"mesh":5,"name":"level2_allobjects:_pCube26polySurface19","rotation":[0.0,0.0,0.0,1.0],"scale":[1.0,1.0,1.0],"translation":[0.0,0.0,0.0]},{"extensions":{"S8S_v3d_node":{"frustumCulling":true,"groupNames":["level2_allobjects:robot"],"hidden":false,"hidpiCompositing":false,"renderOrder":0,"useCastShadows":true,"useShadows":true}},"mesh":6,"name":"level2_allobjects:_pCube26polySurface25","rotation":[0.0,0.0,0.0,1.0],"scale":[1.0,1.0,1.0],"translation":[0.0,0.0,0.0]},{"extensions":{"S8S_v3d_node":{"frustumCulling":true,"groupNames":["level2_allobjects:robot"],"hidden":false,"hidpiCompositing":false,"renderOrder":0,"useCastShadows":true,"useShadows":true}},"mesh":7,"name":"level2_allobjects:_pCube26polySurface28polySurface27polySurface26polySurface23","rotation":[0.0,0.0,0.0,1.0],"scale":[1.0,1.0,1.0],"translation":[0.0,0.0,0.0]},{"extensions":{"S8S_v3d_node":{"frustumCulling":true,"groupNames":["level2_allobjects:robot"],"hidden":false,"hidpiCompositing":false,"renderOrder":0,"useCastShadows":true,"useShadows":true}},"mesh":8,"name":"level2_allobjects:_pCube26polySurface24","rotation":[0.0,0.0,0.0,1.0],"scale":[1.0,1.0,1.0],"translation":[0.0,0.0,0.0]},{"camera":0,"children":[11],"extensions":{"S8S_v3d_node":{"hidden":true,"hidpiCompositing":false}},"name":"persp","rotation":[-0.2230243961057575,0.37136585056309357,0.09237972960707397,0.8965564730316413],"scale":[1.0,1.0,1.0],"translation":[70.7121829899309,63.126894355191766,60.15360161606729]},{"extensions":{"S8S_v3d_lights":{"light":0}},"name":"__DEFAULT_LIGHT__","rotation":[-0.13052619222005157,-0.0,-0.0,0.9914448613738104],"translation":[70.7121829899309,63.126894355191766,60.15360161606729]}],"scene":0,"scenes":[{"extensions":{"S8S_v3d_scene":{"aaMethod":"AUTO","iblEnvironmentMode":"PMREM","physicallyCorrectLights":true,"shadowMap":{"esmDistanceScale":2.5,"renderReverseSided":false,"renderSingleSided":true,"type":"PCFPOISSON"},"unitsScaleFactor":1.0,"useHDR":false,"worldMaterial":1}},"extras":{"animFrameRate":24.0,"coordSystem":"Y_UP_RIGHT"},"name":"Scene","nodes":[0,10]}]}