{"accessors":[{"bufferView":0,"componentType":5123,"count":246,"max":[127],"min":[0],"type":"SCALAR"},{"bufferView":1,"componentType":5126,"count":128,"max":[3.542555093765259,52.95894241333008,0.9712839722633362],"min":[-3.539828062057495,0.01075700018554926,-0.9253829717636108],"type":"VEC3"},{"bufferView":2,"componentType":5126,"count":128,"max":[1.0,1.0,1.0],"min":[-1.0,-1.0,-1.0],"type":"VEC3"},{"bufferView":3,"componentType":5126,"count":128,"max":[0.9842870235443115,0.9777589999139309],"min":[0,0],"type":"VEC2"},{"bufferView":4,"componentType":5123,"count":396,"max":[174],"min":[0],"type":"SCALAR"},{"bufferView":5,"componentType":5126,"count":175,"max":[14.101465225219727,17.198137283325195,5.753030776977539],"min":[-16.067241668701172,0.2360920011997223,-9.017722129821777],"type":"VEC3"},{"bufferView":6,"componentType":5126,"count":175,"max":[0.9960429072380066,0.9964413642883301,0.9996651411056519],"min":[-0.922269880771637,-0.9963708519935608,-0.9985522627830505],"type":"VEC3"},{"bufferView":7,"componentType":5126,"count":175,"max":[0.9773010015487671,0.9496279992163181],"min":[0.029896000400185585,0.0182340145111084],"type":"VEC2"}],"asset":{"copyright":null,"generator":"Soft8Soft Verge3D for Maya plug-in","version":"2.0"},"bufferViews":[{"buffer":0,"byteLength":492,"byteOffset":0,"target":34963},{"buffer":0,"byteLength":1536,"byteOffset":492,"target":34962},{"buffer":0,"byteLength":1536,"byteOffset":2028,"target":34962},{"buffer":0,"byteLength":1024,"byteOffset":3564,"target":34962},{"buffer":0,"byteLength":792,"byteOffset":4588,"target":34963},{"buffer":0,"byteLength":2100,"byteOffset":5380,"target":34962},{"buffer":0,"byteLength":2100,"byteOffset":7480,"target":34962},{"buffer":0,"byteLength":1400,"byteOffset":9580,"target":34962}],"buffers":[{"byteLength":10980,"uri":"warrior.bin"}],"cameras":[{"extensions":{"S8S_v3d_camera":{"controls":"ORBIT","enablePan":true,"moveSpeed":1.0,"orbitMaxDistance":1000.0,"orbitMaxPolarAngle":3.141592653589793,"orbitMaxZoom":100.0,"orbitMinDistance":0.0,"orbitMinPolarAngle":0.0,"orbitMinZoom":0.009999999776482582,"orbitTarget":[2.842170943040401e-14,2.842170943040401e-14,2.842170943040401e-14],"rotateSpeed":1.0,"viewportFitInitialAspect":1.5,"viewportFitType":"HORIZONTAL"}},"name":"perspShape","perspective":{"aspectRatio":1.5,"yfov":0.6605947096585075,"zfar":10000.0,"znear":0.1},"type":"perspective"}],"extensions":{"S8S_v3d_lights":{"lights":[{"color":[1,1,1],"intensity":2.5,"name":"__DEFAULT__","profile":"maya","type":"directional"}]}},"extensionsUsed":["S8S_v3d_materials","S8S_v3d_lights","S8S_v3d_camera","S8S_v3d_mesh","S8S_v3d_node","S8S_v3d_scene"],"materials":[{"extensions":{"S8S_v3d_materials":{"gtaoVisible":true,"nodeGraph":{"edges":[{"fromNode":1,"fromOutput":0,"toInput":0,"toNode":0}],"nodes":[{"inputs":[[0.0,0.0,0.0,1],[0,0,0,0],[0,0,0]],"is_active_output":true,"name":"phongE1SG","outputs":[],"type":"SHADING_ENGINE_MY"},{"inputs":[[0.33329999446868896,0.11760000139474869,0.7450000047683716],[0.0,0.0,0.0],[0.0,0.0,0.0],1.0,0.800000011920929,[1.0,1.0,1.0],0.5,[0.0,0.0,0.0],0.5,0.5,[0.5,0.5,0.5],0.0,[0.0,0.0,0.0]],"name":"purple_phongE","outputs":[[0.0,0.0,0.0,0]],"type":"PHONG_E_MY"}]},"profile":"maya"}},"name":"purple_phongE"},{"extensions":{"S8S_v3d_materials":{"nodeGraph":{"edges":[{"fromNode":0,"fromOutput":0,"toInput":0,"toNode":1}],"nodes":[{"inputs":[[0.10653923276464054,0.10653923276464054,0.10653923276464054],[0,0,0],[0,0,0],[0,0,0],[0,0,0],[0,0,0]],"name":"aiRaySwitchColor","outputs":[[0,0,0],0],"type":"RAY_SWITCH_AR"},{"inputs":[[0,0,0],1],"is_active_output":true,"name":"aiSkyDomeLightShapeColor","outputs":[],"type":"SKYDOME_LIGHT_AR"}]},"profile":"maya"}},"name":"Verge3D_Environment"}],"meshes":[{"extensions":{"S8S_v3d_mesh":{}},"name":"level4_allobjects:Sword_in_the_Stone:pCube3Shape","primitives":[{"attributes":{"NORMAL":2,"POSITION":1,"TEXCOORD_0":3},"indices":0,"material":0,"mode":4}]},{"extensions":{"S8S_v3d_mesh":{}},"name":"level4_allobjects:Sword_in_the_Stone:polySurface1Shape","primitives":[{"attributes":{"NORMAL":6,"POSITION":5,"TEXCOORD_0":7},"indices":4,"material":0,"mode":4}]}],"nodes":[{"children":[1,2],"extensions":{"S8S_v3d_node":{"hidden":false,"hidpiCompositing":false}},"name":"level4_allobjects:sword_stone","rotation":[0.4999999999999987,0.49999999999999856,0.5000000000000013,0.5000000000000014],"scale":[0.1269327196383632,0.1269327196383632,0.1269327196383632],"translation":[-5.814227840361551,54.82769169701699,-17.765739577746952]},{"extensions":{"S8S_v3d_node":{"frustumCulling":true,"groupNames":["level4_allobjects:sword_stone"],"hidden":false,"hidpiCompositing":false,"renderOrder":0,"useCastShadows":true,"useShadows":true}},"mesh":0,"name":"level4_allobjects:Sword_in_the_Stone:pCube3","rotation":[0.0,0.0,0.0,1.0],"scale":[1.0,1.0,1.0],"translation":[0.0,0.0,0.0]},{"extensions":{"S8S_v3d_node":{"frustumCulling":true,"groupNames":["level4_allobjects:sword_stone"],"hidden":false,"hidpiCompositing":false,"renderOrder":0,"useCastShadows":true,"useShadows":true}},"mesh":1,"name":"level4_allobjects:Sword_in_the_Stone:polySurface1","rotation":[0.0,0.0,0.0,1.0],"scale":[1.0,1.0,1.0],"translation":[0.0,0.0,0.0]},{"camera":0,"children":[4],"extensions":{"S8S_v3d_node":{"hidden":true,"hidpiCompositing":false}},"name":"persp","rotation":[-0.2230243961057575,0.37136585056309357,0.09237972960707397,0.8965564730316413],"scale":[1.0,1.0,1.0],"translation":[207.20752149987283,155.40564112490483,207.207521499873]},{"extensions":{"S8S_v3d_lights":{"light":0}},"name":"__DEFAULT_LIGHT__","rotation":[-0.13052619222005157,-0.0,-0.0,0.9914448613738104],"translation":[207.20752149987283,155.40564112490483,207.207521499873]}],"scene":0,"scenes":[{"extensions":{"S8S_v3d_scene":{"aaMethod":"AUTO","iblEnvironmentMode":"PMREM","physicallyCorrectLights":true,"shadowMap":{"esmDistanceScale":2.5,"renderReverseSided":false,"renderSingleSided":true,"type":"PCFPOISSON"},"unitsScaleFactor":1.0,"useHDR":false,"worldMaterial":1}},"extras":{"animFrameRate":24.0,"coordSystem":"Y_UP_RIGHT"},"name":"Scene","nodes":[0,3]}]}