{"accessors":[{"bufferView":0,"componentType":5123,"count":65088,"max":[13314],"min":[0],"type":"SCALAR"},{"bufferView":1,"componentType":5126,"count":13315,"max":[129.76918029785156,149.245361328125,129.76919555664062],"min":[-129.7692108154297,1.3191815614700317,-129.7692108154297],"type":"VEC3"},{"bufferView":2,"componentType":5126,"count":13315,"max":[0.9987298846244812,1.0,0.9987298846244812],"min":[-0.9987298846244812,-1.0,-0.9987298846244812],"type":"VEC3"},{"bufferView":3,"componentType":5126,"count":13315,"max":[0.9905325174331665,0.6975329518318176],"min":[-0.009320946410298347,0.21455258131027222],"type":"VEC2"},{"bufferView":4,"componentType":5123,"count":11472,"max":[1913],"min":[0],"type":"SCALAR"},{"bufferView":5,"componentType":5126,"count":1914,"max":[123.79146575927734,165.75010681152344,123.7914810180664],"min":[-123.79150390625,1.8228001594543457,-123.79148864746094],"type":"VEC3"},{"bufferView":6,"componentType":5126,"count":1914,"max":[1.0,1.0,0.9937042593955994],"min":[-0.9999998807907104,-1.0,-0.9937042593955994],"type":"VEC3"},{"bufferView":7,"componentType":5126,"count":1914,"max":[0.0,1.0],"min":[0.0,1.0],"type":"VEC2"},{"bufferView":8,"componentType":5125,"count":481644,"max":[80273],"min":[0],"type":"SCALAR"},{"bufferView":9,"componentType":5126,"count":80274,"max":[130.22125244140625,91.58757019042969,128.13832092285156],"min":[-121.75395202636719,-52.33094787597656,-132.3070068359375],"type":"VEC3"},{"bufferView":10,"componentType":5126,"count":80274,"max":[0.9999977946281433,0.999995231628418,0.9998303651809692],"min":[-0.9999817609786987,-0.9999998211860657,-0.9999792575836182],"type":"VEC3"},{"bufferView":11,"componentType":5123,"count":4986,"max":[957],"min":[0],"type":"SCALAR"},{"bufferView":12,"componentType":5126,"count":958,"max":[101.46636962890625,232.84527587890625,100.00003814697266],"min":[-99.9999771118164,-100.0,-100.0],"type":"VEC3"},{"bufferView":13,"componentType":5126,"count":958,"max":[0.999889612197876,0.9973763227462769,0.9999990463256836],"min":[-1.0,-1.0,-1.0],"type":"VEC3"},{"bufferView":14,"componentType":5126,"count":958,"max":[1.000000238418579,1.0],"min":[0.0,0.06249988079071045],"type":"VEC2"}],"asset":{"copyright":null,"generator":"Soft8Soft Verge3D for Maya plug-in","version":"2.0"},"bufferViews":[{"buffer":0,"byteLength":130176,"byteOffset":0,"target":34963},{"buffer":0,"byteLength":159780,"byteOffset":130176,"target":34962},{"buffer":0,"byteLength":159780,"byteOffset":289956,"target":34962},{"buffer":0,"byteLength":106520,"byteOffset":449736,"target":34962},{"buffer":0,"byteLength":22944,"byteOffset":556256,"target":34963},{"buffer":0,"byteLength":22968,"byteOffset":579200,"target":34962},{"buffer":0,"byteLength":22968,"byteOffset":602168,"target":34962},{"buffer":0,"byteLength":15312,"byteOffset":625136,"target":34962},{"buffer":0,"byteLength":1926576,"byteOffset":640448,"target":34963},{"buffer":0,"byteLength":963288,"byteOffset":2567024,"target":34962},{"buffer":0,"byteLength":963288,"byteOffset":3530312,"target":34962},{"buffer":0,"byteLength":9972,"byteOffset":4493600,"target":34963},{"buffer":0,"byteLength":11496,"byteOffset":4503572,"target":34962},{"buffer":0,"byteLength":11496,"byteOffset":4515068,"target":34962},{"buffer":0,"byteLength":7664,"byteOffset":4526564,"target":34962}],"buffers":[{"byteLength":4534228,"uri":"cupcake.bin"}],"cameras":[{"extensions":{"S8S_v3d_camera":{"controls":"ORBIT","enablePan":true,"moveSpeed":1.0,"orbitMaxDistance":1000.0,"orbitMaxPolarAngle":3.141592653589793,"orbitMaxZoom":100.0,"orbitMinDistance":0.0,"orbitMinPolarAngle":0.0,"orbitMinZoom":0.009999999776482582,"orbitTarget":[-3.139414702923233,16.28350119261809,-9.073211191540338],"rotateSpeed":1.0,"viewportFitInitialAspect":1.5,"viewportFitType":"HORIZONTAL"}},"name":"perspShape","perspective":{"aspectRatio":1.5,"yfov":0.6605947096585075,"zfar":10000.0,"znear":0.1},"type":"perspective"}],"extensions":{"S8S_v3d_lights":{"lights":[{"color":[1,1,1],"intensity":2.5,"name":"__DEFAULT__","profile":"maya","type":"directional"}]}},"extensionsUsed":["S8S_v3d_materials","S8S_v3d_lights","S8S_v3d_camera","S8S_v3d_mesh","S8S_v3d_node","S8S_v3d_scene"],"materials":[{"extensions":{"S8S_v3d_materials":{"gtaoVisible":true,"nodeGraph":{"edges":[{"fromNode":1,"fromOutput":0,"toInput":0,"toNode":0}],"nodes":[{"inputs":[[0.0,0.0,0.0,1],[0,0,0,0],[0,0,0]],"is_active_output":true,"name":"phong1SG","outputs":[],"type":"SHADING_ENGINE_MY"},{"inputs":[[0.9803000092506409,0.7450000047683716,0.31369999051094055],[0.0,0.0,0.0],[0.0,0.0,0.0],1.0,0.800000011920929,[1.0,1.0,1.0],0.5,[0.0,0.0,0.0],20.0,[0.5,0.5,0.5],0.0,[0.0,0.0,0.0]],"name":"yellow_pong","outputs":[[0.0,0.0,0.0,0]],"type":"PHONG_MY"}]},"profile":"maya"}},"name":"yellow_pong"},{"extensions":{"S8S_v3d_materials":{"nodeGraph":{"edges":[{"fromNode":0,"fromOutput":0,"toInput":0,"toNode":1}],"nodes":[{"inputs":[[0.10653923276464054,0.10653923276464054,0.10653923276464054],[0,0,0],[0,0,0],[0,0,0],[0,0,0],[0,0,0]],"name":"aiRaySwitchColor","outputs":[[0,0,0],0],"type":"RAY_SWITCH_AR"},{"inputs":[[0,0,0],1],"is_active_output":true,"name":"aiSkyDomeLightShapeColor","outputs":[],"type":"SKYDOME_LIGHT_AR"}]},"profile":"maya"}},"name":"Verge3D_Environment"}],"meshes":[{"extensions":{"S8S_v3d_mesh":{}},"name":"level3_allobjects:CircleFBXASC046002Shape","primitives":[{"attributes":{"NORMAL":2,"POSITION":1,"TEXCOORD_0":3},"indices":0,"material":0,"mode":4}]},{"extensions":{"S8S_v3d_mesh":{}},"name":"level3_allobjects:CircleFBXASC046003Shape","primitives":[{"attributes":{"NORMAL":6,"POSITION":5,"TEXCOORD_0":7},"indices":4,"material":0,"mode":4}]},{"extensions":{"S8S_v3d_mesh":{}},"name":"level3_allobjects:geo1FBXASC046002Shape","primitives":[{"attributes":{"NORMAL":10,"POSITION":9},"indices":8,"material":0,"mode":4}]},{"extensions":{"S8S_v3d_mesh":{}},"name":"level3_allobjects:SphereFBXASC046001Shape","primitives":[{"attributes":{"NORMAL":13,"POSITION":12,"TEXCOORD_0":14},"indices":11,"material":0,"mode":4}]}],"nodes":[{"children":[1,3,4],"extensions":{"S8S_v3d_node":{"hidden":false,"hidpiCompositing":false}},"name":"level3_allobjects:cupcake","rotation":[0.0,0.0,-0.7071067811865475,0.7071067811865477],"scale":[0.009619030190751448,0.009619030190751448,0.009619030190751448],"translation":[-10.585122015610533,46.15621465239854,-8.294984426138294]},{"children":[2],"extensions":{"S8S_v3d_node":{"frustumCulling":true,"groupNames":["level3_allobjects:cupcake"],"hidden":false,"hidpiCompositing":false,"renderOrder":0,"useCastShadows":true,"useShadows":true}},"mesh":0,"name":"level3_allobjects:CircleFBXASC046002","rotation":[0.0,0.5854762207661109,0.0,0.8106895798747089],"scale":[1.0,1.0,1.0],"translation":[0.0,0.0,-120.46308898925781]},{"extensions":{"S8S_v3d_node":{"frustumCulling":true,"groupNames":["level3_allobjects:cupcake"],"hidden":false,"hidpiCompositing":false,"renderOrder":0,"useCastShadows":true,"useShadows":true}},"mesh":1,"name":"level3_allobjects:CircleFBXASC046003","rotation":[0.0,0.0,0.0,1.0],"scale":[1.0,1.0,1.0],"translation":[1.52587890625e-05,0.0,0.0]},{"extensions":{"S8S_v3d_node":{"frustumCulling":true,"groupNames":["level3_allobjects:cupcake"],"hidden":false,"hidpiCompositing":false,"renderOrder":0,"useCastShadows":true,"useShadows":true}},"mesh":2,"name":"level3_allobjects:geo1FBXASC046002","rotation":[3.567752287798372e-08,0.326705940633938,-1.2332808745564065e-08,0.9451260383432954],"scale":[0.9999998211860658,1.0,0.9999998211860658],"translation":[2.846282720565796,209.6037139892578,-119.168212890625]},{"extensions":{"S8S_v3d_node":{"frustumCulling":true,"groupNames":["level3_allobjects:cupcake"],"hidden":false,"hidpiCompositing":false,"renderOrder":0,"useCastShadows":true,"useShadows":true}},"mesh":3,"name":"level3_allobjects:SphereFBXASC046001","rotation":[0.0,0.0,0.0,1.0],"scale":[0.3531900942325592,0.3531900942325592,0.3531900942325592],"translation":[4.001675605773926,308.84466552734375,-127.08678436279297]},{"camera":0,"children":[6],"extensions":{"S8S_v3d_node":{"hidden":true,"hidpiCompositing":false}},"name":"persp","rotation":[-0.2230243961057575,0.37136585056309357,0.09237972960707397,0.8965564730316413],"scale":[1.0,1.0,1.0],"translation":[116.90391140545368,106.31599577390091,110.97011491683669]},{"extensions":{"S8S_v3d_lights":{"light":0}},"name":"__DEFAULT_LIGHT__","rotation":[-0.13052619222005157,-0.0,-0.0,0.9914448613738104],"translation":[116.90391140545368,106.31599577390091,110.97011491683669]}],"scene":0,"scenes":[{"extensions":{"S8S_v3d_scene":{"aaMethod":"AUTO","iblEnvironmentMode":"PMREM","physicallyCorrectLights":true,"shadowMap":{"esmDistanceScale":2.5,"renderReverseSided":false,"renderSingleSided":true,"type":"PCFPOISSON"},"unitsScaleFactor":1.0,"useHDR":false,"worldMaterial":1}},"extras":{"animFrameRate":24.0,"coordSystem":"Y_UP_RIGHT"},"name":"Scene","nodes":[0,5]}]}