{"accessors":[{"bufferView":0,"componentType":5123,"count":144,"max":[42],"min":[0],"type":"SCALAR"},{"bufferView":1,"componentType":5126,"count":43,"max":[15.459559440612793,15.459559440612793,15.459559440612793],"min":[-15.459559440612793,-15.459559440612793,-15.459559440612793],"type":"VEC3"},{"bufferView":2,"componentType":5126,"count":43,"max":[1.0,1.0,1.0],"min":[-1.0,-1.0,-1.0],"type":"VEC3"},{"bufferView":3,"componentType":5126,"count":43,"max":[0.9999999403953552,1.0],"min":[0.0,0.0],"type":"VEC2"},{"bufferView":4,"componentType":5123,"count":2346,"max":[836],"min":[0],"type":"SCALAR"},{"bufferView":5,"componentType":5126,"count":837,"max":[54.39537811279297,113.1986083984375,314.32965087890625],"min":[-45.14205551147461,-114.46760559082031,0.0],"type":"VEC3"},{"bufferView":6,"componentType":5126,"count":837,"max":[1.0,1.0,1.0],"min":[-0.9999994039535522,-1.0,-1.0],"type":"VEC3"},{"bufferView":7,"componentType":5126,"count":837,"max":[1.000653624534607,1.0205762274563313],"min":[-0.03117176704108715,-0.05907857418060303],"type":"VEC2"},{"bufferView":8,"componentType":5123,"count":84,"max":[28],"min":[0],"type":"SCALAR"},{"bufferView":9,"componentType":5126,"count":29,"max":[7.884708404541016,7.884708404541016,83.50081634521484],"min":[-7.884708404541016,-7.884708404541016,0.0],"type":"VEC3"},{"bufferView":10,"componentType":5126,"count":29,"max":[0.785271942615509,0.785271942615509,0.6191510558128357],"min":[-0.785271942615509,-0.7852720022201538,-0.6413109302520752],"type":"VEC3"},{"bufferView":11,"componentType":5126,"count":29,"max":[0.875,1.0],"min":[-0.125,0.0],"type":"VEC2"},{"bufferView":12,"componentType":5123,"count":276,"max":[60],"min":[0],"type":"SCALAR"},{"bufferView":13,"componentType":5126,"count":61,"max":[19.562881469726562,19.562881469726562,27.316434860229492],"min":[-19.562881469726562,-19.562881469726562,0.0],"type":"VEC3"},{"bufferView":14,"componentType":5126,"count":61,"max":[0.7763822078704834,0.7763822078704834,0.8041865825653076],"min":[-0.7763822078704834,-0.7763822674751282,-0.630262553691864],"type":"VEC3"},{"bufferView":15,"componentType":5126,"count":61,"max":[0.875,1.0],"min":[-0.125,0.0],"type":"VEC2"}],"asset":{"copyright":null,"generator":"Soft8Soft Verge3D for Maya plug-in","version":"2.0"},"bufferViews":[{"buffer":0,"byteLength":288,"byteOffset":0,"target":34963},{"buffer":0,"byteLength":516,"byteOffset":288,"target":34962},{"buffer":0,"byteLength":516,"byteOffset":804,"target":34962},{"buffer":0,"byteLength":344,"byteOffset":1320,"target":34962},{"buffer":0,"byteLength":4692,"byteOffset":1664,"target":34963},{"buffer":0,"byteLength":10044,"byteOffset":6356,"target":34962},{"buffer":0,"byteLength":10044,"byteOffset":16400,"target":34962},{"buffer":0,"byteLength":6696,"byteOffset":26444,"target":34962},{"buffer":0,"byteLength":168,"byteOffset":33140,"target":34963},{"buffer":0,"byteLength":348,"byteOffset":33308,"target":34962},{"buffer":0,"byteLength":348,"byteOffset":33656,"target":34962},{"buffer":0,"byteLength":232,"byteOffset":34004,"target":34962},{"buffer":0,"byteLength":552,"byteOffset":34236,"target":34963},{"buffer":0,"byteLength":732,"byteOffset":34788,"target":34962},{"buffer":0,"byteLength":732,"byteOffset":35520,"target":34962},{"buffer":0,"byteLength":488,"byteOffset":36252,"target":34962}],"buffers":[{"byteLength":36740,"uri":"casino-machine.bin"}],"cameras":[{"extensions":{"S8S_v3d_camera":{"controls":"ORBIT","enablePan":true,"moveSpeed":1.0,"orbitMaxDistance":1000.0,"orbitMaxPolarAngle":3.141592653589793,"orbitMaxZoom":100.0,"orbitMinDistance":0.0,"orbitMinPolarAngle":0.0,"orbitMinZoom":0.009999999776482582,"orbitTarget":[0.018865817811573038,40.20491225512893,-30.17255000915827],"rotateSpeed":1.0,"viewportFitInitialAspect":1.5,"viewportFitType":"HORIZONTAL"}},"name":"perspShape","perspective":{"aspectRatio":1.5,"yfov":0.6605947096585075,"zfar":10000.0,"znear":0.1},"type":"perspective"}],"extensions":{"S8S_v3d_lights":{"lights":[{"color":[1,1,1],"intensity":2.5,"name":"__DEFAULT__","profile":"maya","type":"directional"}]}},"extensionsUsed":["S8S_v3d_materials","S8S_v3d_lights","S8S_v3d_camera","S8S_v3d_mesh","S8S_v3d_node","S8S_v3d_scene"],"materials":[{"extensions":{"S8S_v3d_materials":{"gtaoVisible":true,"nodeGraph":{"edges":[{"fromNode":1,"fromOutput":0,"toInput":0,"toNode":0}],"nodes":[{"inputs":[[0.0,0.0,0.0,1],[0,0,0,0],[0,0,0]],"is_active_output":true,"name":"phongE1SG","outputs":[],"type":"SHADING_ENGINE_MY"},{"inputs":[[0.33329999446868896,0.11760000139474869,0.7450000047683716],[0.0,0.0,0.0],[0.0,0.0,0.0],1.0,0.800000011920929,[1.0,1.0,1.0],0.5,[0.0,0.0,0.0],0.5,0.5,[0.5,0.5,0.5],0.0,[0.0,0.0,0.0]],"name":"purple_phongE","outputs":[[0.0,0.0,0.0,0]],"type":"PHONG_E_MY"}]},"profile":"maya"}},"name":"purple_phongE"},{"extensions":{"S8S_v3d_materials":{"nodeGraph":{"edges":[{"fromNode":0,"fromOutput":0,"toInput":0,"toNode":1}],"nodes":[{"inputs":[[0.10653923276464054,0.10653923276464054,0.10653923276464054],[0,0,0],[0,0,0],[0,0,0],[0,0,0],[0,0,0]],"name":"aiRaySwitchColor","outputs":[[0,0,0],0],"type":"RAY_SWITCH_AR"},{"inputs":[[0,0,0],1],"is_active_output":true,"name":"aiSkyDomeLightShapeColor","outputs":[],"type":"SKYDOME_LIGHT_AR"}]},"profile":"maya"}},"name":"Verge3D_Environment"}],"meshes":[{"extensions":{"S8S_v3d_mesh":{}},"name":"level4_allobjects:Sphere001Shape","primitives":[{"attributes":{"NORMAL":2,"POSITION":1,"TEXCOORD_0":3},"indices":0,"material":0,"mode":4}]},{"extensions":{"S8S_v3d_mesh":{}},"name":"level4_allobjects:slotFBXASC032machineShape","primitives":[{"attributes":{"NORMAL":6,"POSITION":5,"TEXCOORD_0":7},"indices":4,"material":0,"mode":4}]},{"extensions":{"S8S_v3d_mesh":{}},"name":"level4_allobjects:Cylinder001Shape","primitives":[{"attributes":{"NORMAL":10,"POSITION":9,"TEXCOORD_0":11},"indices":8,"material":0,"mode":4}]},{"extensions":{"S8S_v3d_mesh":{}},"name":"level4_allobjects:handleFBXASC032partShape","primitives":[{"attributes":{"NORMAL":14,"POSITION":13,"TEXCOORD_0":15},"indices":12,"material":0,"mode":4}]}],"nodes":[{"children":[1,2,3,4],"extensions":{"S8S_v3d_node":{"hidden":false,"hidpiCompositing":false}},"name":"level4_allobjects:casino_machine","rotation":[0.0,0.0,0.0,1.0],"scale":[0.018124704317443372,0.018124704317443372,0.018124704317443372],"translation":[3.2853224826370595,59.07647682312277,-23.43123760956687]},{"extensions":{"S8S_v3d_node":{"frustumCulling":true,"groupNames":["level4_allobjects:casino_machine"],"hidden":false,"hidpiCompositing":false,"renderOrder":0,"useCastShadows":true,"useShadows":true}},"mesh":0,"name":"level4_allobjects:Sphere001","rotation":[-0.7071067811865475,0.0,0.0,0.7071067811865477],"scale":[0.85168,0.85168,0.85168],"translation":[-70.7593765258789,198.1464080810547,-108.46511840820312]},{"extensions":{"S8S_v3d_node":{"frustumCulling":true,"groupNames":["level4_allobjects:casino_machine"],"hidden":false,"hidpiCompositing":false,"renderOrder":0,"useCastShadows":true,"useShadows":true}},"mesh":1,"name":"level4_allobjects:slotFBXASC032machine","rotation":[-0.7071067811865475,0.0,0.0,0.7071067811865477],"scale":[1.739821,0.649288,1.0],"translation":[-113.1741943359375,0.0,-22.46564483642578]},{"extensions":{"S8S_v3d_node":{"frustumCulling":true,"groupNames":["level4_allobjects:casino_machine"],"hidden":false,"hidpiCompositing":false,"renderOrder":0,"useCastShadows":true,"useShadows":true}},"mesh":2,"name":"level4_allobjects:Cylinder001","rotation":[-0.6644630233158265,0.24184476559560134,-0.24184476559560142,0.6644630233158267],"scale":[0.7483780000000001,0.7483779999999999,0.9999999999999997],"translation":[-122.11177825927734,138.5040283203125,-107.99201965332031]},{"extensions":{"S8S_v3d_node":{"frustumCulling":true,"groupNames":["level4_allobjects:casino_machine"],"hidden":false,"hidpiCompositing":false,"renderOrder":0,"useCastShadows":true,"useShadows":true}},"mesh":3,"name":"level4_allobjects:handleFBXASC032part","rotation":[0.9999999999999998,0.0,0.0,2.1855693982556696e-08],"scale":[1.0,0.9999999999999999,0.9999999999999999],"translation":[-126.07073974609375,135.80381774902344,-89.1317138671875]},{"camera":0,"children":[6],"extensions":{"S8S_v3d_node":{"hidden":true,"hidpiCompositing":false}},"name":"persp","rotation":[-0.2230243961057575,0.37136585056309357,0.09237972960707397,0.8965564730316413],"scale":[1.0,1.0,1.0],"translation":[83.44325258777751,102.77320233260346,53.251836760807734]},{"extensions":{"S8S_v3d_lights":{"light":0}},"name":"__DEFAULT_LIGHT__","rotation":[-0.13052619222005157,-0.0,-0.0,0.9914448613738104],"translation":[83.44325258777751,102.77320233260346,53.251836760807734]}],"scene":0,"scenes":[{"extensions":{"S8S_v3d_scene":{"aaMethod":"AUTO","iblEnvironmentMode":"PMREM","physicallyCorrectLights":true,"shadowMap":{"esmDistanceScale":2.5,"renderReverseSided":false,"renderSingleSided":true,"type":"PCFPOISSON"},"unitsScaleFactor":1.0,"useHDR":false,"worldMaterial":1}},"extras":{"animFrameRate":24.0,"coordSystem":"Y_UP_RIGHT"},"name":"Scene","nodes":[0,5]}]}