{"accessors":[{"bufferView":0,"componentType":5123,"count":4284,"max":[2855],"min":[0],"type":"SCALAR"},{"bufferView":1,"componentType":5126,"count":2856,"max":[18.700000762939453,4.671741008758545,6.832381248474121],"min":[-21.25,-8.0,-6.832381248474121],"type":"VEC3"},{"bufferView":2,"componentType":5126,"count":2856,"max":[1.0,1.0,1.0],"min":[-1.0,-1.0,-1.0],"type":"VEC3"},{"bufferView":3,"componentType":5126,"count":2856,"max":[0.9937499761581421,0.9684999994933605],"min":[1.5625000742147677e-05,0.0002499818801879883],"type":"VEC2"}],"asset":{"copyright":null,"generator":"Soft8Soft Verge3D for Maya plug-in","version":"2.0"},"bufferViews":[{"buffer":0,"byteLength":8568,"byteOffset":0,"target":34963},{"buffer":0,"byteLength":34272,"byteOffset":8568,"target":34962},{"buffer":0,"byteLength":34272,"byteOffset":42840,"target":34962},{"buffer":0,"byteLength":22848,"byteOffset":77112,"target":34962}],"buffers":[{"byteLength":99960,"uri":"rollercoaster-car.bin"}],"cameras":[{"extensions":{"S8S_v3d_camera":{"controls":"ORBIT","enablePan":true,"moveSpeed":1.0,"orbitMaxDistance":1000.0,"orbitMaxPolarAngle":3.141592653589793,"orbitMaxZoom":100.0,"orbitMinDistance":0.0,"orbitMinPolarAngle":0.0,"orbitMinZoom":0.009999999776482582,"orbitTarget":[5.684341886080802e-14,0.0,2.842170943040401e-14],"rotateSpeed":1.0,"viewportFitInitialAspect":1.5,"viewportFitType":"HORIZONTAL"}},"name":"perspShape","perspective":{"aspectRatio":1.5,"yfov":0.6605947096585075,"zfar":10000.0,"znear":0.1},"type":"perspective"}],"extensions":{"S8S_v3d_lights":{"lights":[{"color":[1,1,1],"intensity":2.5,"name":"__DEFAULT__","profile":"maya","type":"directional"}]}},"extensionsUsed":["S8S_v3d_materials","S8S_v3d_lights","S8S_v3d_camera","S8S_v3d_mesh","S8S_v3d_node","S8S_v3d_scene"],"materials":[{"extensions":{"S8S_v3d_materials":{"gtaoVisible":true,"nodeGraph":{"edges":[{"fromNode":1,"fromOutput":0,"toInput":0,"toNode":0}],"nodes":[{"inputs":[[0.0,0.0,0.0,1],[0,0,0,0],[0,0,0]],"is_active_output":true,"name":"phong1SG","outputs":[],"type":"SHADING_ENGINE_MY"},{"inputs":[[0.9803000092506409,0.7450000047683716,0.31369999051094055],[0.0,0.0,0.0],[0.0,0.0,0.0],1.0,0.800000011920929,[1.0,1.0,1.0],0.5,[0.0,0.0,0.0],20.0,[0.5,0.5,0.5],0.0,[0.0,0.0,0.0]],"name":"yellow_pong","outputs":[[0.0,0.0,0.0,0]],"type":"PHONG_MY"}]},"profile":"maya"}},"name":"yellow_pong"},{"extensions":{"S8S_v3d_materials":{"nodeGraph":{"edges":[{"fromNode":0,"fromOutput":0,"toInput":0,"toNode":1}],"nodes":[{"inputs":[[0.10653923276464054,0.10653923276464054,0.10653923276464054],[0,0,0],[0,0,0],[0,0,0],[0,0,0],[0,0,0]],"name":"aiRaySwitchColor","outputs":[[0,0,0],0],"type":"RAY_SWITCH_AR"},{"inputs":[[0,0,0],1],"is_active_output":true,"name":"aiSkyDomeLightShapeColor","outputs":[],"type":"SKYDOME_LIGHT_AR"}]},"profile":"maya"}},"name":"Verge3D_Environment"}],"meshes":[{"extensions":{"S8S_v3d_mesh":{}},"name":"level3_allobjects:rollercoasterShape","primitives":[{"attributes":{"NORMAL":2,"POSITION":1,"TEXCOORD_0":3},"indices":0,"material":0,"mode":4}]}],"nodes":[{"extensions":{"S8S_v3d_node":{"frustumCulling":true,"hidden":false,"hidpiCompositing":false,"renderOrder":0,"useCastShadows":true,"useShadows":true}},"mesh":0,"name":"level3_allobjects:rollercoaster","rotation":[0.5000000000000001,-0.4999999999999996,-0.5000000000000001,0.5000000000000006],"scale":[0.28420295630641207,0.28420295630641207,0.28420295630641207],"translation":[-15.906513230282275,39.398768076916596,1.702416461264325]},{"camera":0,"children":[2],"extensions":{"S8S_v3d_node":{"hidden":true,"hidpiCompositing":false}},"name":"persp","rotation":[-0.2230243961057575,0.37136585056309357,0.09237972960707397,0.8965564730316413],"scale":[1.0,1.0,1.0],"translation":[120.04332610850751,90.03249458138072,120.04332610850759]},{"extensions":{"S8S_v3d_lights":{"light":0}},"name":"__DEFAULT_LIGHT__","rotation":[-0.13052619222005157,-0.0,-0.0,0.9914448613738104],"translation":[120.04332610850751,90.03249458138072,120.04332610850759]}],"scene":0,"scenes":[{"extensions":{"S8S_v3d_scene":{"aaMethod":"AUTO","iblEnvironmentMode":"PMREM","physicallyCorrectLights":true,"shadowMap":{"esmDistanceScale":2.5,"renderReverseSided":false,"renderSingleSided":true,"type":"PCFPOISSON"},"unitsScaleFactor":1.0,"useHDR":false,"worldMaterial":1}},"extras":{"animFrameRate":24.0,"coordSystem":"Y_UP_RIGHT"},"name":"Scene","nodes":[0,1]}]}