{"accessors":[{"bufferView":0,"componentType":5123,"count":23040,"max":[3845],"min":[0],"type":"SCALAR"},{"bufferView":1,"componentType":5126,"count":3846,"max":[2.0913000106811523,39.28329849243164,0.21870000660419464],"min":[1.6028000116348267,38.79800033569336,-0.2879999876022339],"type":"VEC3"},{"bufferView":2,"componentType":5126,"count":3846,"max":[0.9999076128005981,0.9997528195381165,0.9983505606651306],"min":[-0.9999251365661621,-0.9997605681419373,-0.9997790455818176],"type":"VEC3"},{"bufferView":3,"componentType":5126,"count":3846,"max":[0.9373999834060669,0.9679999984800816],"min":[0.0560000017285347,0.06940001249313354],"type":"VEC2"},{"bufferView":4,"componentType":5123,"count":23040,"max":[3845],"min":[0],"type":"SCALAR"},{"bufferView":5,"componentType":5126,"count":3846,"max":[-1.6655000448226929,39.29990005493164,0.20340000092983246],"min":[-2.1826999187469482,38.79010009765625,-0.2761000096797943],"type":"VEC3"},{"bufferView":6,"componentType":5126,"count":3846,"max":[0.9987665414810181,0.9987657070159912,0.9999985694885254],"min":[-0.9999643564224243,-0.9982848763465881,-1.0],"type":"VEC3"},{"bufferView":7,"componentType":5126,"count":3846,"max":[0.9373999834060669,0.9679999984800816],"min":[0.0560000017285347,0.06940001249313354],"type":"VEC2"},{"bufferView":8,"componentType":5125,"count":179520,"max":[31435],"min":[0],"type":"SCALAR"},{"bufferView":9,"componentType":5126,"count":31436,"max":[2.1398000717163086,40.0275993347168,1.2238999605178833],"min":[-2.237499952316284,34.26259994506836,-1.7518999576568604],"type":"VEC3"},{"bufferView":10,"componentType":5126,"count":31436,"max":[0.9999672174453735,0.9999955892562866,0.9999014139175415],"min":[-0.9999904632568359,-0.9982295036315918,-0.9999678134918213],"type":"VEC3"},{"bufferView":11,"componentType":5126,"count":31436,"max":[0.9980000257492065,0.9979999999050051],"min":[0.0020000000949949026,0.0037999749183654785],"type":"VEC2"}],"asset":{"copyright":null,"generator":"Soft8Soft Verge3D for Maya plug-in","version":"2.0"},"bufferViews":[{"buffer":0,"byteLength":46080,"byteOffset":0,"target":34963},{"buffer":0,"byteLength":46152,"byteOffset":46080,"target":34962},{"buffer":0,"byteLength":46152,"byteOffset":92232,"target":34962},{"buffer":0,"byteLength":30768,"byteOffset":138384,"target":34962},{"buffer":0,"byteLength":46080,"byteOffset":169152,"target":34963},{"buffer":0,"byteLength":46152,"byteOffset":215232,"target":34962},{"buffer":0,"byteLength":46152,"byteOffset":261384,"target":34962},{"buffer":0,"byteLength":30768,"byteOffset":307536,"target":34962},{"buffer":0,"byteLength":718080,"byteOffset":338304,"target":34963},{"buffer":0,"byteLength":377232,"byteOffset":1056384,"target":34962},{"buffer":0,"byteLength":377232,"byteOffset":1433616,"target":34962},{"buffer":0,"byteLength":251488,"byteOffset":1810848,"target":34962}],"buffers":[{"byteLength":2062336,"uri":"uterus.bin"}],"cameras":[{"extensions":{"S8S_v3d_camera":{"controls":"ORBIT","enablePan":true,"moveSpeed":1.0,"orbitMaxDistance":1000.0,"orbitMaxPolarAngle":3.141592653589793,"orbitMaxZoom":100.0,"orbitMinDistance":0.0,"orbitMinPolarAngle":0.0,"orbitMinZoom":0.009999999776482582,"orbitTarget":[-4.6936212450893215,52.446954984989326,-34.14266508278918],"rotateSpeed":1.0,"viewportFitInitialAspect":1.5,"viewportFitType":"HORIZONTAL"}},"name":"perspShape","perspective":{"aspectRatio":1.5,"yfov":0.6605947096585075,"zfar":10000.0,"znear":0.1},"type":"perspective"}],"extensions":{"S8S_v3d_lights":{"lights":[{"color":[1,1,1],"intensity":2.5,"name":"__DEFAULT__","profile":"maya","type":"directional"}]}},"extensionsUsed":["S8S_v3d_materials","S8S_v3d_lights","S8S_v3d_camera","S8S_v3d_mesh","S8S_v3d_node","S8S_v3d_scene"],"materials":[{"extensions":{"S8S_v3d_materials":{"gtaoVisible":true,"nodeGraph":{"edges":[{"fromNode":1,"fromOutput":0,"toInput":0,"toNode":0}],"nodes":[{"inputs":[[0.0,0.0,0.0,1],[0,0,0,0],[0,0,0]],"is_active_output":true,"name":"phongE1SG","outputs":[],"type":"SHADING_ENGINE_MY"},{"inputs":[[0.33329999446868896,0.11760000139474869,0.7450000047683716],[0.0,0.0,0.0],[0.0,0.0,0.0],1.0,0.800000011920929,[1.0,1.0,1.0],0.5,[0.0,0.0,0.0],0.5,0.5,[0.5,0.5,0.5],0.0,[0.0,0.0,0.0]],"name":"purple_phongE","outputs":[[0.0,0.0,0.0,0]],"type":"PHONG_E_MY"}]},"profile":"maya"}},"name":"purple_phongE"},{"extensions":{"S8S_v3d_materials":{"nodeGraph":{"edges":[{"fromNode":0,"fromOutput":0,"toInput":0,"toNode":1}],"nodes":[{"inputs":[[0.10653923276464054,0.10653923276464054,0.10653923276464054],[0,0,0],[0,0,0],[0,0,0],[0,0,0],[0,0,0]],"name":"aiRaySwitchColor","outputs":[[0,0,0],0],"type":"RAY_SWITCH_AR"},{"inputs":[[0,0,0],1],"is_active_output":true,"name":"aiSkyDomeLightShapeColor","outputs":[],"type":"SKYDOME_LIGHT_AR"}]},"profile":"maya"}},"name":"Verge3D_Environment"}],"meshes":[{"extensions":{"S8S_v3d_mesh":{}},"name":"level4_allobjects:Uterus_Whole:Ovary002Shape","primitives":[{"attributes":{"NORMAL":2,"POSITION":1,"TEXCOORD_0":3},"indices":0,"material":0,"mode":4}]},{"extensions":{"S8S_v3d_mesh":{}},"name":"level4_allobjects:Uterus_Whole:Ovary001Shape","primitives":[{"attributes":{"NORMAL":6,"POSITION":5,"TEXCOORD_0":7},"indices":4,"material":0,"mode":4}]},{"extensions":{"S8S_v3d_mesh":{}},"name":"level4_allobjects:Uterus_Whole:Uterus_WHOLEShape","primitives":[{"attributes":{"NORMAL":10,"POSITION":9,"TEXCOORD_0":11},"indices":8,"material":0,"mode":4}]}],"nodes":[{"children":[1,2,3],"extensions":{"S8S_v3d_node":{"hidden":false,"hidpiCompositing":false}},"name":"level4_allobjects:uterus","rotation":[0.0,0.0,0.0,1.0],"scale":[0.705023351749157,0.705023351749157,0.705023351749157],"translation":[-1.1842960936997646,57.70493404916239,-19.33496863925663]},{"extensions":{"S8S_v3d_node":{"frustumCulling":true,"groupNames":["level4_allobjects:uterus"],"hidden":false,"hidpiCompositing":false,"renderOrder":0,"useCastShadows":true,"useShadows":true}},"mesh":0,"name":"level4_allobjects:Uterus_Whole:Ovary002","rotation":[0.0,0.0,0.0,1.0],"scale":[1.0,1.0,1.0],"translation":[0.0,-32.217472032668596,0.0]},{"extensions":{"S8S_v3d_node":{"frustumCulling":true,"groupNames":["level4_allobjects:uterus"],"hidden":false,"hidpiCompositing":false,"renderOrder":0,"useCastShadows":true,"useShadows":true}},"mesh":1,"name":"level4_allobjects:Uterus_Whole:Ovary001","rotation":[0.0,0.0,0.0,1.0],"scale":[1.0,1.0,1.0],"translation":[0.0,-32.217472032668596,0.0]},{"extensions":{"S8S_v3d_node":{"frustumCulling":true,"groupNames":["level4_allobjects:uterus"],"hidden":false,"hidpiCompositing":false,"renderOrder":0,"useCastShadows":true,"useShadows":true}},"mesh":2,"name":"level4_allobjects:Uterus_Whole:Uterus_WHOLE","rotation":[0.0,0.0,0.0,1.0],"scale":[1.0,1.0,1.0],"translation":[0.0,-32.217472032668596,0.0]},{"camera":0,"children":[5],"extensions":{"S8S_v3d_node":{"hidden":true,"hidpiCompositing":false}},"name":"persp","rotation":[-0.2118751783539131,0.18798081704178812,0.04156825735226845,0.9581462316382061],"scale":[1.0,0.9999999999999999,1.0],"translation":[13.727438235803831,75.11725332092168,10.996763240994524]},{"extensions":{"S8S_v3d_lights":{"light":0}},"name":"__DEFAULT_LIGHT__","rotation":[-0.13052619222005157,-0.0,-0.0,0.9914448613738104],"translation":[13.727438235803831,75.11725332092168,10.996763240994524]}],"scene":0,"scenes":[{"extensions":{"S8S_v3d_scene":{"aaMethod":"AUTO","iblEnvironmentMode":"PMREM","physicallyCorrectLights":true,"shadowMap":{"esmDistanceScale":2.5,"renderReverseSided":false,"renderSingleSided":true,"type":"PCFPOISSON"},"unitsScaleFactor":1.0,"useHDR":false,"worldMaterial":1}},"extras":{"animFrameRate":24.0,"coordSystem":"Y_UP_RIGHT"},"name":"Scene","nodes":[0,4]}]}