{"accessors":[{"bufferView":0,"componentType":5123,"count":5928,"max":[1089],"min":[0],"type":"SCALAR"},{"bufferView":1,"componentType":5126,"count":1090,"max":[0.8353320360183716,0.8828352689743042,0.4922788441181183],"min":[-0.8353320360183716,-0.8828352689743042,-0.4922788441181183],"type":"VEC3"},{"bufferView":2,"componentType":5126,"count":1090,"max":[0.9990211725234985,0.9998794198036194,1.0],"min":[-0.999494194984436,-0.9998772740364075,-1.0],"type":"VEC3"},{"bufferView":3,"componentType":5126,"count":1090,"max":[0.923348605632782,0.9922029431909323],"min":[0.005198528058826923,0.006102561950683594],"type":"VEC2"},{"bufferView":4,"componentType":5123,"count":1008,"max":[241],"min":[0],"type":"SCALAR"},{"bufferView":5,"componentType":5126,"count":242,"max":[1.0,1.0287024974822998,0.10310640931129456],"min":[-1.0,-1.0287024974822998,-0.10468626022338867],"type":"VEC3"},{"bufferView":6,"componentType":5126,"count":242,"max":[0.4731138050556183,0.4754219949245453,0.9999998211860657],"min":[-0.47427645325660706,-0.474220871925354,-1.0],"type":"VEC3"},{"bufferView":7,"componentType":5126,"count":242,"max":[0.9801788926124573,0.9973087906837463],"min":[0.012039512395858765,0.009454488754272461],"type":"VEC2"}],"asset":{"copyright":null,"generator":"Soft8Soft Verge3D for Maya plug-in","version":"2.0"},"bufferViews":[{"buffer":0,"byteLength":11856,"byteOffset":0,"target":34963},{"buffer":0,"byteLength":13080,"byteOffset":11856,"target":34962},{"buffer":0,"byteLength":13080,"byteOffset":24936,"target":34962},{"buffer":0,"byteLength":8720,"byteOffset":38016,"target":34962},{"buffer":0,"byteLength":2016,"byteOffset":46736,"target":34963},{"buffer":0,"byteLength":2904,"byteOffset":48752,"target":34962},{"buffer":0,"byteLength":2904,"byteOffset":51656,"target":34962},{"buffer":0,"byteLength":1936,"byteOffset":54560,"target":34962}],"buffers":[{"byteLength":56496,"uri":"condom.bin"}],"cameras":[{"extensions":{"S8S_v3d_camera":{"controls":"ORBIT","enablePan":true,"moveSpeed":1.0,"orbitMaxDistance":1000.0,"orbitMaxPolarAngle":3.141592653589793,"orbitMaxZoom":100.0,"orbitMinDistance":0.0,"orbitMinPolarAngle":0.0,"orbitMinZoom":0.009999999776482582,"orbitTarget":[2.842170943040401e-14,-1.4210854715202004e-14,0.0],"rotateSpeed":1.0,"viewportFitInitialAspect":1.5,"viewportFitType":"HORIZONTAL"}},"name":"perspShape","perspective":{"aspectRatio":1.5,"yfov":0.6605947096585075,"zfar":10000.0,"znear":0.1},"type":"perspective"}],"extensions":{"S8S_v3d_lights":{"lights":[{"color":[1,1,1],"intensity":2.5,"name":"__DEFAULT__","profile":"maya","type":"directional"}]}},"extensionsUsed":["S8S_v3d_materials","S8S_v3d_lights","S8S_v3d_camera","S8S_v3d_mesh","S8S_v3d_node","S8S_v3d_scene"],"materials":[{"extensions":{"S8S_v3d_materials":{"gtaoVisible":true,"nodeGraph":{"edges":[{"fromNode":1,"fromOutput":0,"toInput":0,"toNode":0}],"nodes":[{"inputs":[[0.0,0.0,0.0,1],[0,0,0,0],[0,0,0]],"is_active_output":true,"name":"phong1SG","outputs":[],"type":"SHADING_ENGINE_MY"},{"inputs":[[0.9803000092506409,0.7450000047683716,0.31369999051094055],[0.0,0.0,0.0],[0.0,0.0,0.0],1.0,0.800000011920929,[1.0,1.0,1.0],0.5,[0.0,0.0,0.0],20.0,[0.5,0.5,0.5],0.0,[0.0,0.0,0.0]],"name":"yellow_pong","outputs":[[0.0,0.0,0.0,0]],"type":"PHONG_MY"}]},"profile":"maya"}},"name":"yellow_pong"},{"extensions":{"S8S_v3d_materials":{"nodeGraph":{"edges":[{"fromNode":0,"fromOutput":0,"toInput":0,"toNode":1}],"nodes":[{"inputs":[[0.10653923276464054,0.10653923276464054,0.10653923276464054],[0,0,0],[0,0,0],[0,0,0],[0,0,0],[0,0,0]],"name":"aiRaySwitchColor","outputs":[[0,0,0],0],"type":"RAY_SWITCH_AR"},{"inputs":[[0,0,0],1],"is_active_output":true,"name":"aiSkyDomeLightShapeColor","outputs":[],"type":"SKYDOME_LIGHT_AR"}]},"profile":"maya"}},"name":"Verge3D_Environment"}],"meshes":[{"extensions":{"S8S_v3d_mesh":{}},"name":"level3_allobjects:open_condomShape","primitives":[{"attributes":{"NORMAL":2,"POSITION":1,"TEXCOORD_0":3},"indices":0,"material":0,"mode":4}]},{"extensions":{"S8S_v3d_mesh":{}},"name":"level3_allobjects:condomShape","primitives":[{"attributes":{"NORMAL":6,"POSITION":5,"TEXCOORD_0":7},"indices":4,"material":0,"mode":4}]}],"nodes":[{"children":[1,2],"extensions":{"S8S_v3d_node":{"hidden":false,"hidpiCompositing":false}},"name":"level3_allobjects:condom","rotation":[0.0,0.0,0.0,1.0],"scale":[0.8276697053291749,0.8276697053291749,0.8276697053291749],"translation":[-13.98861848269711,32.97657295847312,-13.658302147428147]},{"extensions":{"S8S_v3d_node":{"frustumCulling":true,"groupNames":["level3_allobjects:condom"],"hidden":false,"hidpiCompositing":false,"renderOrder":0,"useCastShadows":true,"useShadows":true}},"mesh":0,"name":"level3_allobjects:open_condom","rotation":[-0.7071067811865475,0.0,0.0,0.7071067811865477],"scale":[1.5590003531644718,1.5590003531644718,1.5590003531644718],"translation":[-2.119680702291279,1.872514981302195,7.5953615342489815]},{"extensions":{"S8S_v3d_node":{"frustumCulling":true,"groupNames":["level3_allobjects:condom"],"hidden":false,"hidpiCompositing":false,"renderOrder":0,"useCastShadows":true,"useShadows":true}},"mesh":1,"name":"level3_allobjects:condom","rotation":[-0.6979468075356826,0.1134475002416868,0.11344751972780358,0.6979466876540579],"scale":[1.9090747802568455,1.9090747802568453,1.9090747802568455],"translation":[1.702196874221504,1.2872334896228992,6.434679125145366]},{"camera":0,"children":[4],"extensions":{"S8S_v3d_node":{"hidden":true,"hidpiCompositing":false}},"name":"persp","rotation":[-0.2230243961057575,0.37136585056309357,0.09237972960707397,0.8965564730316413],"scale":[1.0,1.0,1.0],"translation":[120.04332610840166,90.03249458130134,120.04332610840174]},{"extensions":{"S8S_v3d_lights":{"light":0}},"name":"__DEFAULT_LIGHT__","rotation":[-0.13052619222005157,-0.0,-0.0,0.9914448613738104],"translation":[120.04332610840166,90.03249458130134,120.04332610840174]}],"scene":0,"scenes":[{"extensions":{"S8S_v3d_scene":{"aaMethod":"AUTO","iblEnvironmentMode":"PMREM","physicallyCorrectLights":true,"shadowMap":{"esmDistanceScale":2.5,"renderReverseSided":false,"renderSingleSided":true,"type":"PCFPOISSON"},"unitsScaleFactor":1.0,"useHDR":false,"worldMaterial":1}},"extras":{"animFrameRate":24.0,"coordSystem":"Y_UP_RIGHT"},"name":"Scene","nodes":[0,3]}]}