{"accessors":[{"bufferView":0,"componentType":5123,"count":4560,"max":[844],"min":[0],"type":"SCALAR"},{"bufferView":1,"componentType":5126,"count":845,"max":[0.9877642393112183,6.205061912536621,0.987764298915863],"min":[-0.987764298915863,-1.7904422283172607,-0.9877647161483765],"type":"VEC3"},{"bufferView":2,"componentType":5126,"count":845,"max":[0.9999999403953552,1.0,0.9999998807907104],"min":[-0.9999998807907104,-1.0,-0.9999999403953552],"type":"VEC3"},{"bufferView":3,"componentType":5126,"count":845,"max":[0.65625,1.000000074505806],"min":[0.3437499701976776,0.0],"type":"VEC2"},{"bufferView":4,"componentType":5123,"count":24,"max":[15],"min":[0],"type":"SCALAR"},{"bufferView":5,"componentType":5126,"count":16,"max":[0.7974380254745483,0.39089229702949524,-0.011614561080932617],"min":[2.9802322387695312e-08,-0.6025161743164062,-0.9856874346733093],"type":"VEC3"},{"bufferView":6,"componentType":5126,"count":16,"max":[0.5884432196617126,6.918499195762706e-08,0.8095986843109131],"min":[-0.9999997019767761,-6.903917437739437e-08,-0.0008127846522256732],"type":"VEC3"},{"bufferView":7,"componentType":5126,"count":16,"max":[0.5551026463508606,0.8604373335838318],"min":[0.43683165311813354,0.2568162679672241],"type":"VEC2"},{"bufferView":8,"componentType":5123,"count":2736,"max":[535],"min":[0],"type":"SCALAR"},{"bufferView":9,"componentType":5126,"count":536,"max":[0.8024228811264038,1.0,-0.009870052337646484],"min":[2.9802322387695312e-08,-1.0,-0.9977614879608154],"type":"VEC3"},{"bufferView":10,"componentType":5126,"count":536,"max":[0.9951059222221375,1.0,0.9826061725616455],"min":[-0.9999997019767761,-1.0,-0.9880861639976501],"type":"VEC3"},{"bufferView":11,"componentType":5126,"count":536,"max":[0.6264089941978455,0.9973816280253232],"min":[0.38749998807907104,0.0],"type":"VEC2"},{"bufferView":12,"componentType":5123,"count":4992,"max":[935],"min":[0],"type":"SCALAR"},{"bufferView":13,"componentType":5126,"count":936,"max":[0.7720063924789429,1.020097255706787,-0.0660107433795929],"min":[-0.030216189101338387,0.23384201526641846,-1.0082767009735107],"type":"VEC3"},{"bufferView":14,"componentType":5126,"count":936,"max":[0.999112606048584,0.9999085664749146,0.9977225065231323],"min":[-0.9996898174285889,-0.9998330473899841,-0.9992547631263733],"type":"VEC3"},{"bufferView":15,"componentType":5126,"count":936,"max":[0.6264089345932007,0.5981346070766449],"min":[0.38749998807907104,0.0],"type":"VEC2"},{"bufferView":16,"componentType":5123,"count":3186,"max":[758],"min":[0],"type":"SCALAR"},{"bufferView":17,"componentType":5126,"count":759,"max":[1.4918246269226074,0.25803038477897644,7.914827346801758],"min":[-0.39175739884376526,-0.25803032517433167,1.8893429040908813],"type":"VEC3"},{"bufferView":18,"componentType":5126,"count":759,"max":[0.9998880624771118,0.999995768070221,1.0],"min":[-1.0,-0.9999957084655762,-1.0],"type":"VEC3"},{"bufferView":19,"componentType":5126,"count":759,"max":[0.65625,1.000000074505806],"min":[0.3437499701976776,0.0],"type":"VEC2"},{"bufferView":20,"componentType":5123,"count":1956,"max":[457],"min":[0],"type":"SCALAR"},{"bufferView":21,"componentType":5126,"count":458,"max":[0.5564408302307129,0.5,0.5],"min":[-0.5564408302307129,-0.5,-0.5],"type":"VEC3"},{"bufferView":22,"componentType":5126,"count":458,"max":[0.9998663067817688,1.0,1.0],"min":[-0.999866247177124,-1.0,-0.9999678134918213],"type":"VEC3"},{"bufferView":23,"componentType":5126,"count":458,"max":[0.8750000596046448,1.0],"min":[0.125,0.0],"type":"VEC2"},{"bufferView":24,"componentType":5123,"count":72,"max":[27],"min":[0],"type":"SCALAR"},{"bufferView":25,"componentType":5126,"count":28,"max":[0.5190744400024414,0.05852901563048363,0.49466240406036377],"min":[-0.5190744400024414,-0.06929370760917664,-0.25047552585601807],"type":"VEC3"},{"bufferView":26,"componentType":5126,"count":28,"max":[0.9900484085083008,0.0,0.21856065094470978],"min":[-0.9900484085083008,0.0,0.14072687923908234],"type":"VEC3"},{"bufferView":27,"componentType":5126,"count":28,"max":[0.8125,0.8923234269022942],"min":[0.1875,0.8603677451610565],"type":"VEC2"}],"asset":{"copyright":null,"generator":"Soft8Soft Verge3D for Maya plug-in","version":"2.0"},"bufferViews":[{"buffer":0,"byteLength":9120,"byteOffset":0,"target":34963},{"buffer":0,"byteLength":10140,"byteOffset":9120,"target":34962},{"buffer":0,"byteLength":10140,"byteOffset":19260,"target":34962},{"buffer":0,"byteLength":6760,"byteOffset":29400,"target":34962},{"buffer":0,"byteLength":48,"byteOffset":36160,"target":34963},{"buffer":0,"byteLength":192,"byteOffset":36208,"target":34962},{"buffer":0,"byteLength":192,"byteOffset":36400,"target":34962},{"buffer":0,"byteLength":128,"byteOffset":36592,"target":34962},{"buffer":0,"byteLength":5472,"byteOffset":36720,"target":34963},{"buffer":0,"byteLength":6432,"byteOffset":42192,"target":34962},{"buffer":0,"byteLength":6432,"byteOffset":48624,"target":34962},{"buffer":0,"byteLength":4288,"byteOffset":55056,"target":34962},{"buffer":0,"byteLength":9984,"byteOffset":59344,"target":34963},{"buffer":0,"byteLength":11232,"byteOffset":69328,"target":34962},{"buffer":0,"byteLength":11232,"byteOffset":80560,"target":34962},{"buffer":0,"byteLength":7488,"byteOffset":91792,"target":34962},{"buffer":0,"byteLength":6372,"byteOffset":99280,"target":34963},{"buffer":0,"byteLength":9108,"byteOffset":105652,"target":34962},{"buffer":0,"byteLength":9108,"byteOffset":114760,"target":34962},{"buffer":0,"byteLength":6072,"byteOffset":123868,"target":34962},{"buffer":0,"byteLength":3912,"byteOffset":129940,"target":34963},{"buffer":0,"byteLength":5496,"byteOffset":133852,"target":34962},{"buffer":0,"byteLength":5496,"byteOffset":139348,"target":34962},{"buffer":0,"byteLength":3664,"byteOffset":144844,"target":34962},{"buffer":0,"byteLength":144,"byteOffset":148508,"target":34963},{"buffer":0,"byteLength":336,"byteOffset":148652,"target":34962},{"buffer":0,"byteLength":336,"byteOffset":148988,"target":34962},{"buffer":0,"byteLength":224,"byteOffset":149324,"target":34962}],"buffers":[{"byteLength":149548,"uri":"cake-v1.bin"}],"cameras":[{"extensions":{"S8S_v3d_camera":{"controls":"ORBIT","enablePan":true,"moveSpeed":1.0,"orbitMaxDistance":1000.0,"orbitMaxPolarAngle":3.141592653589793,"orbitMaxZoom":100.0,"orbitMinDistance":0.0,"orbitMinPolarAngle":0.0,"orbitMinZoom":0.009999999776482582,"orbitTarget":[0.1919632619867251,30.51136513786536,-5.345087882055289],"rotateSpeed":1.0,"viewportFitInitialAspect":1.5,"viewportFitType":"HORIZONTAL"}},"name":"perspShape","perspective":{"aspectRatio":1.5,"yfov":0.6605947096585076,"zfar":10000.0,"znear":0.1},"type":"perspective"}],"extensions":{"S8S_v3d_lights":{"lights":[{"color":[1,1,1],"intensity":2.5,"name":"__DEFAULT__","profile":"maya","type":"directional"}]}},"extensionsUsed":["S8S_v3d_materials","S8S_v3d_lights","S8S_v3d_camera","S8S_v3d_mesh","S8S_v3d_node","S8S_v3d_scene"],"materials":[{"alphaMode":"BLEND","extensions":{"S8S_v3d_materials":{"gtaoVisible":true,"nodeGraph":{"edges":[{"fromNode":1,"fromOutput":0,"toInput":0,"toNode":0}],"nodes":[{"inputs":[[0.0,0.0,0.0,1],[0,0,0,0],[0,0,0]],"is_active_output":true,"name":"standardSurface2SG","outputs":[],"type":"SHADING_ENGINE_MY"},{"inputs":[[0.9803000092506409,0.7450000047683716,0.31369999051094055],[0.0,0.0,0.0],[0.0,0.0,0.0],1.0,0.800000011920929,[1.0,1.0,1.0],0.5,[0.0,0.0,0.0],0.30000001192092896,[0.9606999754905701,0.4900999963283539,0.5098000168800354],0.699999988079071,0.0,[0.16200000047683716,0.16200000047683716,0.16200000047683716]],"name":"yellow_blinn_transparent","outputs":[[0.0,0.0,0.0,0]],"type":"BLINN_MY"}]},"profile":"maya"}},"name":"yellow_blinn_transparent"},{"extensions":{"S8S_v3d_materials":{"gtaoVisible":true,"nodeGraph":{"edges":[{"fromNode":1,"fromOutput":0,"toInput":0,"toNode":0}],"nodes":[{"inputs":[[0.0,0.0,0.0,1],[0,0,0,0],[0,0,0]],"is_active_output":true,"name":"lambert10SG","outputs":[],"type":"SHADING_ENGINE_MY"},{"inputs":[[0.9803000092506409,0.7450000047683716,0.31369999051094055],[0.0,0.0,0.0],[0.0,0.0,0.0],1.0,0.800000011920929,[1.0,1.0,1.0],0.0,[0.0,0.0,0.0]],"name":"yellow_lambert","outputs":[[0.0,0.0,0.0,0]],"type":"LAMBERT_MY"}]},"profile":"maya"}},"name":"yellow_lambert"},{"extensions":{"S8S_v3d_materials":{"gtaoVisible":true,"nodeGraph":{"edges":[{"fromNode":1,"fromOutput":0,"toInput":0,"toNode":0}],"nodes":[{"inputs":[[0.0,0.0,0.0,1],[0,0,0,0],[0,0,0]],"is_active_output":true,"name":"lambert9SG","outputs":[],"type":"SHADING_ENGINE_MY"},{"inputs":[[0.3921000063419342,0.8626999855041504,0.7843000292778015],[0.0,0.0,0.0],[0.0,0.0,0.0],1.0,0.800000011920929,[1.0,1.0,1.0],0.0,[0.0,0.0,0.0]],"name":"blue_lambert","outputs":[[0.0,0.0,0.0,0]],"type":"LAMBERT_MY"}]},"profile":"maya"}},"name":"blue_lambert"},{"extensions":{"S8S_v3d_materials":{"gtaoVisible":true,"nodeGraph":{"edges":[{"fromNode":1,"fromOutput":0,"toInput":0,"toNode":0}],"nodes":[{"inputs":[[0.0,0.0,0.0,1],[0,0,0,0],[0,0,0]],"is_active_output":true,"name":"blinn2SG","outputs":[],"type":"SHADING_ENGINE_MY"},{"inputs":[[0.9606999754905701,0.4900999963283539,0.5098000168800354],[0.0,0.0,0.0],[0.0,0.0,0.0],1.0,0.800000011920929,[1.0,1.0,1.0],0.5,[0.0,0.0,0.0],0.30000001192092896,[0.5,0.5,0.5],0.699999988079071,0.0,[0.0,0.0,0.0]],"name":"pink_blinn","outputs":[[0.0,0.0,0.0,0]],"type":"BLINN_MY"}]},"profile":"maya"}},"name":"pink_blinn"},{"extensions":{"S8S_v3d_materials":{"gtaoVisible":true,"nodeGraph":{"edges":[{"fromNode":1,"fromOutput":0,"toInput":0,"toNode":0}],"nodes":[{"inputs":[[0.0,0.0,0.0,1],[0,0,0,0],[0,0,0]],"is_active_output":true,"name":"anisotropic1SG","outputs":[],"type":"SHADING_ENGINE_MY"},{"inputs":[1.0,[1.0,1.0,1.0],0.0,0.46399998664855957,1.0,[1.0,1.0,1.0],0.47101449966430664,0.0,[1.0,1.0,1.0],0.0,[0.3636363744735718,0.3636363744735718,0.3636363744735718],0.0,0.0,[1.0,1.0,1.0],[1.0,1.0,1.0],0.0,[1.0,1.0,1.0],0.10000000149011612,0.0,[1.0,1.0,1.0],0.30000001192092896,0.0,[1.0,1.0,1.0],[1.0,1.0,1.0],[1.0,1.0,1.0],[0.0,0.0,0.0],2.375999927520752],"name":"metal_1_surface","outputs":[[0.0,0.0,0.0,0],[0.0,0.0,0.0]],"thinWalled":false,"type":"STANDARD_SURFACE_AR"}]},"profile":"maya"}},"name":"metal_1_surface"},{"extensions":{"S8S_v3d_materials":{"gtaoVisible":true,"nodeGraph":{"edges":[{"fromNode":1,"fromOutput":0,"toInput":0,"toNode":0}],"nodes":[{"inputs":[[0.0,0.0,0.0,1],[0,0,0,0],[0,0,0]],"is_active_output":true,"name":"initialParticleSE","outputs":[],"type":"SHADING_ENGINE_MY"},{"inputs":[[0.5,0.5,0.5],[0.0,0.0,0.0],[0.0,0.0,0.0],1.0,0.800000011920929,[1.0,1.0,1.0],0.0,[0.0,0.0,0.0]],"name":"lambert1","outputs":[[0.0,0.0,0.0,0]],"type":"LAMBERT_MY"}]},"profile":"maya"}},"name":"lambert1"},{"extensions":{"S8S_v3d_materials":{"nodeGraph":{"edges":[{"fromNode":0,"fromOutput":0,"toInput":0,"toNode":1}],"nodes":[{"inputs":[[0.10653923276464054,0.10653923276464054,0.10653923276464054],[0,0,0],[0,0,0],[0,0,0],[0,0,0],[0,0,0]],"name":"aiRaySwitchColor","outputs":[[0,0,0],0],"type":"RAY_SWITCH_AR"},{"inputs":[[0,0,0],1],"is_active_output":true,"name":"aiSkyDomeLightShapeColor","outputs":[],"type":"SKYDOME_LIGHT_AR"}]},"profile":"maya"}},"name":"Verge3D_Environment"}],"meshes":[{"extensions":{"S8S_v3d_mesh":{}},"name":"cake:plateShape","primitives":[{"attributes":{"NORMAL":2,"POSITION":1,"TEXCOORD_0":3},"indices":0,"material":0,"mode":4}]},{"extensions":{"S8S_v3d_mesh":{}},"name":"cake:pCylinderShape14","primitives":[{"attributes":{"NORMAL":6,"POSITION":5,"TEXCOORD_0":7},"indices":4,"material":1,"mode":4},{"attributes":{"NORMAL":10,"POSITION":9,"TEXCOORD_0":11},"indices":8,"material":2,"mode":4}]},{"extensions":{"S8S_v3d_mesh":{}},"name":"cake:pCylinderShape15","primitives":[{"attributes":{"NORMAL":14,"POSITION":13,"TEXCOORD_0":15},"indices":12,"material":3,"mode":4}]},{"extensions":{"S8S_v3d_mesh":{}},"name":"cake:polySurfaceShape12","primitives":[{"attributes":{"NORMAL":18,"POSITION":17,"TEXCOORD_0":19},"indices":16,"material":4,"mode":4}]},{"extensions":{"S8S_v3d_mesh":{}},"name":"cake:pCubeShape27","primitives":[{"attributes":{"NORMAL":22,"POSITION":21,"TEXCOORD_0":23},"indices":20,"material":3,"mode":4},{"attributes":{"NORMAL":26,"POSITION":25,"TEXCOORD_0":27},"indices":24,"material":4,"mode":4}]}],"nodes":[{"extensions":{"S8S_v3d_node":{"hidden":false,"hidpiCompositing":false}},"name":"transform1","rotation":[0.0,0.0,0.0,1.0],"scale":[1.0,1.0,1.0],"translation":[0.0,0.0,0.0]},{"extensions":{"S8S_v3d_node":{"hidden":false,"hidpiCompositing":false}},"name":"transform2","rotation":[0.0,0.0,0.0,1.0],"scale":[1.0,1.0,1.0],"translation":[0.0,0.0,0.0]},{"extensions":{"S8S_v3d_node":{"hidden":false,"hidpiCompositing":false}},"name":"transform3","rotation":[0.0,0.0,0.0,1.0],"scale":[1.0,1.0,1.0],"translation":[0.0,0.0,0.0]},{"extensions":{"S8S_v3d_node":{"hidden":false,"hidpiCompositing":false}},"name":"transform4","rotation":[0.0,0.0,0.0,1.0],"scale":[1.0,1.0,1.0],"translation":[0.0,0.0,0.0]},{"extensions":{"S8S_v3d_node":{"hidden":false,"hidpiCompositing":false}},"name":"transform5","rotation":[0.0,0.0,0.0,1.0],"scale":[1.0,1.0,1.0],"translation":[0.0,0.0,0.0]},{"extensions":{"S8S_v3d_node":{"hidden":false,"hidpiCompositing":false}},"name":"level_1_furniture_v0:transform1","rotation":[0.0,0.0,0.0,1.0],"scale":[1.0,1.0,1.0],"translation":[0.0,0.0,0.0]},{"extensions":{"S8S_v3d_node":{"hidden":false,"hidpiCompositing":false}},"name":"level_1_furniture_v0:transform2","rotation":[0.0,0.0,0.0,1.0],"scale":[1.0,1.0,1.0],"translation":[0.0,0.0,0.0]},{"extensions":{"S8S_v3d_node":{"hidden":false,"hidpiCompositing":false}},"name":"level_1_furniture_v0:transform3","rotation":[0.0,0.0,0.0,1.0],"scale":[1.0,1.0,1.0],"translation":[0.0,0.0,0.0]},{"extensions":{"S8S_v3d_node":{"hidden":false,"hidpiCompositing":false}},"name":"level_1_furniture_v0:transform4","rotation":[0.0,0.0,0.0,1.0],"scale":[1.0,1.0,1.0],"translation":[0.0,0.0,0.0]},{"extensions":{"S8S_v3d_node":{"hidden":false,"hidpiCompositing":false}},"name":"level_1_furniture_v0:transform5","rotation":[0.0,0.0,0.0,1.0],"scale":[1.0,1.0,1.0],"translation":[0.0,0.0,0.0]},{"extensions":{"S8S_v3d_node":{"hidden":false,"hidpiCompositing":false}},"name":"level_1_furniture_v5:transform1","rotation":[0.0,0.0,0.0,1.0],"scale":[1.0,1.0,1.0],"translation":[0.0,0.0,0.0]},{"extensions":{"S8S_v3d_node":{"hidden":false,"hidpiCompositing":false}},"name":"level_1_furniture_v5:transform3","rotation":[0.0,0.0,0.0,1.0],"scale":[1.0,1.0,1.0],"translation":[0.0,0.0,0.0]},{"extensions":{"S8S_v3d_node":{"hidden":false,"hidpiCompositing":false}},"name":"level_1_furniture_v5:transform4","rotation":[0.0,0.0,0.0,1.0],"scale":[1.0,1.0,1.0],"translation":[0.0,0.0,0.0]},{"extensions":{"S8S_v3d_node":{"hidden":false,"hidpiCompositing":false}},"name":"level_1_furniture_v5:transform5","rotation":[0.0,0.0,0.0,1.0],"scale":[1.0,1.0,1.0],"translation":[0.0,0.0,0.0]},{"children":[15,20],"extensions":{"S8S_v3d_node":{"hidden":false,"hidpiCompositing":false}},"name":"cake:cake_knife","rotation":[0.0,0.0,0.0,1.0],"scale":[0.5,0.5,0.5],"translation":[2.4661654004508513,22.44450791050683,-7.595242146948469]},{"children":[16,17],"extensions":{"S8S_v3d_node":{"groupNames":["cake:cake_knife"],"hidden":false,"hidpiCompositing":false}},"name":"cake:Cake","rotation":[0.0,0.0,0.0,1.0],"scale":[1.0,1.0,1.0],"translation":[-9.003915889362485,0.0,8.735079001987378]},{"extensions":{"S8S_v3d_node":{"frustumCulling":true,"groupNames":["cake:Cake","cake:cake_knife"],"hidden":false,"hidpiCompositing":false,"renderOrder":0,"useCastShadows":true,"useShadows":true}},"mesh":0,"name":"cake:plate","rotation":[0.0,0.0,0.0,1.0],"scale":[3.0,0.05,3.0],"translation":[0.0,0.0,0.0]},{"children":[18,19],"extensions":{"S8S_v3d_node":{"groupNames":["cake:Cake","cake:cake_knife"],"hidden":false,"hidpiCompositing":false}},"name":"cake:cake_slice","rotation":[0.0,0.5001013131718967,0.0,0.8659669026953308],"scale":[1.0,1.0,1.0],"translation":[0.0,0.0,0.0]},{"extensions":{"S8S_v3d_node":{"frustumCulling":true,"groupNames":["cake:cake_slice","cake:Cake","cake:cake_knife"],"hidden":false,"hidpiCompositing":false,"renderOrder":0,"useCastShadows":true,"useShadows":true}},"mesh":1,"name":"cake:pCylinder14","rotation":[0.0,0.0,0.0,1.0],"scale":[2.846317191300457,1.4231585956502284,2.846317191300457],"translation":[-0.7684051160576644,1.5299743267254626,1.3669687320616397]},{"extensions":{"S8S_v3d_node":{"frustumCulling":true,"groupNames":["cake:cake_slice","cake:Cake","cake:cake_knife"],"hidden":false,"hidpiCompositing":false,"renderOrder":0,"useCastShadows":true,"useShadows":true}},"mesh":2,"name":"cake:pCylinder15","rotation":[0.0,0.0,0.0,1.0],"scale":[3.2390340601339394,1.6195170300669697,3.356876433376406],"translation":[-0.8754368933209697,1.615313661669386,1.7173326283828416]},{"children":[21,22],"extensions":{"S8S_v3d_node":{"groupNames":["cake:cake_knife"],"hidden":false,"hidpiCompositing":false}},"name":"cake:Knife","rotation":[0.020157615944958015,-0.04613717676127189,-0.04279179678498383,0.9978145587070912],"scale":[0.8783193109790935,0.8783193109790937,0.8783193109790937],"translation":[-6.883198928554439,0.631944021668521,5.783718136976169]},{"extensions":{"S8S_v3d_node":{"frustumCulling":true,"groupNames":["cake:Knife","cake:cake_knife"],"hidden":false,"hidpiCompositing":false,"renderOrder":0,"useCastShadows":true,"useShadows":true}},"mesh":3,"name":"cake:polySurface10","rotation":[0.0,0.0,0.0,1.0],"scale":[1.0,1.0,1.0],"translation":[0.0,0.0,0.0]},{"extensions":{"S8S_v3d_node":{"frustumCulling":true,"groupNames":["cake:Knife","cake:cake_knife"],"hidden":false,"hidpiCompositing":false,"renderOrder":0,"useCastShadows":true,"useShadows":true}},"mesh":4,"name":"cake:pCube27","rotation":[0.0,0.0,0.0,1.0],"scale":[1.0,0.5623486536948591,3.822863646644975],"translation":[0.0,0.0,0.0]},{"camera":0,"children":[24],"extensions":{"S8S_v3d_node":{"hidden":true,"hidpiCompositing":false}},"name":"persp","rotation":[-0.15351144081195806,0.3852593442464495,0.06516174062471375,0.9076141375988973],"scale":[1.0,1.0,1.0],"translation":[21.516596468095063,40.83475189752233,15.247871031967982]},{"extensions":{"S8S_v3d_lights":{"light":0}},"name":"__DEFAULT_LIGHT__","rotation":[-0.13052619222005157,-0.0,-0.0,0.9914448613738104],"translation":[21.516596468095063,40.83475189752233,15.247871031967982]}],"scene":0,"scenes":[{"extensions":{"S8S_v3d_scene":{"aaMethod":"AUTO","iblEnvironmentMode":"PMREM","physicallyCorrectLights":true,"shadowMap":{"esmDistanceScale":2.5,"renderReverseSided":false,"renderSingleSided":true,"type":"PCFPOISSON"},"unitsScaleFactor":1.0,"useHDR":false,"worldMaterial":6}},"extras":{"animFrameRate":24.0,"coordSystem":"Y_UP_RIGHT"},"name":"Scene","nodes":[0,1,2,3,4,5,6,7,8,9,10,11,12,13,14,23]}]}