{"accessors":[{"bufferView":0,"componentType":5123,"count":12354,"max":[4220],"min":[0],"type":"SCALAR"},{"bufferView":1,"componentType":5126,"count":4221,"max":[105.53297424316406,104.88386535644531,127.89608001708984],"min":[-88.6329116821289,-0.38022398948669434,-128.18875122070312],"type":"VEC3"},{"bufferView":2,"componentType":5126,"count":4221,"max":[0.999625027179718,0.9999014139175415,1.0],"min":[-0.999097466468811,-0.9994208812713623,-1.0],"type":"VEC3"},{"bufferView":3,"componentType":5126,"count":4221,"max":[0.5521939992904663,0.9533270001411438],"min":[0,0],"type":"VEC2"}],"asset":{"copyright":null,"generator":"Soft8Soft Verge3D for Maya plug-in","version":"2.0"},"bufferViews":[{"buffer":0,"byteLength":24708,"byteOffset":0,"target":34963},{"buffer":0,"byteLength":50652,"byteOffset":24708,"target":34962},{"buffer":0,"byteLength":50652,"byteOffset":75360,"target":34962},{"buffer":0,"byteLength":33768,"byteOffset":126012,"target":34962}],"buffers":[{"byteLength":159780,"uri":"plane.bin"}],"cameras":[{"extensions":{"S8S_v3d_camera":{"controls":"ORBIT","enablePan":true,"moveSpeed":1.0,"orbitMaxDistance":1000.0,"orbitMaxPolarAngle":3.141592653589793,"orbitMaxZoom":100.0,"orbitMinDistance":0.0,"orbitMinPolarAngle":0.0,"orbitMinZoom":0.009999999776482582,"orbitTarget":[2.842170943040401e-14,-2.842170943040401e-14,0.0],"rotateSpeed":1.0,"viewportFitInitialAspect":1.5,"viewportFitType":"HORIZONTAL"}},"name":"perspShape","perspective":{"aspectRatio":1.5,"yfov":0.6605947096585075,"zfar":10000.0,"znear":0.1},"type":"perspective"}],"extensions":{"S8S_v3d_lights":{"lights":[{"color":[1,1,1],"intensity":2.5,"name":"__DEFAULT__","profile":"maya","type":"directional"}]}},"extensionsUsed":["S8S_v3d_materials","S8S_v3d_lights","S8S_v3d_camera","S8S_v3d_mesh","S8S_v3d_node","S8S_v3d_scene"],"materials":[{"extensions":{"S8S_v3d_materials":{"gtaoVisible":true,"nodeGraph":{"edges":[{"fromNode":1,"fromOutput":0,"toInput":0,"toNode":0}],"nodes":[{"inputs":[[0.0,0.0,0.0,1],[0,0,0,0],[0,0,0]],"is_active_output":true,"name":"phongE1SG","outputs":[],"type":"SHADING_ENGINE_MY"},{"inputs":[[0.33329999446868896,0.11760000139474869,0.7450000047683716],[0.0,0.0,0.0],[0.0,0.0,0.0],1.0,0.800000011920929,[1.0,1.0,1.0],0.5,[0.0,0.0,0.0],0.5,0.5,[0.5,0.5,0.5],0.0,[0.0,0.0,0.0]],"name":"purple_phongE","outputs":[[0.0,0.0,0.0,0]],"type":"PHONG_E_MY"}]},"profile":"maya"}},"name":"purple_phongE"},{"extensions":{"S8S_v3d_materials":{"nodeGraph":{"edges":[{"fromNode":0,"fromOutput":0,"toInput":0,"toNode":1}],"nodes":[{"inputs":[[0.10653923276464054,0.10653923276464054,0.10653923276464054],[0,0,0],[0,0,0],[0,0,0],[0,0,0],[0,0,0]],"name":"aiRaySwitchColor","outputs":[[0,0,0],0],"type":"RAY_SWITCH_AR"},{"inputs":[[0,0,0],1],"is_active_output":true,"name":"aiSkyDomeLightShapeColor","outputs":[],"type":"SKYDOME_LIGHT_AR"}]},"profile":"maya"}},"name":"Verge3D_Environment"}],"meshes":[{"extensions":{"S8S_v3d_mesh":{}},"name":"level4_allobjects:planeShape","primitives":[{"attributes":{"NORMAL":2,"POSITION":1,"TEXCOORD_0":3},"indices":0,"material":0,"mode":4}]}],"nodes":[{"extensions":{"S8S_v3d_node":{"frustumCulling":true,"hidden":false,"hidpiCompositing":false,"renderOrder":0,"useCastShadows":true,"useShadows":true}},"mesh":0,"name":"level4_allobjects:plane","rotation":[-0.5000000000000001,0.4999999999999999,-0.5,0.5000000000000001],"scale":[0.034720080034293506,0.034720080034293506,0.034720080034293506],"translation":[-6.661570403785324,58.46969557151108,-25.934341927158428]},{"camera":0,"children":[2],"extensions":{"S8S_v3d_node":{"hidden":true,"hidpiCompositing":false}},"name":"persp","rotation":[-0.2230243961057575,0.37136585056309357,0.09237972960707397,0.8965564730316413],"scale":[1.0,1.0,1.0],"translation":[207.20752150007146,155.40564112505376,207.2075215000716]},{"extensions":{"S8S_v3d_lights":{"light":0}},"name":"__DEFAULT_LIGHT__","rotation":[-0.13052619222005157,-0.0,-0.0,0.9914448613738104],"translation":[207.20752150007146,155.40564112505376,207.2075215000716]}],"scene":0,"scenes":[{"extensions":{"S8S_v3d_scene":{"aaMethod":"AUTO","iblEnvironmentMode":"PMREM","physicallyCorrectLights":true,"shadowMap":{"esmDistanceScale":2.5,"renderReverseSided":false,"renderSingleSided":true,"type":"PCFPOISSON"},"unitsScaleFactor":1.0,"useHDR":false,"worldMaterial":1}},"extras":{"animFrameRate":24.0,"coordSystem":"Y_UP_RIGHT"},"name":"Scene","nodes":[0,1]}]}