{"accessors":[{"bufferView":0,"componentType":5123,"count":14760,"max":[2629],"min":[0],"type":"SCALAR"},{"bufferView":1,"componentType":5126,"count":2630,"max":[1.0756895542144775,1.6492823362350464,1.0756895542144775],"min":[-1.0756895542144775,-1.1299329996109009,-1.0756900310516357],"type":"VEC3"},{"bufferView":2,"componentType":5126,"count":2630,"max":[0.9999943971633911,0.9990569353103638,0.9999943971633911],"min":[-0.9999943971633911,-1.0,-0.9999943971633911],"type":"VEC3"},{"bufferView":3,"componentType":5126,"count":2630,"max":[1.0000001192092896,1.0],"min":[-7.450580152834618e-10,0.055620551109313965],"type":"VEC2"},{"bufferView":4,"componentType":5123,"count":4200,"max":[845],"min":[0],"type":"SCALAR"},{"bufferView":5,"componentType":5126,"count":846,"max":[0.1822846531867981,1.7359704971313477,0.1822846680879593],"min":[-0.1822846382856369,1.6492822170257568,-0.1822846680879593],"type":"VEC3"},{"bufferView":6,"componentType":5126,"count":846,"max":[0.999744713306427,1.0,0.999744713306427],"min":[-0.999744713306427,0.02259116619825363,-0.9997447729110718],"type":"VEC3"},{"bufferView":7,"componentType":5126,"count":846,"max":[1.0000001192092896,0.05562061071395874],"min":[0.0,0.0],"type":"VEC2"},{"bufferView":8,"componentType":5123,"count":15240,"max":[2713],"min":[0],"type":"SCALAR"},{"bufferView":9,"componentType":5126,"count":2714,"max":[1.0756895542144775,1.6538007259368896,1.0756895542144775],"min":[-1.0756895542144775,-1.1299329996109009,-1.0756900310516357],"type":"VEC3"},{"bufferView":10,"componentType":5126,"count":2714,"max":[0.9999943971633911,0.9990569353103638,0.9999943971633911],"min":[-0.9999943971633911,-1.0,-0.9999943971633911],"type":"VEC3"},{"bufferView":11,"componentType":5126,"count":2714,"max":[1.0000001192092896,1.0],"min":[-7.450580152834618e-10,0.05559241771697998],"type":"VEC2"},{"bufferView":12,"componentType":5123,"count":3720,"max":[761],"min":[0],"type":"SCALAR"},{"bufferView":13,"componentType":5126,"count":762,"max":[0.18069988489151,1.7359704971313477,0.18069988489151],"min":[-0.18069988489151,1.6538004875183105,-0.18069988489151],"type":"VEC3"},{"bufferView":14,"componentType":5126,"count":762,"max":[0.999744713306427,1.0,0.999744713306427],"min":[-0.999744713306427,0.02259116619825363,-0.9997447729110718],"type":"VEC3"},{"bufferView":15,"componentType":5126,"count":762,"max":[1.0000001192092896,0.055620551109313965],"min":[0.0,0.0],"type":"VEC2"},{"bufferView":16,"componentType":5123,"count":2328,"max":[679],"min":[0],"type":"SCALAR"},{"bufferView":17,"componentType":5126,"count":680,"max":[0.009999990463256836,13.731605529785156,1.7051732540130615],"min":[-0.009999990463256836,6.865514755249023,-0.0086465859785676],"type":"VEC3"},{"bufferView":18,"componentType":5126,"count":680,"max":[0.9659274220466614,1.0,0.999981701374054],"min":[-0.9659274220466614,-1.0,-0.9999816417694092],"type":"VEC3"},{"bufferView":19,"componentType":5126,"count":680,"max":[0.65625,0.3125],"min":[0.34375,0.0],"type":"VEC2"},{"bufferView":20,"componentType":5123,"count":1860,"max":[514],"min":[0],"type":"SCALAR"},{"bufferView":21,"componentType":5126,"count":515,"max":[0.009999999776482582,15.395009994506836,0.009977243840694427],"min":[-0.009999999776482582,7.697165489196777,-1.7414307594299316],"type":"VEC3"},{"bufferView":22,"componentType":5126,"count":515,"max":[0.9659296870231628,0.9977049231529236,0.9999998807907104],"min":[-0.9659296870231628,-1.0,-1.0],"type":"VEC3"},{"bufferView":23,"componentType":5126,"count":515,"max":[0.65625,0.3125],"min":[0.34375,0.0],"type":"VEC2"}],"asset":{"copyright":null,"generator":"Soft8Soft Verge3D for Maya plug-in","version":"2.0"},"bufferViews":[{"buffer":0,"byteLength":29520,"byteOffset":0,"target":34963},{"buffer":0,"byteLength":31560,"byteOffset":29520,"target":34962},{"buffer":0,"byteLength":31560,"byteOffset":61080,"target":34962},{"buffer":0,"byteLength":21040,"byteOffset":92640,"target":34962},{"buffer":0,"byteLength":8400,"byteOffset":113680,"target":34963},{"buffer":0,"byteLength":10152,"byteOffset":122080,"target":34962},{"buffer":0,"byteLength":10152,"byteOffset":132232,"target":34962},{"buffer":0,"byteLength":6768,"byteOffset":142384,"target":34962},{"buffer":0,"byteLength":30480,"byteOffset":149152,"target":34963},{"buffer":0,"byteLength":32568,"byteOffset":179632,"target":34962},{"buffer":0,"byteLength":32568,"byteOffset":212200,"target":34962},{"buffer":0,"byteLength":21712,"byteOffset":244768,"target":34962},{"buffer":0,"byteLength":7440,"byteOffset":266480,"target":34963},{"buffer":0,"byteLength":9144,"byteOffset":273920,"target":34962},{"buffer":0,"byteLength":9144,"byteOffset":283064,"target":34962},{"buffer":0,"byteLength":6096,"byteOffset":292208,"target":34962},{"buffer":0,"byteLength":4656,"byteOffset":298304,"target":34963},{"buffer":0,"byteLength":8160,"byteOffset":302960,"target":34962},{"buffer":0,"byteLength":8160,"byteOffset":311120,"target":34962},{"buffer":0,"byteLength":5440,"byteOffset":319280,"target":34962},{"buffer":0,"byteLength":3720,"byteOffset":324720,"target":34963},{"buffer":0,"byteLength":6180,"byteOffset":328440,"target":34962},{"buffer":0,"byteLength":6180,"byteOffset":334620,"target":34962},{"buffer":0,"byteLength":4120,"byteOffset":340800,"target":34962}],"buffers":[{"byteLength":344920,"uri":"balloons-v1.bin"}],"cameras":[{"extensions":{"S8S_v3d_camera":{"controls":"ORBIT","enablePan":true,"moveSpeed":1.0,"orbitMaxDistance":1000.0,"orbitMaxPolarAngle":3.141592653589793,"orbitMaxZoom":100.0,"orbitMinDistance":0.0,"orbitMinPolarAngle":0.0,"orbitMinZoom":0.009999999776482582,"orbitTarget":[0.19196326198852987,30.51136513786506,-5.345087882058227],"rotateSpeed":1.0,"viewportFitInitialAspect":1.5,"viewportFitType":"HORIZONTAL"}},"name":"perspShape","perspective":{"aspectRatio":1.5,"yfov":0.6605947096585076,"zfar":10000.0,"znear":0.1},"type":"perspective"}],"extensions":{"S8S_v3d_lights":{"lights":[{"color":[1,1,1],"intensity":2.5,"name":"__DEFAULT__","profile":"maya","type":"directional"}]}},"extensionsUsed":["S8S_v3d_materials","S8S_v3d_lights","S8S_v3d_camera","S8S_v3d_mesh","S8S_v3d_node","S8S_v3d_scene"],"materials":[{"alphaMode":"BLEND","extensions":{"S8S_v3d_materials":{"gtaoVisible":true,"nodeGraph":{"edges":[{"fromNode":1,"fromOutput":0,"toInput":0,"toNode":0}],"nodes":[{"inputs":[[0.0,0.0,0.0,1],[0,0,0,0],[0,0,0]],"is_active_output":true,"name":"standardSurface3SG","outputs":[],"type":"SHADING_ENGINE_MY"},{"inputs":[[0.9606999754905701,0.4900999963283539,0.5098000168800354],[0.0,0.0,0.0],[0.0,0.0,0.0],1.0,0.800000011920929,[1.0,1.0,1.0],0.5,[0.0,0.0,0.0],0.5,0.5,[1.0,1.0,1.0],0.0,[0.3717948794364929,0.3717948794364929,0.3717948794364929]],"name":"pink_phong_transparent","outputs":[[0.0,0.0,0.0,0]],"type":"PHONG_E_MY"}]},"profile":"maya"}},"name":"pink_phong_transparent"},{"extensions":{"S8S_v3d_materials":{"gtaoVisible":true,"nodeGraph":{"edges":[{"fromNode":1,"fromOutput":0,"toInput":0,"toNode":0}],"nodes":[{"inputs":[[0.0,0.0,0.0,1],[0,0,0,0],[0,0,0]],"is_active_output":true,"name":"phongE1SG","outputs":[],"type":"SHADING_ENGINE_MY"},{"inputs":[[0.33329999446868896,0.11760000139474869,0.7450000047683716],[0.0,0.0,0.0],[0.0,0.0,0.0],1.0,0.800000011920929,[1.0,1.0,1.0],0.5,[0.0,0.0,0.0],0.5,0.5,[0.5,0.5,0.5],0.0,[0.0,0.0,0.0]],"name":"purple_phongE","outputs":[[0.0,0.0,0.0,0]],"type":"PHONG_E_MY"}]},"profile":"maya"}},"name":"purple_phongE"},{"extensions":{"S8S_v3d_materials":{"gtaoVisible":true,"nodeGraph":{"edges":[{"fromNode":1,"fromOutput":0,"toInput":0,"toNode":0}],"nodes":[{"inputs":[[0.0,0.0,0.0,1],[0,0,0,0],[0,0,0]],"is_active_output":true,"name":"lambert9SG","outputs":[],"type":"SHADING_ENGINE_MY"},{"inputs":[[0.3921000063419342,0.8626999855041504,0.7843000292778015],[0.0,0.0,0.0],[0.0,0.0,0.0],1.0,0.800000011920929,[1.0,1.0,1.0],0.0,[0.0,0.0,0.0]],"name":"blue_lambert","outputs":[[0.0,0.0,0.0,0]],"type":"LAMBERT_MY"}]},"profile":"maya"}},"name":"blue_lambert"},{"extensions":{"S8S_v3d_materials":{"nodeGraph":{"edges":[{"fromNode":0,"fromOutput":0,"toInput":0,"toNode":1}],"nodes":[{"inputs":[[0.10653923276464054,0.10653923276464054,0.10653923276464054],[0,0,0],[0,0,0],[0,0,0],[0,0,0],[0,0,0]],"name":"aiRaySwitchColor","outputs":[[0,0,0],0],"type":"RAY_SWITCH_AR"},{"inputs":[[0,0,0],1],"is_active_output":true,"name":"aiSkyDomeLightShapeColor","outputs":[],"type":"SKYDOME_LIGHT_AR"}]},"profile":"maya"}},"name":"Verge3D_Environment"}],"meshes":[{"extensions":{"S8S_v3d_mesh":{}},"name":"baloons:pSphereShape3","primitives":[{"attributes":{"NORMAL":2,"POSITION":1,"TEXCOORD_0":3},"indices":0,"material":0,"mode":4},{"attributes":{"NORMAL":6,"POSITION":5,"TEXCOORD_0":7},"indices":4,"material":1,"mode":4}]},{"extensions":{"S8S_v3d_mesh":{}},"name":"baloons:pSphereShape4","primitives":[{"attributes":{"NORMAL":10,"POSITION":9,"TEXCOORD_0":11},"indices":8,"material":0,"mode":4},{"attributes":{"NORMAL":14,"POSITION":13,"TEXCOORD_0":15},"indices":12,"material":1,"mode":4}]},{"extensions":{"S8S_v3d_mesh":{}},"name":"baloons:pCylinderShape17","primitives":[{"attributes":{"NORMAL":18,"POSITION":17,"TEXCOORD_0":19},"indices":16,"material":2,"mode":4}]},{"extensions":{"S8S_v3d_mesh":{}},"name":"baloons:pCylinderShape18","primitives":[{"attributes":{"NORMAL":22,"POSITION":21,"TEXCOORD_0":23},"indices":20,"material":2,"mode":4}]}],"nodes":[{"extensions":{"S8S_v3d_node":{"hidden":false,"hidpiCompositing":false}},"name":"transform1","rotation":[0.0,0.0,0.0,1.0],"scale":[1.0,1.0,1.0],"translation":[0.0,0.0,0.0]},{"extensions":{"S8S_v3d_node":{"hidden":false,"hidpiCompositing":false}},"name":"transform2","rotation":[0.0,0.0,0.0,1.0],"scale":[1.0,1.0,1.0],"translation":[0.0,0.0,0.0]},{"extensions":{"S8S_v3d_node":{"hidden":false,"hidpiCompositing":false}},"name":"transform3","rotation":[0.0,0.0,0.0,1.0],"scale":[1.0,1.0,1.0],"translation":[0.0,0.0,0.0]},{"extensions":{"S8S_v3d_node":{"hidden":false,"hidpiCompositing":false}},"name":"transform4","rotation":[0.0,0.0,0.0,1.0],"scale":[1.0,1.0,1.0],"translation":[0.0,0.0,0.0]},{"extensions":{"S8S_v3d_node":{"hidden":false,"hidpiCompositing":false}},"name":"transform5","rotation":[0.0,0.0,0.0,1.0],"scale":[1.0,1.0,1.0],"translation":[0.0,0.0,0.0]},{"extensions":{"S8S_v3d_node":{"hidden":false,"hidpiCompositing":false}},"name":"level_1_furniture_v0:transform1","rotation":[0.0,0.0,0.0,1.0],"scale":[1.0,1.0,1.0],"translation":[0.0,0.0,0.0]},{"extensions":{"S8S_v3d_node":{"hidden":false,"hidpiCompositing":false}},"name":"level_1_furniture_v0:transform2","rotation":[0.0,0.0,0.0,1.0],"scale":[1.0,1.0,1.0],"translation":[0.0,0.0,0.0]},{"extensions":{"S8S_v3d_node":{"hidden":false,"hidpiCompositing":false}},"name":"level_1_furniture_v0:transform3","rotation":[0.0,0.0,0.0,1.0],"scale":[1.0,1.0,1.0],"translation":[0.0,0.0,0.0]},{"extensions":{"S8S_v3d_node":{"hidden":false,"hidpiCompositing":false}},"name":"level_1_furniture_v0:transform4","rotation":[0.0,0.0,0.0,1.0],"scale":[1.0,1.0,1.0],"translation":[0.0,0.0,0.0]},{"extensions":{"S8S_v3d_node":{"hidden":false,"hidpiCompositing":false}},"name":"level_1_furniture_v0:transform5","rotation":[0.0,0.0,0.0,1.0],"scale":[1.0,1.0,1.0],"translation":[0.0,0.0,0.0]},{"extensions":{"S8S_v3d_node":{"hidden":false,"hidpiCompositing":false}},"name":"level_1_furniture_v5:transform1","rotation":[0.0,0.0,0.0,1.0],"scale":[1.0,1.0,1.0],"translation":[0.0,0.0,0.0]},{"extensions":{"S8S_v3d_node":{"hidden":false,"hidpiCompositing":false}},"name":"level_1_furniture_v5:transform3","rotation":[0.0,0.0,0.0,1.0],"scale":[1.0,1.0,1.0],"translation":[0.0,0.0,0.0]},{"extensions":{"S8S_v3d_node":{"hidden":false,"hidpiCompositing":false}},"name":"level_1_furniture_v5:transform4","rotation":[0.0,0.0,0.0,1.0],"scale":[1.0,1.0,1.0],"translation":[0.0,0.0,0.0]},{"extensions":{"S8S_v3d_node":{"hidden":false,"hidpiCompositing":false}},"name":"level_1_furniture_v5:transform5","rotation":[0.0,0.0,0.0,1.0],"scale":[1.0,1.0,1.0],"translation":[0.0,0.0,0.0]},{"children":[15,16,17,18],"extensions":{"S8S_v3d_node":{"hidden":false,"hidpiCompositing":false}},"name":"baloons:baloons","rotation":[0.7071067811865475,0.0,0.0,0.7071067811865477],"scale":[0.6,0.6,0.6],"translation":[-5.394562266545601,13.1394484689406,4.994815235778397]},{"extensions":{"S8S_v3d_node":{"frustumCulling":true,"groupNames":["baloons:baloons"],"hidden":false,"hidpiCompositing":false,"renderOrder":0,"useCastShadows":true,"useShadows":true}},"mesh":0,"name":"baloons:pSphere3","rotation":[0.0,0.0,0.0,1.0],"scale":[1.2,1.2,1.2],"translation":[0.0,8.928429093983283,-1.729944813231658]},{"extensions":{"S8S_v3d_node":{"frustumCulling":true,"groupNames":["baloons:baloons"],"hidden":false,"hidpiCompositing":false,"renderOrder":0,"useCastShadows":true,"useShadows":true}},"mesh":1,"name":"baloons:pSphere4","rotation":[0.0,0.0,0.0,1.0],"scale":[1.2,1.2,1.2],"translation":[0.0,8.072801049019292,1.6872351171504534]},{"extensions":{"S8S_v3d_node":{"frustumCulling":true,"groupNames":["baloons:baloons"],"hidden":false,"hidpiCompositing":false,"renderOrder":0,"useCastShadows":true,"useShadows":true}},"mesh":2,"name":"baloons:pCylinder17","rotation":[0.0,0.0,-1.0,6.123233995736766e-17],"scale":[1.0,1.0,1.0],"translation":[-8.407830783707143e-16,13.731029696988555,0.0]},{"extensions":{"S8S_v3d_node":{"frustumCulling":true,"groupNames":["baloons:baloons"],"hidden":false,"hidpiCompositing":false,"renderOrder":0,"useCastShadows":true,"useShadows":true}},"mesh":3,"name":"baloons:pCylinder18","rotation":[0.0,0.0,-1.0,6.123233995736766e-17],"scale":[1.0,1.0,1.0],"translation":[-9.42630927825541e-16,15.394331304043538,0.0]},{"camera":0,"children":[20],"extensions":{"S8S_v3d_node":{"hidden":true,"hidpiCompositing":false}},"name":"persp","rotation":[0.3716334183670306,-0.16713736658401485,0.06820749586555964,0.9106598929084041],"scale":[0.9999999999999999,1.0,1.0],"translation":[-9.597932168026638,3.5139392247495658,20.426993733347878]},{"extensions":{"S8S_v3d_lights":{"light":0}},"name":"__DEFAULT_LIGHT__","rotation":[-0.13052619222005157,-0.0,-0.0,0.9914448613738104],"translation":[-9.597932168026638,3.5139392247495658,20.426993733347878]}],"scene":0,"scenes":[{"extensions":{"S8S_v3d_scene":{"aaMethod":"AUTO","iblEnvironmentMode":"PMREM","physicallyCorrectLights":true,"shadowMap":{"esmDistanceScale":2.5,"renderReverseSided":false,"renderSingleSided":true,"type":"PCFPOISSON"},"unitsScaleFactor":1.0,"useHDR":false,"worldMaterial":3}},"extras":{"animFrameRate":24.0,"coordSystem":"Y_UP_RIGHT"},"name":"Scene","nodes":[0,1,2,3,4,5,6,7,8,9,10,11,12,13,14,19]}]}