{"accessors":[{"bufferView":0,"componentType":5123,"count":1008,"max":[233],"min":[0],"type":"SCALAR"},{"bufferView":1,"componentType":5126,"count":234,"max":[5.316379070281982,5.8933491706848145,4.918625831604004],"min":[-0.25990399718284607,0.09156399965286255,-4.91862678527832],"type":"VEC3"},{"bufferView":2,"componentType":5126,"count":234,"max":[0.9916735291481018,0.9964163303375244,1.0],"min":[-0.9916736483573914,-0.9964162111282349,-1.0],"type":"VEC3"},{"bufferView":3,"componentType":5126,"count":234,"max":[0.9876620173454285,0.9887509997934103],"min":[0.020090000703930855,0.016627013683319092],"type":"VEC2"},{"bufferView":4,"componentType":5123,"count":2568,"max":[899],"min":[0],"type":"SCALAR"},{"bufferView":5,"componentType":5126,"count":900,"max":[3.8152639865875244,8.092619895935059,4.109023094177246],"min":[-3.8152639865875244,0.2783080041408539,-4.109023094177246],"type":"VEC3"},{"bufferView":6,"componentType":5126,"count":900,"max":[1.0,1.0,1.0],"min":[-1.0,-1.0,-1.0],"type":"VEC3"},{"bufferView":7,"componentType":5126,"count":900,"max":[0.937628984451294,0.9907759996131063],"min":[0.010483000427484512,0.006739974021911621],"type":"VEC2"},{"bufferView":8,"componentType":5123,"count":1506,"max":[490],"min":[0],"type":"SCALAR"},{"bufferView":9,"componentType":5126,"count":491,"max":[87.9107666015625,200.27439880371094,62.280643463134766],"min":[-87.89916229248047,-100.80939483642578,-62.28068923950195],"type":"VEC3"},{"bufferView":10,"componentType":5126,"count":491,"max":[1.0,1.0,1.0],"min":[-1.0,-1.0,-1.0],"type":"VEC3"},{"bufferView":11,"componentType":5126,"count":491,"max":[0.9897576570510864,0.9679528474807739],"min":[0.01494741439819336,0.04141569137573242],"type":"VEC2"},{"bufferView":12,"componentType":5126,"count":491,"max":[0.8899712562561035,0.9223116636276245],"min":[0.1163896918296814,0.08268940448760986],"type":"VEC2"}],"asset":{"copyright":null,"generator":"Soft8Soft Verge3D for Maya plug-in","version":"2.0"},"bufferViews":[{"buffer":0,"byteLength":2016,"byteOffset":0,"target":34963},{"buffer":0,"byteLength":2808,"byteOffset":2016,"target":34962},{"buffer":0,"byteLength":2808,"byteOffset":4824,"target":34962},{"buffer":0,"byteLength":1872,"byteOffset":7632,"target":34962},{"buffer":0,"byteLength":5136,"byteOffset":9504,"target":34963},{"buffer":0,"byteLength":10800,"byteOffset":14640,"target":34962},{"buffer":0,"byteLength":10800,"byteOffset":25440,"target":34962},{"buffer":0,"byteLength":7200,"byteOffset":36240,"target":34962},{"buffer":0,"byteLength":3012,"byteOffset":43440,"target":34963},{"buffer":0,"byteLength":5892,"byteOffset":46452,"target":34962},{"buffer":0,"byteLength":5892,"byteOffset":52344,"target":34962},{"buffer":0,"byteLength":3928,"byteOffset":58236,"target":34962},{"buffer":0,"byteLength":3928,"byteOffset":62164,"target":34962}],"buffers":[{"byteLength":66092,"uri":"paint-bucket.bin"}],"cameras":[{"extensions":{"S8S_v3d_camera":{"controls":"ORBIT","enablePan":true,"moveSpeed":1.0,"orbitMaxDistance":1000.0,"orbitMaxPolarAngle":3.141592653589793,"orbitMaxZoom":100.0,"orbitMinDistance":0.0,"orbitMinPolarAngle":0.0,"orbitMinZoom":0.009999999776482582,"orbitTarget":[4.263256414560601e-14,0.0,1.4210854715202004e-14],"rotateSpeed":1.0,"viewportFitInitialAspect":1.5,"viewportFitType":"HORIZONTAL"}},"name":"perspShape","perspective":{"aspectRatio":1.5,"yfov":0.6605947096585075,"zfar":10000.0,"znear":0.1},"type":"perspective"}],"extensions":{"S8S_v3d_lights":{"lights":[{"color":[1,1,1],"intensity":2.5,"name":"__DEFAULT__","profile":"maya","type":"directional"}]}},"extensionsUsed":["S8S_v3d_materials","S8S_v3d_lights","S8S_v3d_camera","S8S_v3d_mesh","S8S_v3d_node","S8S_v3d_scene"],"materials":[{"extensions":{"S8S_v3d_materials":{"gtaoVisible":true,"nodeGraph":{"edges":[{"fromNode":1,"fromOutput":0,"toInput":0,"toNode":0}],"nodes":[{"inputs":[[0.0,0.0,0.0,1],[0,0,0,0],[0,0,0]],"is_active_output":true,"name":"blinn2SG","outputs":[],"type":"SHADING_ENGINE_MY"},{"inputs":[[0.9606999754905701,0.4900999963283539,0.5098000168800354],[0.0,0.0,0.0],[0.0,0.0,0.0],1.0,0.800000011920929,[1.0,1.0,1.0],0.5,[0.0,0.0,0.0],0.30000001192092896,[0.5,0.5,0.5],0.699999988079071,0.0,[0.0,0.0,0.0]],"name":"pink_blinn","outputs":[[0.0,0.0,0.0,0]],"type":"BLINN_MY"}]},"profile":"maya"}},"name":"pink_blinn"},{"extensions":{"S8S_v3d_materials":{"nodeGraph":{"edges":[{"fromNode":0,"fromOutput":0,"toInput":0,"toNode":1}],"nodes":[{"inputs":[[0.10653923276464054,0.10653923276464054,0.10653923276464054],[0,0,0],[0,0,0],[0,0,0],[0,0,0],[0,0,0]],"name":"aiRaySwitchColor","outputs":[[0,0,0],0],"type":"RAY_SWITCH_AR"},{"inputs":[[0,0,0],1],"is_active_output":true,"name":"aiSkyDomeLightShapeColor","outputs":[],"type":"SKYDOME_LIGHT_AR"}]},"profile":"maya"}},"name":"Verge3D_Environment"}],"meshes":[{"extensions":{"S8S_v3d_mesh":{}},"name":"level2_allobjects:bucket:pCylinder4Shape","primitives":[{"attributes":{"NORMAL":2,"POSITION":1,"TEXCOORD_0":3},"indices":0,"material":0,"mode":4}]},{"extensions":{"S8S_v3d_mesh":{}},"name":"level2_allobjects:bucket:pCylinder3Shape","primitives":[{"attributes":{"NORMAL":6,"POSITION":5,"TEXCOORD_0":7},"indices":4,"material":0,"mode":4}]},{"extensions":{"S8S_v3d_mesh":{}},"name":"level2_allobjects:brushShape","primitives":[{"attributes":{"NORMAL":10,"POSITION":9,"TEXCOORD_0":11,"TEXCOORD_1":12},"indices":8,"material":0,"mode":4}]}],"nodes":[{"children":[1,4],"extensions":{"S8S_v3d_node":{"hidden":false,"hidpiCompositing":false}},"name":"level2_allobjects:bucket_brush","rotation":[0.0,0.0,-0.7071067811865475,0.7071067811865477],"scale":[0.2401697023374398,0.2401697023374398,0.2401697023374398],"translation":[3.7313554799799586,30.310513590831633,-8.730463327360212]},{"children":[2,3],"extensions":{"S8S_v3d_node":{"groupNames":["level2_allobjects:bucket_brush"],"hidden":false,"hidpiCompositing":false}},"name":"level2_allobjects:bucket1","rotation":[0.0,0.0,0.0,1.0],"scale":[1.0,1.0,1.0],"translation":[2.957718665085663e-14,-0.03531409448974275,-42.29315724561238]},{"extensions":{"S8S_v3d_node":{"frustumCulling":true,"groupNames":["level2_allobjects:bucket1","level2_allobjects:bucket_brush"],"hidden":false,"hidpiCompositing":false,"renderOrder":0,"useCastShadows":true,"useShadows":true}},"mesh":0,"name":"level2_allobjects:bucket:pCylinder4","rotation":[0.0,0.0,0.0,1.0],"scale":[1.0,1.0,1.0],"translation":[0.0,0.0,0.0]},{"extensions":{"S8S_v3d_node":{"frustumCulling":true,"groupNames":["level2_allobjects:bucket1","level2_allobjects:bucket_brush"],"hidden":false,"hidpiCompositing":false,"renderOrder":0,"useCastShadows":true,"useShadows":true}},"mesh":1,"name":"level2_allobjects:bucket:pCylinder3","rotation":[0.0,0.0,0.0,1.0],"scale":[1.0,1.0,1.0],"translation":[0.0,0.0,0.0]},{"extensions":{"S8S_v3d_node":{"frustumCulling":true,"groupNames":["level2_allobjects:bucket_brush"],"hidden":false,"hidpiCompositing":false,"renderOrder":0,"useCastShadows":true,"useShadows":true}},"mesh":2,"name":"level2_allobjects:brush","rotation":[-0.6931788225576192,0.1396535712312161,0.139653571231216,0.6931788225576199],"scale":[0.021330393537225954,0.037404938615100095,0.009495042568099807],"translation":[-6.041209234311635,0.6912565781874029,-40.33980737914288]},{"camera":0,"children":[6],"extensions":{"S8S_v3d_node":{"hidden":true,"hidpiCompositing":false}},"name":"persp","rotation":[-0.2230243961057575,0.37136585056309357,0.09237972960707397,0.8965564730316413],"scale":[1.0,1.0,1.0],"translation":[120.04332610843605,90.03249458132713,120.04332610843613]},{"extensions":{"S8S_v3d_lights":{"light":0}},"name":"__DEFAULT_LIGHT__","rotation":[-0.13052619222005157,-0.0,-0.0,0.9914448613738104],"translation":[120.04332610843605,90.03249458132713,120.04332610843613]}],"scene":0,"scenes":[{"extensions":{"S8S_v3d_scene":{"aaMethod":"AUTO","iblEnvironmentMode":"PMREM","physicallyCorrectLights":true,"shadowMap":{"esmDistanceScale":2.5,"renderReverseSided":false,"renderSingleSided":true,"type":"PCFPOISSON"},"unitsScaleFactor":1.0,"useHDR":false,"worldMaterial":1}},"extras":{"animFrameRate":24.0,"coordSystem":"Y_UP_RIGHT"},"name":"Scene","nodes":[0,5]}]}