{"accessors":[{"bufferView":0,"componentType":5123,"count":1794,"max":[1199],"min":[0],"type":"SCALAR"},{"bufferView":1,"componentType":5126,"count":1200,"max":[86.4598388671875,86.45984649658203,145.0012969970703],"min":[-86.45984649658203,-86.4598388671875,-41.74974822998047],"type":"VEC3"},{"bufferView":2,"componentType":5126,"count":1200,"max":[0.9991683959960938,0.9991683959960938,0.9999909400939941],"min":[-0.9991683959960938,-0.9991683959960938,-1.0],"type":"VEC3"},{"bufferView":3,"componentType":5126,"count":1200,"max":[1.0,1.0],"min":[0.0,0.0],"type":"VEC2"}],"asset":{"copyright":null,"generator":"Soft8Soft Verge3D for Maya plug-in","version":"2.0"},"bufferViews":[{"buffer":0,"byteLength":3588,"byteOffset":0,"target":34963},{"buffer":0,"byteLength":14400,"byteOffset":3588,"target":34962},{"buffer":0,"byteLength":14400,"byteOffset":17988,"target":34962},{"buffer":0,"byteLength":9600,"byteOffset":32388,"target":34962}],"buffers":[{"byteLength":41988,"uri":"pyramid.bin"}],"cameras":[{"extensions":{"S8S_v3d_camera":{"controls":"ORBIT","enablePan":true,"moveSpeed":1.0,"orbitMaxDistance":1000.0,"orbitMaxPolarAngle":3.141592653589793,"orbitMaxZoom":100.0,"orbitMinDistance":0.0,"orbitMinPolarAngle":0.0,"orbitMinZoom":0.009999999776482582,"orbitTarget":[2.842170943040401e-14,0.0,0.0],"rotateSpeed":1.0,"viewportFitInitialAspect":1.5,"viewportFitType":"HORIZONTAL"}},"name":"perspShape","perspective":{"aspectRatio":1.5,"yfov":0.6605947096585075,"zfar":10000.0,"znear":0.1},"type":"perspective"}],"extensions":{"S8S_v3d_lights":{"lights":[{"color":[1,1,1],"intensity":2.5,"name":"__DEFAULT__","profile":"maya","type":"directional"}]}},"extensionsUsed":["S8S_v3d_materials","S8S_v3d_lights","S8S_v3d_camera","S8S_v3d_mesh","S8S_v3d_node","S8S_v3d_scene"],"materials":[{"extensions":{"S8S_v3d_materials":{"gtaoVisible":true,"nodeGraph":{"edges":[{"fromNode":1,"fromOutput":0,"toInput":0,"toNode":0}],"nodes":[{"inputs":[[0.0,0.0,0.0,1],[0,0,0,0],[0,0,0]],"is_active_output":true,"name":"phongE1SG","outputs":[],"type":"SHADING_ENGINE_MY"},{"inputs":[[0.33329999446868896,0.11760000139474869,0.7450000047683716],[0.0,0.0,0.0],[0.0,0.0,0.0],1.0,0.800000011920929,[1.0,1.0,1.0],0.5,[0.0,0.0,0.0],0.5,0.5,[0.5,0.5,0.5],0.0,[0.0,0.0,0.0]],"name":"purple_phongE","outputs":[[0.0,0.0,0.0,0]],"type":"PHONG_E_MY"}]},"profile":"maya"}},"name":"purple_phongE"},{"extensions":{"S8S_v3d_materials":{"nodeGraph":{"edges":[{"fromNode":0,"fromOutput":0,"toInput":0,"toNode":1}],"nodes":[{"inputs":[[0.10653923276464054,0.10653923276464054,0.10653923276464054],[0,0,0],[0,0,0],[0,0,0],[0,0,0],[0,0,0]],"name":"aiRaySwitchColor","outputs":[[0,0,0],0],"type":"RAY_SWITCH_AR"},{"inputs":[[0,0,0],1],"is_active_output":true,"name":"aiSkyDomeLightShapeColor","outputs":[],"type":"SKYDOME_LIGHT_AR"}]},"profile":"maya"}},"name":"Verge3D_Environment"}],"meshes":[{"extensions":{"S8S_v3d_mesh":{}},"name":"level4_allobjects:pyramidShape","primitives":[{"attributes":{"NORMAL":2,"POSITION":1,"TEXCOORD_0":3},"indices":0,"material":0,"mode":4}]}],"nodes":[{"extensions":{"S8S_v3d_node":{"frustumCulling":true,"hidden":false,"hidpiCompositing":false,"renderOrder":0,"useCastShadows":true,"useShadows":true}},"mesh":0,"name":"level4_allobjects:pyramid","rotation":[-0.49999999999999906,0.49999999999999895,-0.500000000000001,0.5000000000000011],"scale":[0.020752962169913198,0.020752962169913194,0.020752962169913198],"translation":[5.958073690083922,55.21530430238091,-21.821471656009475]},{"camera":0,"children":[2],"extensions":{"S8S_v3d_node":{"hidden":true,"hidpiCompositing":false}},"name":"persp","rotation":[-0.2230243961057575,0.37136585056309357,0.09237972960707397,0.8965564730316413],"scale":[1.0,1.0,1.0],"translation":[172.73606317204434,129.5520473790334,172.73606317204445]},{"extensions":{"S8S_v3d_lights":{"light":0}},"name":"__DEFAULT_LIGHT__","rotation":[-0.13052619222005157,-0.0,-0.0,0.9914448613738104],"translation":[172.73606317204434,129.5520473790334,172.73606317204445]}],"scene":0,"scenes":[{"extensions":{"S8S_v3d_scene":{"aaMethod":"AUTO","iblEnvironmentMode":"PMREM","physicallyCorrectLights":true,"shadowMap":{"esmDistanceScale":2.5,"renderReverseSided":false,"renderSingleSided":true,"type":"PCFPOISSON"},"unitsScaleFactor":1.0,"useHDR":false,"worldMaterial":1}},"extras":{"animFrameRate":24.0,"coordSystem":"Y_UP_RIGHT"},"name":"Scene","nodes":[0,1]}]}