{"accessors":[{"bufferView":0,"componentType":5123,"count":19542,"max":[19541],"min":[0],"type":"SCALAR"},{"bufferView":1,"componentType":5126,"count":19542,"max":[10.00002670288086,9.510665893554688,66.64140319824219],"min":[-9.99997329711914,-9.510464668273926,7.562467362731695e-05],"type":"VEC3"},{"bufferView":2,"componentType":5126,"count":19542,"max":[1.0,1.0,1.0],"min":[-1.0,-1.0,-1.0],"type":"VEC3"},{"bufferView":3,"componentType":5126,"count":19542,"max":[1.8003405332565308,1.7538783550262451],"min":[-1.3620424270629883,-1.7011926174163818],"type":"VEC2"},{"bufferView":4,"componentType":5126,"count":19542,"max":[0.0,0.0,0.0,1.0],"min":[0.0,0.0,0.0,1.0],"type":"VEC4"}],"asset":{"copyright":null,"generator":"Soft8Soft Verge3D for Maya plug-in","version":"2.0"},"bufferViews":[{"buffer":0,"byteLength":39084,"byteOffset":0,"target":34963},{"buffer":0,"byteLength":234504,"byteOffset":39084,"target":34962},{"buffer":0,"byteLength":234504,"byteOffset":273588,"target":34962},{"buffer":0,"byteLength":156336,"byteOffset":508092,"target":34962},{"buffer":0,"byteLength":312672,"byteOffset":664428,"target":34962}],"buffers":[{"byteLength":977100,"uri":"punching-bag.bin"}],"cameras":[{"extensions":{"S8S_v3d_camera":{"controls":"ORBIT","enablePan":true,"moveSpeed":1.0,"orbitMaxDistance":1000.0,"orbitMaxPolarAngle":3.141592653589793,"orbitMaxZoom":100.0,"orbitMinDistance":0.0,"orbitMinPolarAngle":0.0,"orbitMinZoom":0.009999999776482582,"orbitTarget":[-12.22674342583251,27.801099597148678,-8.624081272028988],"rotateSpeed":1.0,"viewportFitInitialAspect":1.5,"viewportFitType":"HORIZONTAL"}},"name":"perspShape","perspective":{"aspectRatio":1.5,"yfov":0.6605947096585075,"zfar":10000.0,"znear":0.1},"type":"perspective"}],"extensions":{"S8S_v3d_lights":{"lights":[{"color":[1,1,1],"intensity":2.5,"name":"__DEFAULT__","profile":"maya","type":"directional"}]}},"extensionsUsed":["S8S_v3d_materials","S8S_v3d_lights","S8S_v3d_camera","S8S_v3d_mesh","S8S_v3d_node","S8S_v3d_scene"],"materials":[{"extensions":{"S8S_v3d_materials":{"gtaoVisible":true,"nodeGraph":{"edges":[{"fromNode":1,"fromOutput":0,"toInput":0,"toNode":0}],"nodes":[{"inputs":[[0.0,0.0,0.0,1],[0,0,0,0],[0,0,0]],"is_active_output":true,"name":"phong1SG","outputs":[],"type":"SHADING_ENGINE_MY"},{"inputs":[[0.9803000092506409,0.7450000047683716,0.31369999051094055],[0.0,0.0,0.0],[0.0,0.0,0.0],1.0,0.800000011920929,[1.0,1.0,1.0],0.5,[0.0,0.0,0.0],20.0,[0.5,0.5,0.5],0.0,[0.0,0.0,0.0]],"name":"yellow_pong","outputs":[[0.0,0.0,0.0,0]],"type":"PHONG_MY"}]},"profile":"maya"}},"name":"yellow_pong"},{"extensions":{"S8S_v3d_materials":{"nodeGraph":{"edges":[{"fromNode":0,"fromOutput":0,"toInput":0,"toNode":1}],"nodes":[{"inputs":[[0.10653923276464054,0.10653923276464054,0.10653923276464054],[0,0,0],[0,0,0],[0,0,0],[0,0,0],[0,0,0]],"name":"aiRaySwitchColor","outputs":[[0,0,0],0],"type":"RAY_SWITCH_AR"},{"inputs":[[0,0,0],1],"is_active_output":true,"name":"aiSkyDomeLightShapeColor","outputs":[],"type":"SKYDOME_LIGHT_AR"}]},"profile":"maya"}},"name":"Verge3D_Environment"}],"meshes":[{"extensions":{"S8S_v3d_mesh":{"colorLayers":{"colorSet0":"COLOR_0"}}},"name":"level3_allobjects:punching_bagShape","primitives":[{"attributes":{"COLOR_0":4,"NORMAL":2,"POSITION":1,"TEXCOORD_0":3},"indices":0,"material":0,"mode":4}]}],"nodes":[{"extensions":{"S8S_v3d_node":{"frustumCulling":true,"hidden":false,"hidpiCompositing":false,"renderOrder":0,"useCastShadows":true,"useShadows":true}},"mesh":0,"name":"level3_allobjects:punching_bag","rotation":[-0.7071067811865475,0.0,0.0,0.7071067811865477],"scale":[0.11595485099636735,0.11595485099636735,0.11595485099636735],"translation":[-19.42655529783864,33.897722576950684,-10.848777404797147]},{"camera":0,"children":[2],"extensions":{"S8S_v3d_node":{"hidden":true,"hidpiCompositing":false}},"name":"persp","rotation":[-0.2230243961057575,0.37136585056309357,0.09237972960707397,0.8965564730316413],"scale":[1.0,1.0,1.0],"translation":[107.81658268256295,117.8335941784454,111.41924483636657]},{"extensions":{"S8S_v3d_lights":{"light":0}},"name":"__DEFAULT_LIGHT__","rotation":[-0.13052619222005157,-0.0,-0.0,0.9914448613738104],"translation":[107.81658268256295,117.8335941784454,111.41924483636657]}],"scene":0,"scenes":[{"extensions":{"S8S_v3d_scene":{"aaMethod":"AUTO","iblEnvironmentMode":"PMREM","physicallyCorrectLights":true,"shadowMap":{"esmDistanceScale":2.5,"renderReverseSided":false,"renderSingleSided":true,"type":"PCFPOISSON"},"unitsScaleFactor":1.0,"useHDR":false,"worldMaterial":1}},"extras":{"animFrameRate":24.0,"coordSystem":"Y_UP_RIGHT"},"name":"Scene","nodes":[0,1]}]}