{"accessors":[{"bufferView":0,"componentType":5123,"count":16122,"max":[3430],"min":[0],"type":"SCALAR"},{"bufferView":1,"componentType":5126,"count":3431,"max":[0.8426251411437988,3.823906898498535,3.056130886077881],"min":[-0.8426253199577332,2.109813690185547,-3.0428943634033203],"type":"VEC3"},{"bufferView":2,"componentType":5126,"count":3431,"max":[1.0,0.9999978542327881,1.0],"min":[-1.0,-0.9999978542327881,-1.0],"type":"VEC3"},{"bufferView":3,"componentType":5126,"count":3431,"max":[1.0000001192092896,1.0],"min":[0.0,0.030536651611328125],"type":"VEC2"},{"bufferView":4,"componentType":5123,"count":882,"max":[350],"min":[0],"type":"SCALAR"},{"bufferView":5,"componentType":5126,"count":351,"max":[0.5,2.813896417617798,0.5],"min":[-0.5,-0.5,-0.5],"type":"VEC3"},{"bufferView":6,"componentType":5126,"count":351,"max":[1.0,1.0,1.0],"min":[-1.0,-1.0,-1.0],"type":"VEC3"},{"bufferView":7,"componentType":5126,"count":351,"max":[0.875,1.0],"min":[0.125,0.0],"type":"VEC2"},{"bufferView":8,"componentType":5123,"count":4212,"max":[1366],"min":[0],"type":"SCALAR"},{"bufferView":9,"componentType":5126,"count":1367,"max":[-4.890130043029785,2.887930154800415,0.7523431181907654],"min":[-5.535246849060059,1.5101394653320312,-0.7523433566093445],"type":"VEC3"},{"bufferView":10,"componentType":5126,"count":1367,"max":[0.9929742217063904,0.9866563677787781,1.0],"min":[-0.9096089601516724,-0.9096150994300842,-1.0],"type":"VEC3"},{"bufferView":11,"componentType":5126,"count":1367,"max":[0.65625,1.000000074505806],"min":[0.3437499701976776,0.0],"type":"VEC2"},{"bufferView":12,"componentType":5123,"count":240,"max":[83],"min":[0],"type":"SCALAR"},{"bufferView":13,"componentType":5126,"count":84,"max":[1.0,1.0,1.0000001192092896],"min":[-1.000000238418579,-1.0,-1.0000004768371582],"type":"VEC3"},{"bufferView":14,"componentType":5126,"count":84,"max":[1.0,1.0,1.0],"min":[-1.0,-1.0,-1.0],"type":"VEC3"},{"bufferView":15,"componentType":5126,"count":84,"max":[0.65625,1.000000074505806],"min":[0.3437499701976776,0.0],"type":"VEC2"}],"asset":{"copyright":null,"generator":"Soft8Soft Verge3D for Maya plug-in","version":"2.0"},"bufferViews":[{"buffer":0,"byteLength":32244,"byteOffset":0,"target":34963},{"buffer":0,"byteLength":41172,"byteOffset":32244,"target":34962},{"buffer":0,"byteLength":41172,"byteOffset":73416,"target":34962},{"buffer":0,"byteLength":27448,"byteOffset":114588,"target":34962},{"buffer":0,"byteLength":1764,"byteOffset":142036,"target":34963},{"buffer":0,"byteLength":4212,"byteOffset":143800,"target":34962},{"buffer":0,"byteLength":4212,"byteOffset":148012,"target":34962},{"buffer":0,"byteLength":2808,"byteOffset":152224,"target":34962},{"buffer":0,"byteLength":8424,"byteOffset":155032,"target":34963},{"buffer":0,"byteLength":16404,"byteOffset":163456,"target":34962},{"buffer":0,"byteLength":16404,"byteOffset":179860,"target":34962},{"buffer":0,"byteLength":10936,"byteOffset":196264,"target":34962},{"buffer":0,"byteLength":480,"byteOffset":207200,"target":34963},{"buffer":0,"byteLength":1008,"byteOffset":207680,"target":34962},{"buffer":0,"byteLength":1008,"byteOffset":208688,"target":34962},{"buffer":0,"byteLength":672,"byteOffset":209696,"target":34962}],"buffers":[{"byteLength":210368,"uri":"phone-v1.bin"}],"cameras":[{"extensions":{"S8S_v3d_camera":{"controls":"ORBIT","enablePan":true,"moveSpeed":1.0,"orbitMaxDistance":1000.0,"orbitMaxPolarAngle":3.141592653589793,"orbitMaxZoom":100.0,"orbitMinDistance":0.0,"orbitMinPolarAngle":0.0,"orbitMinZoom":0.009999999776482582,"orbitTarget":[0.1919632619857552,30.511365137864686,-5.345087882057705],"rotateSpeed":1.0,"viewportFitInitialAspect":1.5,"viewportFitType":"HORIZONTAL"}},"name":"perspShape","perspective":{"aspectRatio":1.5,"yfov":0.6605947096585076,"zfar":10000.0,"znear":0.1},"type":"perspective"}],"extensions":{"S8S_v3d_lights":{"lights":[{"color":[1,1,1],"intensity":2.5,"name":"__DEFAULT__","profile":"maya","type":"directional"}]}},"extensionsUsed":["S8S_v3d_materials","S8S_v3d_lights","S8S_v3d_camera","S8S_v3d_mesh","S8S_v3d_node","S8S_v3d_scene"],"materials":[{"extensions":{"S8S_v3d_materials":{"gtaoVisible":true,"nodeGraph":{"edges":[{"fromNode":1,"fromOutput":0,"toInput":0,"toNode":0}],"nodes":[{"inputs":[[0.0,0.0,0.0,1],[0,0,0,0],[0,0,0]],"is_active_output":true,"name":"lambert7SG","outputs":[],"type":"SHADING_ENGINE_MY"},{"inputs":[[0.3921000063419342,0.8626999855041504,0.7843000292778015],[0.0,0.0,0.0],[0.0,0.0,0.0],1.0,0.800000011920929,[1.0,1.0,1.0],0.5,[0.0,0.0,0.0],0.30000001192092896,[0.3921000063419342,0.8626999855041504,0.7843000292778015],0.699999988079071,0.0,[0.0,0.0,0.0]],"name":"blue_blinn","outputs":[[0.0,0.0,0.0,0]],"type":"BLINN_MY"}]},"profile":"maya"}},"name":"blue_blinn"},{"extensions":{"S8S_v3d_materials":{"gtaoVisible":true,"nodeGraph":{"edges":[{"fromNode":1,"fromOutput":0,"toInput":0,"toNode":0}],"nodes":[{"inputs":[[0.0,0.0,0.0,1],[0,0,0,0],[0,0,0]],"is_active_output":true,"name":"phong1SG","outputs":[],"type":"SHADING_ENGINE_MY"},{"inputs":[[0.9803000092506409,0.7450000047683716,0.31369999051094055],[0.0,0.0,0.0],[0.0,0.0,0.0],1.0,0.800000011920929,[1.0,1.0,1.0],0.5,[0.0,0.0,0.0],20.0,[0.5,0.5,0.5],0.0,[0.0,0.0,0.0]],"name":"yellow_pong","outputs":[[0.0,0.0,0.0,0]],"type":"PHONG_MY"}]},"profile":"maya"}},"name":"yellow_pong"},{"extensions":{"S8S_v3d_materials":{"gtaoVisible":true,"nodeGraph":{"edges":[{"fromNode":1,"fromOutput":0,"toInput":0,"toNode":0}],"nodes":[{"inputs":[[0.0,0.0,0.0,1],[0,0,0,0],[0,0,0]],"is_active_output":true,"name":"blinn2SG","outputs":[],"type":"SHADING_ENGINE_MY"},{"inputs":[[0.9606999754905701,0.4900999963283539,0.5098000168800354],[0.0,0.0,0.0],[0.0,0.0,0.0],1.0,0.800000011920929,[1.0,1.0,1.0],0.5,[0.0,0.0,0.0],0.30000001192092896,[0.5,0.5,0.5],0.699999988079071,0.0,[0.0,0.0,0.0]],"name":"pink_blinn","outputs":[[0.0,0.0,0.0,0]],"type":"BLINN_MY"}]},"profile":"maya"}},"name":"pink_blinn"},{"extensions":{"S8S_v3d_materials":{"nodeGraph":{"edges":[{"fromNode":0,"fromOutput":0,"toInput":0,"toNode":1}],"nodes":[{"inputs":[[0.10653923276464054,0.10653923276464054,0.10653923276464054],[0,0,0],[0,0,0],[0,0,0],[0,0,0],[0,0,0]],"name":"aiRaySwitchColor","outputs":[[0,0,0],0],"type":"RAY_SWITCH_AR"},{"inputs":[[0,0,0],1],"is_active_output":true,"name":"aiSkyDomeLightShapeColor","outputs":[],"type":"SKYDOME_LIGHT_AR"}]},"profile":"maya"}},"name":"Verge3D_Environment"}],"meshes":[{"extensions":{"S8S_v3d_mesh":{}},"name":"phone:handleShape","primitives":[{"attributes":{"NORMAL":2,"POSITION":1,"TEXCOORD_0":3},"indices":0,"material":0,"mode":4}]},{"extensions":{"S8S_v3d_mesh":{}},"name":"phone:pCubeShape15","primitives":[{"attributes":{"NORMAL":6,"POSITION":5,"TEXCOORD_0":7},"indices":4,"material":0,"mode":4}]},{"extensions":{"S8S_v3d_mesh":{}},"name":"phone:polySurfaceShape4","primitives":[{"attributes":{"NORMAL":10,"POSITION":9,"TEXCOORD_0":11},"indices":8,"material":1,"mode":4}]},{"extensions":{"S8S_v3d_mesh":{}},"name":"phone:pCylinderShape12","primitives":[{"attributes":{"NORMAL":14,"POSITION":13,"TEXCOORD_0":15},"indices":12,"material":2,"mode":4}]}],"nodes":[{"extensions":{"S8S_v3d_node":{"hidden":false,"hidpiCompositing":false}},"name":"transform1","rotation":[0.0,0.0,0.0,1.0],"scale":[1.0,1.0,1.0],"translation":[0.0,0.0,0.0]},{"extensions":{"S8S_v3d_node":{"hidden":false,"hidpiCompositing":false}},"name":"transform2","rotation":[0.0,0.0,0.0,1.0],"scale":[1.0,1.0,1.0],"translation":[0.0,0.0,0.0]},{"extensions":{"S8S_v3d_node":{"hidden":false,"hidpiCompositing":false}},"name":"transform3","rotation":[0.0,0.0,0.0,1.0],"scale":[1.0,1.0,1.0],"translation":[0.0,0.0,0.0]},{"extensions":{"S8S_v3d_node":{"hidden":false,"hidpiCompositing":false}},"name":"transform4","rotation":[0.0,0.0,0.0,1.0],"scale":[1.0,1.0,1.0],"translation":[0.0,0.0,0.0]},{"extensions":{"S8S_v3d_node":{"hidden":false,"hidpiCompositing":false}},"name":"transform5","rotation":[0.0,0.0,0.0,1.0],"scale":[1.0,1.0,1.0],"translation":[0.0,0.0,0.0]},{"extensions":{"S8S_v3d_node":{"hidden":false,"hidpiCompositing":false}},"name":"level_1_furniture_v0:transform1","rotation":[0.0,0.0,0.0,1.0],"scale":[1.0,1.0,1.0],"translation":[0.0,0.0,0.0]},{"extensions":{"S8S_v3d_node":{"hidden":false,"hidpiCompositing":false}},"name":"level_1_furniture_v0:transform2","rotation":[0.0,0.0,0.0,1.0],"scale":[1.0,1.0,1.0],"translation":[0.0,0.0,0.0]},{"extensions":{"S8S_v3d_node":{"hidden":false,"hidpiCompositing":false}},"name":"level_1_furniture_v0:transform3","rotation":[0.0,0.0,0.0,1.0],"scale":[1.0,1.0,1.0],"translation":[0.0,0.0,0.0]},{"extensions":{"S8S_v3d_node":{"hidden":false,"hidpiCompositing":false}},"name":"level_1_furniture_v0:transform4","rotation":[0.0,0.0,0.0,1.0],"scale":[1.0,1.0,1.0],"translation":[0.0,0.0,0.0]},{"extensions":{"S8S_v3d_node":{"hidden":false,"hidpiCompositing":false}},"name":"level_1_furniture_v0:transform5","rotation":[0.0,0.0,0.0,1.0],"scale":[1.0,1.0,1.0],"translation":[0.0,0.0,0.0]},{"extensions":{"S8S_v3d_node":{"hidden":false,"hidpiCompositing":false}},"name":"level_1_furniture_v5:transform1","rotation":[0.0,0.0,0.0,1.0],"scale":[1.0,1.0,1.0],"translation":[0.0,0.0,0.0]},{"extensions":{"S8S_v3d_node":{"hidden":false,"hidpiCompositing":false}},"name":"level_1_furniture_v5:transform3","rotation":[0.0,0.0,0.0,1.0],"scale":[1.0,1.0,1.0],"translation":[0.0,0.0,0.0]},{"extensions":{"S8S_v3d_node":{"hidden":false,"hidpiCompositing":false}},"name":"level_1_furniture_v5:transform4","rotation":[0.0,0.0,0.0,1.0],"scale":[1.0,1.0,1.0],"translation":[0.0,0.0,0.0]},{"extensions":{"S8S_v3d_node":{"hidden":false,"hidpiCompositing":false}},"name":"level_1_furniture_v5:transform5","rotation":[0.0,0.0,0.0,1.0],"scale":[1.0,1.0,1.0],"translation":[0.0,0.0,0.0]},{"children":[15,16,17],"extensions":{"S8S_v3d_node":{"hidden":false,"hidpiCompositing":false}},"name":"phone:phone","rotation":[0.7071067811865475,0.0,0.0,0.7071067811865477],"scale":[0.5,0.5,0.5],"translation":[4.478036223790846,13.2139218872462,4.990332638587805]},{"extensions":{"S8S_v3d_node":{"frustumCulling":true,"groupNames":["phone:phone"],"hidden":false,"hidpiCompositing":false,"renderOrder":0,"useCastShadows":true,"useShadows":true}},"mesh":0,"name":"phone:handle","rotation":[0.0,0.0,0.0,1.0],"scale":[1.0,1.0,1.0],"translation":[-6.370660742459918,0.0,0.0]},{"extensions":{"S8S_v3d_node":{"frustumCulling":true,"groupNames":["phone:phone"],"hidden":false,"hidpiCompositing":false,"renderOrder":0,"useCastShadows":true,"useShadows":true}},"mesh":1,"name":"phone:pCube15","rotation":[0.0,0.0,0.0,1.0],"scale":[4.0,1.0,4.5],"translation":[-6.362645725820082,0.5,0.0]},{"children":[18,19],"extensions":{"S8S_v3d_node":{"groupNames":["phone:phone"],"hidden":false,"hidpiCompositing":false}},"name":"phone:Dial","rotation":[0.0,0.0,-0.5406149020685665,0.8412701870751121],"scale":[0.7523429762867723,0.7523429762867723,0.7523429762867723],"translation":[-5.212688522318766,2.1990347192471367,0.0]},{"extensions":{"S8S_v3d_node":{"frustumCulling":true,"groupNames":["phone:Dial","phone:phone"],"hidden":false,"hidpiCompositing":false,"renderOrder":0,"useCastShadows":true,"useShadows":true}},"mesh":2,"name":"phone:polySurface3","rotation":[0.0,0.0,0.5406149020685665,0.8412701870751121],"scale":[1.3291810138715616,1.3291810138715616,1.3291810138715616],"translation":[5.53733787156855,5.087918255588454,0.0]},{"extensions":{"S8S_v3d_node":{"frustumCulling":true,"groupNames":["phone:Dial","phone:phone"],"hidden":false,"hidpiCompositing":false,"renderOrder":0,"useCastShadows":true,"useShadows":true}},"mesh":3,"name":"phone:pCylinder12","rotation":[0.0,0.0,0.0,1.0],"scale":[1.0,0.11072613055178392,1.0],"translation":[0.0,-0.18803629389747867,0.0]},{"camera":0,"children":[21],"extensions":{"S8S_v3d_node":{"hidden":true,"hidpiCompositing":false}},"name":"persp","rotation":[-0.33774245261724495,0.34297841638812465,0.13372169675176532,0.8662645954959785],"scale":[1.0,0.9999999999999999,0.9999999999999999],"translation":[44.99132302239703,90.69001858785516,42.361384778304625]},{"extensions":{"S8S_v3d_lights":{"light":0}},"name":"__DEFAULT_LIGHT__","rotation":[-0.13052619222005157,-0.0,-0.0,0.9914448613738104],"translation":[44.99132302239703,90.69001858785516,42.361384778304625]}],"scene":0,"scenes":[{"extensions":{"S8S_v3d_scene":{"aaMethod":"AUTO","iblEnvironmentMode":"PMREM","physicallyCorrectLights":true,"shadowMap":{"esmDistanceScale":2.5,"renderReverseSided":false,"renderSingleSided":true,"type":"PCFPOISSON"},"unitsScaleFactor":1.0,"useHDR":false,"worldMaterial":3}},"extras":{"animFrameRate":24.0,"coordSystem":"Y_UP_RIGHT"},"name":"Scene","nodes":[0,1,2,3,4,5,6,7,8,9,10,11,12,13,14,20]}]}