{"accessors":[{"bufferView":0,"componentType":5125,"count":30000,"max":[29999],"min":[0],"type":"SCALAR"},{"bufferView":1,"componentType":5126,"count":30000,"max":[1.0801010131835938,1.0894769430160522,1.4025989770889282],"min":[-1.1063170433044434,-1.0600310564041138,-1.571679949760437],"type":"VEC3"},{"bufferView":2,"componentType":5126,"count":30000,"max":[0.999893844127655,0.9990949630737305,0.9987769722938538],"min":[-0.9998738765716553,-0.999998152256012,-0.9998817443847656],"type":"VEC3"},{"bufferView":3,"componentType":5126,"count":30000,"max":[0.999879002571106,0.9999309999984689],"min":[9.999999747378752e-05,0.045157015323638916],"type":"VEC2"}],"asset":{"copyright":null,"generator":"Soft8Soft Verge3D for Maya plug-in","version":"2.0"},"bufferViews":[{"buffer":0,"byteLength":120000,"byteOffset":0,"target":34963},{"buffer":0,"byteLength":360000,"byteOffset":120000,"target":34962},{"buffer":0,"byteLength":360000,"byteOffset":480000,"target":34962},{"buffer":0,"byteLength":240000,"byteOffset":840000,"target":34962}],"buffers":[{"byteLength":1080000,"uri":"lemon.bin"}],"cameras":[{"extensions":{"S8S_v3d_camera":{"controls":"ORBIT","enablePan":true,"moveSpeed":1.0,"orbitMaxDistance":1000.0,"orbitMaxPolarAngle":3.141592653589793,"orbitMaxZoom":100.0,"orbitMinDistance":0.0,"orbitMinPolarAngle":0.0,"orbitMinZoom":0.009999999776482582,"orbitTarget":[8.526512829121202e-14,5.684341886080802e-14,8.526512829121202e-14],"rotateSpeed":1.0,"viewportFitInitialAspect":1.5,"viewportFitType":"HORIZONTAL"}},"name":"perspShape","perspective":{"aspectRatio":1.5,"yfov":0.6605947096585075,"zfar":10000.0,"znear":0.1},"type":"perspective"}],"extensions":{"S8S_v3d_lights":{"lights":[{"color":[1,1,1],"intensity":2.5,"name":"__DEFAULT__","profile":"maya","type":"directional"}]}},"extensionsUsed":["S8S_v3d_materials","S8S_v3d_lights","S8S_v3d_camera","S8S_v3d_mesh","S8S_v3d_node","S8S_v3d_scene"],"materials":[{"extensions":{"S8S_v3d_materials":{"gtaoVisible":true,"nodeGraph":{"edges":[{"fromNode":1,"fromOutput":0,"toInput":0,"toNode":0}],"nodes":[{"inputs":[[0.0,0.0,0.0,1],[0,0,0,0],[0,0,0]],"is_active_output":true,"name":"phongE1SG","outputs":[],"type":"SHADING_ENGINE_MY"},{"inputs":[[0.33329999446868896,0.11760000139474869,0.7450000047683716],[0.0,0.0,0.0],[0.0,0.0,0.0],1.0,0.800000011920929,[1.0,1.0,1.0],0.5,[0.0,0.0,0.0],0.5,0.5,[0.5,0.5,0.5],0.0,[0.0,0.0,0.0]],"name":"purple_phongE","outputs":[[0.0,0.0,0.0,0]],"type":"PHONG_E_MY"}]},"profile":"maya"}},"name":"purple_phongE"},{"extensions":{"S8S_v3d_materials":{"nodeGraph":{"edges":[{"fromNode":0,"fromOutput":0,"toInput":0,"toNode":1}],"nodes":[{"inputs":[[0.10653923276464054,0.10653923276464054,0.10653923276464054],[0,0,0],[0,0,0],[0,0,0],[0,0,0],[0,0,0]],"name":"aiRaySwitchColor","outputs":[[0,0,0],0],"type":"RAY_SWITCH_AR"},{"inputs":[[0,0,0],1],"is_active_output":true,"name":"aiSkyDomeLightShapeColor","outputs":[],"type":"SKYDOME_LIGHT_AR"}]},"profile":"maya"}},"name":"Verge3D_Environment"}],"meshes":[{"extensions":{"S8S_v3d_mesh":{}},"name":"level4_allobjects:lemonShape","primitives":[{"attributes":{"NORMAL":2,"POSITION":1,"TEXCOORD_0":3},"indices":0,"material":0,"mode":4}]}],"nodes":[{"extensions":{"S8S_v3d_node":{"frustumCulling":true,"hidden":false,"hidpiCompositing":false,"renderOrder":0,"useCastShadows":true,"useShadows":true}},"mesh":0,"name":"level4_allobjects:lemon","rotation":[0.6669053145932533,-0.23502617166450496,-0.23502617166450518,0.666905314593254],"scale":[1.0,1.0,1.0],"translation":[-6.597301543569337,62.45799600291076,-20.762856548883807]},{"camera":0,"children":[2],"extensions":{"S8S_v3d_node":{"hidden":true,"hidpiCompositing":false}},"name":"persp","rotation":[-0.2230243961057575,0.37136585056309357,0.09237972960707397,0.8965564730316413],"scale":[1.0,1.0,1.0],"translation":[207.20752150003216,155.40564112502432,207.20752150003236]},{"extensions":{"S8S_v3d_lights":{"light":0}},"name":"__DEFAULT_LIGHT__","rotation":[-0.13052619222005157,-0.0,-0.0,0.9914448613738104],"translation":[207.20752150003216,155.40564112502432,207.20752150003236]}],"scene":0,"scenes":[{"extensions":{"S8S_v3d_scene":{"aaMethod":"AUTO","iblEnvironmentMode":"PMREM","physicallyCorrectLights":true,"shadowMap":{"esmDistanceScale":2.5,"renderReverseSided":false,"renderSingleSided":true,"type":"PCFPOISSON"},"unitsScaleFactor":1.0,"useHDR":false,"worldMaterial":1}},"extras":{"animFrameRate":24.0,"coordSystem":"Y_UP_RIGHT"},"name":"Scene","nodes":[0,1]}]}